<?xml version="1.0" encoding="UTF-8" standalone="no"?><svg xmlns="http://www.w3.org/2000/svg" xmlns:xlink="http://www.w3.org/1999/xlink" contentStyleType="text/css" height="768.3387px" preserveAspectRatio="none" style="width:432px;height:768px;background:#FFFFFF;" version="1.1" viewBox="0 0 432 768" width="432.1491px" zoomAndPan="magnify"><defs/><g><!--MD5=[d403570e236b49771cd2b3a0d8b567fa]
class RMP--><g id="elem_RMP"><rect fill="#F1F1F1" height="28.1183" id="RMP" rx="1.6545" ry="1.6545" style="stroke:#181818;stroke-width:0.3308951983439083;" width="23.1627" x="270.0105" y="150.8882"/><text fill="#000000" font-family="sans-serif" font-size="9.2651" lengthAdjust="spacing" textLength="19.1919" x="271.9959" y="163.1546">RMP</text><line style="stroke:#181818;stroke-width:0.3308951983439083;" x1="270.6723" x2="292.5114" y1="168.4179" y2="168.4179"/><line style="stroke:#181818;stroke-width:0.3308951983439083;" x1="270.6723" x2="292.5114" y1="173.7122" y2="173.7122"/></g><!--MD5=[99b8db98afdc2c8404e39242ef4c1e65]
class Platform--><g id="elem_Platform"><rect fill="#F1F1F1" height="28.1183" id="Platform" rx="1.6545" ry="1.6545" style="stroke:#181818;stroke-width:0.3308951983439083;" width="42.3546" x="226.6632" y="4.6325"/><text fill="#000000" font-family="sans-serif" font-size="9.2651" lengthAdjust="spacing" textLength="38.3838" x="228.6486" y="16.8989">Platform</text><line style="stroke:#181818;stroke-width:0.3308951983439083;" x1="227.325" x2="268.356" y1="22.1622" y2="22.1622"/><line style="stroke:#181818;stroke-width:0.3308951983439083;" x1="227.325" x2="268.356" y1="27.4565" y2="27.4565"/></g><!--MD5=[3fd616f346a44cd59a91eb10b19e157c]
class User--><g id="elem_User"><rect fill="#F1F1F1" height="28.1183" id="User" rx="1.6545" ry="1.6545" style="stroke:#181818;stroke-width:0.3308951983439083;" width="24.4862" x="119.7841" y="150.8882"/><text fill="#000000" font-family="sans-serif" font-size="9.2651" lengthAdjust="spacing" textLength="20.5155" x="121.7694" y="163.1546">User</text><line style="stroke:#181818;stroke-width:0.3308951983439083;" x1="120.4459" x2="143.6085" y1="168.4179" y2="168.4179"/><line style="stroke:#181818;stroke-width:0.3308951983439083;" x1="120.4459" x2="143.6085" y1="173.7122" y2="173.7122"/></g><!--MD5=[a4b4d324fd2684dbb9bd6a0eaf7882b2]
class Tournament--><g id="elem_Tournament"><rect fill="#F1F1F1" height="28.1183" id="Tournament" rx="1.6545" ry="1.6545" style="stroke:#181818;stroke-width:0.3308951983439083;" width="60.2229" x="352.0725" y="150.8882"/><text fill="#000000" font-family="sans-serif" font-size="9.2651" lengthAdjust="spacing" textLength="56.2522" x="354.0579" y="163.1546">Tournament</text><line style="stroke:#181818;stroke-width:0.3308951983439083;" x1="352.7343" x2="411.6336" y1="168.4179" y2="168.4179"/><line style="stroke:#181818;stroke-width:0.3308951983439083;" x1="352.7343" x2="411.6336" y1="173.7122" y2="173.7122"/></g><!--MD5=[d6181cb537bdc20c0a3007a98a56832d]
class Student--><g id="elem_Student"><rect fill="#F1F1F1" height="28.1183" id="Student" rx="1.6545" ry="1.6545" style="stroke:#181818;stroke-width:0.3308951983439083;" width="39.0456" x="112.5044" y="338.1749"/><text fill="#000000" font-family="sans-serif" font-size="9.2651" lengthAdjust="spacing" textLength="35.0749" x="114.4897" y="350.4413">Student</text><line style="stroke:#181818;stroke-width:0.3308951983439083;" x1="113.1662" x2="150.8882" y1="355.7046" y2="355.7046"/><line style="stroke:#181818;stroke-width:0.3308951983439083;" x1="113.1662" x2="150.8882" y1="360.9989" y2="360.9989"/></g><!--MD5=[56044dde1eb5c59443a17cac917b404f]
class Battle--><g id="elem_Battle"><rect fill="#F1F1F1" height="28.1183" id="Battle" rx="1.6545" ry="1.6545" style="stroke:#181818;stroke-width:0.3308951983439083;" width="29.1188" x="367.6246" y="338.1749"/><text fill="#000000" font-family="sans-serif" font-size="9.2651" lengthAdjust="spacing" textLength="25.148" x="369.6099" y="350.4413">Battle</text><line style="stroke:#181818;stroke-width:0.3308951983439083;" x1="368.2864" x2="396.0816" y1="355.7046" y2="355.7046"/><line style="stroke:#181818;stroke-width:0.3308951983439083;" x1="368.2864" x2="396.0816" y1="360.9989" y2="360.9989"/></g><!--MD5=[13db901a0ba030b4d05d79289b8a4617]
class Educator--><g id="elem_Educator"><rect fill="#F1F1F1" height="28.1183" id="Educator" rx="1.6545" ry="1.6545" style="stroke:#181818;stroke-width:0.3308951983439083;" width="44.34" x="4.6325" y="338.1749"/><text fill="#000000" font-family="sans-serif" font-size="9.2651" lengthAdjust="spacing" textLength="40.3692" x="6.6179" y="350.4413">Educator</text><line style="stroke:#181818;stroke-width:0.3308951983439083;" x1="5.2943" x2="48.3107" y1="355.7046" y2="355.7046"/><line style="stroke:#181818;stroke-width:0.3308951983439083;" x1="5.2943" x2="48.3107" y1="360.9989" y2="360.9989"/></g><!--MD5=[71b0b6a13faa744342078bce19fa38f0]
class Badge--><g id="elem_Badge"><rect fill="#F1F1F1" height="28.1183" id="Badge" rx="1.6545" ry="1.6545" style="stroke:#181818;stroke-width:0.3308951983439083;" width="31.7659" x="35.4058" y="589.6552"/><text fill="#000000" font-family="sans-serif" font-size="9.2651" lengthAdjust="spacing" textLength="27.7952" x="37.3912" y="601.9216">Badge</text><line style="stroke:#181818;stroke-width:0.3308951983439083;" x1="36.0676" x2="66.5099" y1="607.1849" y2="607.1849"/><line style="stroke:#181818;stroke-width:0.3308951983439083;" x1="36.0676" x2="66.5099" y1="612.4793" y2="612.4793"/></g><!--MD5=[107af66394bf1ebaa045812c9c475148]
class Score--><g id="elem_Score"><rect fill="#F1F1F1" height="28.1183" id="Score" rx="1.6545" ry="1.6545" style="stroke:#181818;stroke-width:0.3308951983439083;" width="29.1188" x="171.0728" y="735.9109"/><text fill="#000000" font-family="sans-serif" font-size="9.2651" lengthAdjust="spacing" textLength="25.148" x="173.0582" y="748.1773">Score</text><line style="stroke:#181818;stroke-width:0.3308951983439083;" x1="171.7346" x2="199.5298" y1="753.4406" y2="753.4406"/><line style="stroke:#181818;stroke-width:0.3308951983439083;" x1="171.7346" x2="199.5298" y1="758.7349" y2="758.7349"/></g><!--MD5=[dfb0845b8492ffe07b1ce50e003034d7]
class Team--><g id="elem_Team"><rect fill="#F1F1F1" height="28.1183" id="Team" rx="1.6545" ry="1.6545" style="stroke:#181818;stroke-width:0.3308951983439083;" width="29.1188" x="134.6743" y="495.0192"/><text fill="#000000" font-family="sans-serif" font-size="9.2651" lengthAdjust="spacing" textLength="25.148" x="136.6597" y="507.2856">Team</text><line style="stroke:#181818;stroke-width:0.3308951983439083;" x1="135.3361" x2="163.1313" y1="512.5489" y2="512.5489"/><line style="stroke:#181818;stroke-width:0.3308951983439083;" x1="135.3361" x2="163.1313" y1="517.8432" y2="517.8432"/></g><!--MD5=[047d7c9f9691b39fa10e838fa5898f32]
link Platform to RMP--><g id="link_Platform_RMP"><path codeLine="19" d="M250.898,32.3086 C257.0063,58.542 270.7252,117.4678 277.5615,146.8248 " fill="none" id="Platform-to-RMP" style="stroke:#181818;stroke-width:0.6617903966878166;"/><polygon fill="#181818" points="278.2895,149.9551,279.5199,143.5544,277.5406,146.732,274.363,144.7526,278.2895,149.9551" style="stroke:#181818;stroke-width:0.6617903966878166;"/><text fill="#000000" font-family="sans-serif" font-size="8.6033" lengthAdjust="spacing" textLength="55.5904" x="267.0324" y="95.0122">associated to</text><text fill="#000000" font-family="sans-serif" font-size="8.6033" lengthAdjust="spacing" textLength="5.2943" x="246.3217" y="46.0228">1</text><text fill="#000000" font-family="sans-serif" font-size="8.6033" lengthAdjust="spacing" textLength="5.2943" x="271.5472" y="143.7812">1</text></g><!--MD5=[c932a1f3fadad192b53d47c1c0cb5f91]
link Platform to Tournament--><g id="link_Platform_Tournament"><path codeLine="21" d="M263.7897,32.3946 C287.3229,51.8777 328.5789,86.0328 328.5789,86.0328 C328.5789,86.0328 355.0439,124.5887 370.7813,147.5131 " fill="none" id="Platform-to-Tournament" style="stroke:#181818;stroke-width:0.6617903966878166;"/><polygon fill="#181818" points="372.6476,150.2264,371.465,143.8167,370.7773,147.4967,367.0974,146.809,372.6476,150.2264" style="stroke:#181818;stroke-width:0.6617903966878166;"/><text fill="#000000" font-family="sans-serif" font-size="8.6033" lengthAdjust="spacing" textLength="39.0456" x="337.1822" y="95.0122">containts</text><text fill="#000000" font-family="sans-serif" font-size="8.6033" lengthAdjust="spacing" textLength="5.2943" x="274.1252" y="41.1751">1</text><text fill="#000000" font-family="sans-serif" font-size="8.6033" lengthAdjust="spacing" textLength="18.5301" x="373.2993" y="143.7009">0...n</text></g><!--MD5=[f09bffe16023af39c0d45bebcd6e9ddb]
reverse link Tournament to Battle--><g id="link_Tournament_Battle"><path codeLine="23" d="M382.184,188.0213 C382.184,227.3051 382.184,307.0178 382.184,338.347 " fill="none" id="Tournament-backto-Battle" style="stroke:#181818;stroke-width:0.6617903966878166;"/><polygon fill="none" points="382.184,179.5239,379.5368,183.4946,382.184,187.4654,384.8311,183.4946,382.184,179.5239" style="stroke:#181818;stroke-width:0.6617903966878166;"/><text fill="#000000" font-family="sans-serif" font-size="8.6033" lengthAdjust="spacing" textLength="44.34" x="382.8457" y="261.7833">belongs to</text><text fill="#000000" font-family="sans-serif" font-size="8.6033" lengthAdjust="spacing" textLength="5.2943" x="371.9924" y="193.0409">1</text><text fill="#000000" font-family="sans-serif" font-size="8.6033" lengthAdjust="spacing" textLength="18.5301" x="360.8164" y="330.9962">0...n</text></g><!--MD5=[0cdafcc0dad84b6396b2a91da681dfee]
link Platform to User--><g id="link_Platform_User"><path codeLine="25" d="M234.6907,32.3417 C220.9917,46.0408 201.5152,65.5172 201.5152,65.5172 C201.5152,65.5172 163.4821,119.4929 143.6879,147.5726 " fill="none" id="Platform-to-User" style="stroke:#181818;stroke-width:0.6617903966878166;"/><polygon fill="#181818" points="141.8349,150.2132,147.4278,146.8661,143.7394,147.5073,143.0983,143.8189,141.8349,150.2132" style="stroke:#181818;stroke-width:0.6617903966878166;"/><text fill="#000000" font-family="sans-serif" font-size="8.6033" lengthAdjust="spacing" textLength="5.2943" x="216.3639" y="37.9837">1</text><text fill="#000000" font-family="sans-serif" font-size="8.6033" lengthAdjust="spacing" textLength="18.5301" x="122.7103" y="143.6663">0...n</text></g><!--MD5=[29fe19ce294944fa80f389ae9bd987a4]
reverse link User to Student--><g id="link_User_Student"><path codeLine="27" d="M132.0272,192.7067 C132.0272,233.3407 132.0272,308.2223 132.0272,338.347 " fill="none" id="User-backto-Student" style="stroke:#181818;stroke-width:0.6617903966878166;"/><polygon fill="none" points="127.3947,192.7597,132.0272,179.5239,136.6597,192.7597,127.3947,192.7597" style="stroke:#181818;stroke-width:0.6617903966878166;"/></g><!--MD5=[4c949db311734d86ee8e1711d0c13e65]
reverse link User to Educator--><g id="link_User_Educator"><path codeLine="29" d="M117.6531,190.8471 C94.9338,231.0046 51.5071,307.7524 34.1947,338.347 " fill="none" id="User-backto-Educator" style="stroke:#181818;stroke-width:0.6617903966878166;"/><polygon fill="none" points="113.5831,188.6367,124.132,179.3981,121.6503,193.1965,113.5831,188.6367" style="stroke:#181818;stroke-width:0.6617903966878166;"/></g><!--MD5=[d0646bc71ac88a8b56336fb170f73849]
reverse link Student to Badge--><g id="link_Student_Badge"><path codeLine="31" d="M126.4946,369.868 C111.2668,417.0537 68.9586,548.1477 55.4713,589.9266 " fill="none" id="Student-backto-Badge" style="stroke:#181818;stroke-width:0.6617903966878166;"/><polygon fill="#181818" points="127.4939,366.7841,123.1384,371.633,126.4731,369.9316,128.1745,373.2663,127.4939,366.7841" style="stroke:#181818;stroke-width:0.6617903966878166;"/><text fill="#000000" font-family="sans-serif" font-size="8.6033" lengthAdjust="spacing" textLength="19.1919" x="100.923" y="459.6587">wins</text><text fill="#000000" font-family="sans-serif" font-size="8.6033" lengthAdjust="spacing" textLength="5.2943" x="120.3982" y="379.8643">1</text><text fill="#000000" font-family="sans-serif" font-size="8.6033" lengthAdjust="spacing" textLength="18.5301" x="35.3846" y="582.6062">0...n</text></g><!--MD5=[76c61fc2a9106be5f91697f9fa81ad49]
reverse link Educator to Badge--><g id="link_Educator_Badge"><path codeLine="33" d="M25.6311,370.0732 C23.7318,398.2059 20.1846,450.6793 20.1846,450.6793 C20.1846,450.6793 20.1846,461.9297 20.1846,461.9297 C20.1846,461.9297 40.72,554.984 48.4166,589.8803 " fill="none" id="Educator-backto-Badge" style="stroke:#181818;stroke-width:0.6617903966878166;"/><polygon fill="#181818" points="25.8429,366.9429,22.7934,372.7034,25.6159,370.2441,28.0752,373.0666,25.8429,366.9429" style="stroke:#181818;stroke-width:0.6617903966878166;"/><text fill="#000000" font-family="sans-serif" font-size="8.6033" lengthAdjust="spacing" textLength="29.7806" x="20.8464" y="459.6587">creates</text><text fill="#000000" font-family="sans-serif" font-size="8.6033" lengthAdjust="spacing" textLength="5.2943" x="14.4188" y="379.8199">1</text></g><!--MD5=[6cde0e8bac43a4babf900d8f29656284]
reverse link Team to Score--><g id="link_Team_Score"><path codeLine="35" d="M149.5315,526.6727 C150.2198,566.4396 151.8809,661.7904 151.8809,661.7904 C151.8809,661.7904 171.1655,711.696 180.5761,736.0698 " fill="none" id="Team-backto-Score" style="stroke:#181818;stroke-width:0.6617903966878166;"/><polygon fill="#181818" points="149.4786,523.5556,146.9339,529.5562,149.5353,526.8641,152.2275,529.4655,149.4786,523.5556" style="stroke:#181818;stroke-width:0.6617903966878166;"/><text fill="#000000" font-family="sans-serif" font-size="8.6033" lengthAdjust="spacing" textLength="48.3107" x="152.5427" y="659.5194">assigned to</text><text fill="#000000" font-family="sans-serif" font-size="8.6033" lengthAdjust="spacing" textLength="5.2943" x="139.6834" y="536.889">1</text><text fill="#000000" font-family="sans-serif" font-size="8.6033" lengthAdjust="spacing" textLength="5.2943" x="172.9227" y="728.715">1</text></g><!--MD5=[be48bda4642920755749f14ad47e1056]
link Student to Team--><g id="link_Student_Team"><path codeLine="37" d="M134.4489,374.6179 C134.4489,374.6179 143.4762,456.2052 146.7388,485.7343 " fill="none" id="Student-Team" style="stroke:#181818;stroke-width:0.6617903966878166;"/><polygon fill="#181818" points="147.6785,494.192,149.6548,487.9809,147.3147,490.9031,144.3925,488.563,147.6785,494.192" style="stroke:#181818;stroke-width:0.6617903966878166;"/><line style="stroke:#181818;stroke-width:0.6617903966878166;" x1="147.3147" x2="146.7322" y1="490.9031" y2="485.6416"/><polygon fill="none" points="133.5758,366.7245,131.3812,370.9623,134.4489,374.6179,136.6435,370.3801,133.5758,366.7245" style="stroke:#181818;stroke-width:0.6617903966878166;"/><text fill="#000000" font-family="sans-serif" font-size="8.6033" lengthAdjust="spacing" textLength="44.34" x="141.2922" y="428.5545">belongs to</text><text fill="#000000" font-family="sans-serif" font-size="8.6033" lengthAdjust="spacing" textLength="18.5301" x="100.4495" y="380.0824">1...n</text><text fill="#000000" font-family="sans-serif" font-size="8.6033" lengthAdjust="spacing" textLength="5.2943" x="141.2442" y="487.8405">1</text></g><!--MD5=[d2bd861b7135daeed1d15a1787e0e072]
link Platform to Score--><g id="link_Platform_Score"><path codeLine="39" d="M242.4999,32.3616 C234.0951,53.0888 218.7217,90.9962 218.7217,90.9962 C218.7217,90.9962 218.7217,90.9962 218.7217,682.3059 C218.7217,682.3059 203.8579,712.3247 194.0568,732.1255 " fill="none" id="Platform-to-Score" style="stroke:#181818;stroke-width:0.6617903966878166;"/><polygon fill="#181818" points="192.6141,735.044,197.6242,730.8749,194.0788,732.0768,192.8768,728.5314,192.6141,735.044" style="stroke:#181818;stroke-width:0.6617903966878166;"/><text fill="#000000" font-family="sans-serif" font-size="8.6033" lengthAdjust="spacing" textLength="41.6928" x="219.3835" y="355.4267">calculates</text><text fill="#000000" font-family="sans-serif" font-size="8.6033" lengthAdjust="spacing" textLength="5.2943" x="223.2269" y="46.1684">1</text><text fill="#000000" font-family="sans-serif" font-size="8.6033" lengthAdjust="spacing" textLength="5.2943" x="188.0194" y="728.7868">1</text></g><!--MD5=[39f9fee88520556123f372f8aded8cf0]
@startuml entityClassDiagram

scale 1024 width
scale 768 height

skinparam linetype polyline
'Hide circles defaultly present on the classes
hide RMP circle
hide Platform circle
hide User circle
hide Tournament circle
hide Student circle
hide Battle circle
hide Educator circle
hide Badge circle
hide Score circle
hide Team circle

'Define relations
Platform "1" - - -> "1" RMP : associated to

Platform "1" - -d-> "0...n" Tournament : containts

Tournament "1" o- -d- - "0...n" Battle : belongs to 

Platform "1" - -d-> "0...n" User

User <|- -d- - Student

User <|- -d- - Educator

Badge "0...n" - -u- -> "1" Student : wins

Badge - -u- -> "1" Educator : creates

Score "1" - -u- -> "1" Team : assigned to

Student "1...n" o-d- -> "1" Team : belongs to

Platform "1" -d- - -> "1" Score : calculates
@enduml

@startuml entityClassDiagram

scale 1024 width
scale 768 height

skinparam linetype polyline
hide RMP circle
hide Platform circle
hide User circle
hide Tournament circle
hide Student circle
hide Battle circle
hide Educator circle
hide Badge circle
hide Score circle
hide Team circle

Platform "1" - - -> "1" RMP : associated to

Platform "1" - -d-> "0...n" Tournament : containts

Tournament "1" o- -d- - "0...n" Battle : belongs to 

Platform "1" - -d-> "0...n" User

User <|- -d- - Student

User <|- -d- - Educator

Badge "0...n" - -u- -> "1" Student : wins

Badge - -u- -> "1" Educator : creates

Score "1" - -u- -> "1" Team : assigned to

Student "1...n" o-d- -> "1" Team : belongs to

Platform "1" -d- - -> "1" Score : calculates
@enduml

PlantUML version 1.2022.7(Mon Aug 22 19:01:30 CEST 2022)
(GPL source distribution)
Java Runtime: OpenJDK Runtime Environment
JVM: OpenJDK 64-Bit Server VM
Default Encoding: UTF-8
Language: it
Country: IT
--></g></svg>