<?xml version="1.0" encoding="UTF-8" standalone="no"?><svg xmlns="http://www.w3.org/2000/svg" xmlns:xlink="http://www.w3.org/1999/xlink" contentStyleType="text/css" height="768.3671px" preserveAspectRatio="none" style="width:312px;height:768px;background:#FFFFFF;" version="1.1" viewBox="0 0 312 768" width="312.7993px" zoomAndPan="magnify"><defs/><g><!--MD5=[d403570e236b49771cd2b3a0d8b567fa]
class RMP--><g id="elem_RMP"><rect fill="#F1F1F1" height="30.4824" id="RMP" rx="1.7936" ry="1.7936" style="stroke:#181818;stroke-width:0.35871480961156016;" width="25.11" x="16.5009" y="150.6602"/><text fill="#000000" font-family="sans-serif" font-size="10.044" lengthAdjust="spacing" textLength="20.8055" x="18.6532" y="163.9579">RMP</text><line style="stroke:#181818;stroke-width:0.35871480961156016;" x1="17.2183" x2="40.8935" y1="169.6637" y2="169.6637"/><line style="stroke:#181818;stroke-width:0.35871480961156016;" x1="17.2183" x2="40.8935" y1="175.4031" y2="175.4031"/></g><!--MD5=[99b8db98afdc2c8404e39242ef4c1e65]
class Platform--><g id="elem_Platform"><rect fill="#F1F1F1" height="30.4824" id="Platform" rx="1.7936" ry="1.7936" style="stroke:#181818;stroke-width:0.35871480961156016;" width="45.9155" x="156.7584" y="5.022"/><text fill="#000000" font-family="sans-serif" font-size="10.044" lengthAdjust="spacing" textLength="41.6109" x="158.9107" y="18.3197">Platform</text><line style="stroke:#181818;stroke-width:0.35871480961156016;" x1="157.4758" x2="201.9564" y1="24.0255" y2="24.0255"/><line style="stroke:#181818;stroke-width:0.35871480961156016;" x1="157.4758" x2="201.9564" y1="29.7649" y2="29.7649"/></g><!--MD5=[3fd616f346a44cd59a91eb10b19e157c]
class User--><g id="elem_User"><rect fill="#F1F1F1" height="30.4824" id="User" rx="1.7936" ry="1.7936" style="stroke:#181818;stroke-width:0.35871480961156016;" width="26.5449" x="101.1576" y="150.6602"/><text fill="#000000" font-family="sans-serif" font-size="10.044" lengthAdjust="spacing" textLength="22.2403" x="103.3099" y="163.9579">User</text><line style="stroke:#181818;stroke-width:0.35871480961156016;" x1="101.875" x2="126.985" y1="169.6637" y2="169.6637"/><line style="stroke:#181818;stroke-width:0.35871480961156016;" x1="101.875" x2="126.985" y1="175.4031" y2="175.4031"/></g><!--MD5=[a4b4d324fd2684dbb9bd6a0eaf7882b2]
class Tournament--><g id="elem_Tournament"><rect fill="#F1F1F1" height="30.4824" id="Tournament" rx="1.7936" ry="1.7936" style="stroke:#181818;stroke-width:0.35871480961156016;" width="65.2861" x="187.2491" y="150.6602"/><text fill="#000000" font-family="sans-serif" font-size="10.044" lengthAdjust="spacing" textLength="60.9815" x="189.4014" y="163.9579">Tournament</text><line style="stroke:#181818;stroke-width:0.35871480961156016;" x1="187.9666" x2="251.8178" y1="169.6637" y2="169.6637"/><line style="stroke:#181818;stroke-width:0.35871480961156016;" x1="187.9666" x2="251.8178" y1="175.4031" y2="175.4031"/></g><!--MD5=[d6181cb537bdc20c0a3007a98a56832d]
class Student--><g id="elem_Student"><rect fill="#F1F1F1" height="30.4824" id="Student" rx="1.7936" ry="1.7936" style="stroke:#181818;stroke-width:0.35871480961156016;" width="42.3283" x="112.6365" y="340.0616"/><text fill="#000000" font-family="sans-serif" font-size="10.044" lengthAdjust="spacing" textLength="38.0238" x="114.7887" y="353.3593">Student</text><line style="stroke:#181818;stroke-width:0.35871480961156016;" x1="113.3539" x2="154.2474" y1="359.0651" y2="359.0651"/><line style="stroke:#181818;stroke-width:0.35871480961156016;" x1="113.3539" x2="154.2474" y1="364.8046" y2="364.8046"/></g><!--MD5=[56044dde1eb5c59443a17cac917b404f]
class Battle--><g id="elem_Battle"><rect fill="#F1F1F1" height="30.4824" id="Battle" rx="1.7936" ry="1.7936" style="stroke:#181818;stroke-width:0.35871480961156016;" width="31.5669" x="214.8702" y="340.0616"/><text fill="#000000" font-family="sans-serif" font-size="10.044" lengthAdjust="spacing" textLength="27.2623" x="217.0225" y="353.3593">Battle</text><line style="stroke:#181818;stroke-width:0.35871480961156016;" x1="215.5876" x2="245.7196" y1="359.0651" y2="359.0651"/><line style="stroke:#181818;stroke-width:0.35871480961156016;" x1="215.5876" x2="245.7196" y1="364.8046" y2="364.8046"/></g><!--MD5=[13db901a0ba030b4d05d79289b8a4617]
class Educator--><g id="elem_Educator"><rect fill="#F1F1F1" height="30.4824" id="Educator" rx="1.7936" ry="1.7936" style="stroke:#181818;stroke-width:0.35871480961156016;" width="48.0678" x="5.022" y="340.0616"/><text fill="#000000" font-family="sans-serif" font-size="10.044" lengthAdjust="spacing" textLength="43.7632" x="7.1743" y="353.3593">Educator</text><line style="stroke:#181818;stroke-width:0.35871480961156016;" x1="5.7394" x2="52.3724" y1="359.0651" y2="359.0651"/><line style="stroke:#181818;stroke-width:0.35871480961156016;" x1="5.7394" x2="52.3724" y1="364.8046" y2="364.8046"/></g><!--MD5=[71b0b6a13faa744342078bce19fa38f0]
class Badge--><g id="elem_Badge"><rect fill="#F1F1F1" height="30.4824" id="Badge" rx="1.7936" ry="1.7936" style="stroke:#181818;stroke-width:0.35871480961156016;" width="34.4366" x="59.1879" y="587.5749"/><text fill="#000000" font-family="sans-serif" font-size="10.044" lengthAdjust="spacing" textLength="30.132" x="61.3402" y="600.8725">Badge</text><line style="stroke:#181818;stroke-width:0.35871480961156016;" x1="59.9054" x2="92.9071" y1="606.5783" y2="606.5783"/><line style="stroke:#181818;stroke-width:0.35871480961156016;" x1="59.9054" x2="92.9071" y1="612.3178" y2="612.3178"/></g><!--MD5=[107af66394bf1ebaa045812c9c475148]
class Score--><g id="elem_Score"><rect fill="#F1F1F1" height="30.4824" id="Score" rx="1.7936" ry="1.7936" style="stroke:#181818;stroke-width:0.35871480961156016;" width="31.5669" x="263.6554" y="733.2131"/><text fill="#000000" font-family="sans-serif" font-size="10.044" lengthAdjust="spacing" textLength="27.2623" x="265.8077" y="746.5107">Score</text><line style="stroke:#181818;stroke-width:0.35871480961156016;" x1="264.3728" x2="294.5049" y1="752.2165" y2="752.2165"/><line style="stroke:#181818;stroke-width:0.35871480961156016;" x1="264.3728" x2="294.5049" y1="757.956" y2="757.956"/></g><!--MD5=[dfb0845b8492ffe07b1ce50e003034d7]
class Team--><g id="elem_Team"><rect fill="#F1F1F1" height="30.4824" id="Team" rx="1.7936" ry="1.7936" style="stroke:#181818;stroke-width:0.35871480961156016;" width="31.5669" x="178.9987" y="485.6999"/><text fill="#000000" font-family="sans-serif" font-size="10.044" lengthAdjust="spacing" textLength="27.2623" x="181.151" y="498.9975">Team</text><line style="stroke:#181818;stroke-width:0.35871480961156016;" x1="179.7161" x2="209.8482" y1="504.7033" y2="504.7033"/><line style="stroke:#181818;stroke-width:0.35871480961156016;" x1="179.7161" x2="209.8482" y1="510.4428" y2="510.4428"/></g><!--MD5=[047d7c9f9691b39fa10e838fa5898f32]
link Platform to RMP--><g id="link_Platform_RMP"><path codeLine="19" d="M164.9945,34.8958 C136.4192,62.2442 73.6872,122.2931 44.5237,150.2011 " fill="none" id="Platform-to-RMP" style="stroke:#181818;stroke-width:0.7174296192231203;"/><polygon fill="#181818" points="42.2566,152.3749,48.9015,149.9724,44.8439,149.8902,44.9261,145.8327,42.2566,152.3749" style="stroke:#181818;stroke-width:0.7174296192231203;"/><text fill="#000000" font-family="sans-serif" font-size="9.3266" lengthAdjust="spacing" textLength="5.7394" x="145.4018" y="40.5248">1</text><text fill="#000000" font-family="sans-serif" font-size="9.3266" lengthAdjust="spacing" textLength="5.7394" x="40.1516" y="143.0285">1</text></g><!--MD5=[c932a1f3fadad192b53d47c1c0cb5f91]
link Platform to Tournament--><g id="link_Platform_Tournament"><path codeLine="21" d="M183.6405,34.8958 C190.9295,61.0604 206.5623,117.1634 214.7123,146.4059 " fill="none" id="Platform-to-Tournament" style="stroke:#181818;stroke-width:0.7174296192231203;"/><polygon fill="#181818" points="215.6593,149.8137,216.6887,142.8232,214.6956,146.3584,211.1603,144.3652,215.6593,149.8137" style="stroke:#181818;stroke-width:0.7174296192231203;"/><text fill="#000000" font-family="sans-serif" font-size="9.3266" lengthAdjust="spacing" textLength="5.7394" x="179.8521" y="50.4733">1</text><text fill="#000000" font-family="sans-serif" font-size="9.3266" lengthAdjust="spacing" textLength="20.088" x="217.8232" y="142.8967">0...n</text></g><!--MD5=[f09bffe16023af39c0d45bebcd6e9ddb]
reverse link Tournament to Battle--><g id="link_Tournament_Battle"><path codeLine="23" d="M221.2983,190.9511 C223.5726,230.7541 228.0063,308.1862 229.8358,340.119 " fill="none" id="Tournament-backto-Battle" style="stroke:#181818;stroke-width:0.7174296192231203;"/><polygon fill="none" points="220.7603,181.6532,218.1411,186.1146,221.252,190.2483,223.8711,185.7868,220.7603,181.6532" style="stroke:#181818;stroke-width:0.7174296192231203;"/><text fill="#000000" font-family="sans-serif" font-size="9.3266" lengthAdjust="spacing" textLength="5.7394" x="211.1542" y="196.2137">1</text><text fill="#000000" font-family="sans-serif" font-size="9.3266" lengthAdjust="spacing" textLength="20.088" x="232.5459" y="332.3664">0...n</text></g><!--MD5=[0cdafcc0dad84b6396b2a91da681dfee]
link Platform to User--><g id="link_Platform_User"><path codeLine="25" d="M173.3382,34.8958 C161.4432,61.168 135.8812,117.6226 122.6876,146.7646 " fill="none" id="Platform-to-User" style="stroke:#181818;stroke-width:0.7174296192231203;"/><polygon fill="#181818" points="121.2815,149.871,126.5536,145.1667,122.7574,146.6016,121.3225,142.8053,121.2815,149.871" style="stroke:#181818;stroke-width:0.7174296192231203;"/><text fill="#000000" font-family="sans-serif" font-size="9.3266" lengthAdjust="spacing" textLength="5.7394" x="150.4905" y="50.4733">1</text><text fill="#000000" font-family="sans-serif" font-size="9.3266" lengthAdjust="spacing" textLength="20.088" x="99.6347" y="142.8967">0...n</text></g><!--MD5=[29fe19ce294944fa80f389ae9bd987a4]
reverse link User to Student--><g id="link_User_Student"><path codeLine="27" d="M117.4504,195.722 C121.6689,236.6513 129.166,309.4202 132.3299,340.119 " fill="none" id="User-backto-Student" style="stroke:#181818;stroke-width:0.7174296192231203;"/><polygon fill="none" points="112.4714,196.4394,115.994,181.6532,122.4652,195.4135,112.4714,196.4394" style="stroke:#181818;stroke-width:0.7174296192231203;"/></g><!--MD5=[4c949db311734d86ee8e1711d0c13e65]
reverse link User to Educator--><g id="link_User_Educator"><path codeLine="29" d="M101.7459,194.366 C83.2792,235.0299 49.6461,309.0759 35.5486,340.119 " fill="none" id="User-backto-Educator" style="stroke:#181818;stroke-width:0.7174296192231203;"/><polygon fill="none" points="97.0611,192.5509,107.5642,181.5599,106.2011,196.7049,97.0611,192.5509" style="stroke:#181818;stroke-width:0.7174296192231203;"/></g><!--MD5=[d0646bc71ac88a8b56336fb170f73849]
reverse link Student to Badge--><g id="link_Student_Badge"><path codeLine="31" d="M129.4602,374.4624 C118.4405,421.698 89.5854,545.4043 79.7495,587.5892 " fill="none" id="Student-backto-Badge" style="stroke:#181818;stroke-width:0.7174296192231203;"/><polygon fill="#181818" points="130.2207,371.1981,125.9677,376.8407,129.4111,374.6927,131.559,378.136,130.2207,371.1981" style="stroke:#181818;stroke-width:0.7174296192231203;"/><text fill="#000000" font-family="sans-serif" font-size="9.3266" lengthAdjust="spacing" textLength="5.7394" x="122.8246" y="385.3779">1</text><text fill="#000000" font-family="sans-serif" font-size="9.3266" lengthAdjust="spacing" textLength="20.088" x="57.6931" y="579.8239">0...n</text></g><!--MD5=[76c61fc2a9106be5f91697f9fa81ad49]
reverse link Educator to Badge--><g id="link_Educator_Badge"><path codeLine="33" d="M32.6359,374.4624 C41.7257,421.698 65.53,545.4043 73.6513,587.5892 " fill="none" id="Educator-backto-Badge" style="stroke:#181818;stroke-width:0.7174296192231203;"/><polygon fill="#181818" points="32.0117,371.2053,30.4137,378.0881,32.6895,374.7278,36.0498,377.0036,32.0117,371.2053" style="stroke:#181818;stroke-width:0.7174296192231203;"/><text fill="#000000" font-family="sans-serif" font-size="9.3266" lengthAdjust="spacing" textLength="5.7394" x="25.8508" y="385.129">1</text></g><!--MD5=[6cde0e8bac43a4babf900d8f29656284]
reverse link Team to Score--><g id="link_Team_Score"><path codeLine="35" d="M201.1888,520.1006 C217.4386,567.3362 259.9965,691.0426 274.5101,733.2274 " fill="none" id="Team-backto-Score" style="stroke:#181818;stroke-width:0.7174296192231203;"/><polygon fill="#181818" points="200.0552,516.8004,199.4446,523.8398,201.2234,520.1921,204.8712,521.9709,200.0552,516.8004" style="stroke:#181818;stroke-width:0.7174296192231203;"/><text fill="#000000" font-family="sans-serif" font-size="9.3266" lengthAdjust="spacing" textLength="5.7394" x="197.5353" y="530.7672">1</text><text fill="#000000" font-family="sans-serif" font-size="9.3266" lengthAdjust="spacing" textLength="5.7394" x="266.4799" y="725.4621">1</text></g><!--MD5=[be48bda4642920755749f14ad47e1056]
link Student to Team--><g id="link_Student_Team"><path codeLine="37" d="M143.5367,378.8598 C143.5367,378.8598 173.5175,449.771 184.8386,476.5311 " fill="none" id="Student-Team" style="stroke:#181818;stroke-width:0.7174296192231203;"/><polygon fill="#181818" points="188.3755,484.9035,188.4993,477.8387,186.9763,481.6005,183.2145,480.0775,188.3755,484.9035" style="stroke:#181818;stroke-width:0.7174296192231203;"/><line style="stroke:#181818;stroke-width:0.7174296192231203;" x1="186.9763" x2="184.7453" y1="481.6005" y2="476.3123"/><polygon fill="none" points="140.1786,370.9326,139.2153,376.0156,143.5367,378.8598,144.5001,373.7768,140.1786,370.9326" style="stroke:#181818;stroke-width:0.7174296192231203;"/><text fill="#000000" font-family="sans-serif" font-size="9.3266" lengthAdjust="spacing" textLength="20.088" x="112.102" y="385.5129">1...n</text><text fill="#000000" font-family="sans-serif" font-size="9.3266" lengthAdjust="spacing" textLength="5.7394" x="180.3481" y="477.9364">1</text></g><!--MD5=[d2bd861b7135daeed1d15a1787e0e072]
link Platform to Score--><g id="link_Platform_Score"><path codeLine="39" d="M192.264,34.8958 C224.577,71.1834 308.136,165.0088 308.136,165.0088 C308.136,165.0088 308.136,165.0088 308.136,603.3583 C308.136,603.3583 290.8962,690.0023 283.1408,728.9659 " fill="none" id="Platform-to-Score" style="stroke:#181818;stroke-width:0.7174296192231203;"/><polygon fill="#181818" points="282.452,732.4095,286.5194,726.6318,283.1477,728.8905,280.8889,725.5188,282.452,732.4095" style="stroke:#181818;stroke-width:0.7174296192231203;"/><text fill="#000000" font-family="sans-serif" font-size="9.3266" lengthAdjust="spacing" textLength="5.7394" x="204.4291" y="50.4733">1</text><text fill="#000000" font-family="sans-serif" font-size="9.3266" lengthAdjust="spacing" textLength="5.7394" x="276.4848" y="725.5246">1</text></g><!--MD5=[a9226a63db1200a998e1b11840e6eccc]
@startuml entityClassDiagram

scale 1024 width
scale 768 height

skinparam linetype polyline
'Hide circles defaultly present on the classes
hide RMP circle
hide Platform circle
hide User circle
hide Tournament circle
hide Student circle
hide Battle circle
hide Educator circle
hide Badge circle
hide Score circle
hide Team circle

'Define relations
Platform "1" - - -> "1" RMP

Platform "1" - -d-> "0...n" Tournament

Tournament "1" o- -d- - "0...n" Battle

Platform "1" - -d-> "0...n" User

User <|- -d- - Student

User <|- -d- - Educator

Badge "0...n" - -u- -> "1" Student

Badge - -u- -> "1" Educator

Score "1" - -u- -> "1" Team

Student "1...n" o-d- -> "1" Team

Platform "1" -d- - -> "1" Score
@enduml

@startuml entityClassDiagram

scale 1024 width
scale 768 height

skinparam linetype polyline
hide RMP circle
hide Platform circle
hide User circle
hide Tournament circle
hide Student circle
hide Battle circle
hide Educator circle
hide Badge circle
hide Score circle
hide Team circle

Platform "1" - - -> "1" RMP

Platform "1" - -d-> "0...n" Tournament

Tournament "1" o- -d- - "0...n" Battle

Platform "1" - -d-> "0...n" User

User <|- -d- - Student

User <|- -d- - Educator

Badge "0...n" - -u- -> "1" Student

Badge - -u- -> "1" Educator

Score "1" - -u- -> "1" Team

Student "1...n" o-d- -> "1" Team

Platform "1" -d- - -> "1" Score
@enduml

PlantUML version 1.2022.7(Mon Aug 22 19:01:30 CEST 2022)
(GPL source distribution)
Java Runtime: OpenJDK Runtime Environment
JVM: OpenJDK 64-Bit Server VM
Default Encoding: UTF-8
Language: it
Country: IT
--></g></svg>