<?xml version="1.0" encoding="UTF-8" standalone="no"?><svg xmlns="http://www.w3.org/2000/svg" xmlns:xlink="http://www.w3.org/1999/xlink" contentStyleType="text/css" height="768.5623px" preserveAspectRatio="none" style="width:514px;height:768px;background:#FFFFFF;" version="1.1" viewBox="0 0 514 768" width="514.241px" zoomAndPan="magnify"><defs/><g><!--MD5=[d403570e236b49771cd2b3a0d8b567fa]
class RMP--><g id="elem_RMP"><rect fill="#F1F1F1" height="33.827" id="RMP" rx="1.9994" ry="1.9994" style="stroke:#181818;stroke-width:0.3998763403244439;" width="29.5908" x="312.3034" y="150.3535"/><text fill="#000000" font-family="sans-serif" font-size="11.1965" lengthAdjust="spacing" textLength="24.7923" x="314.7027" y="164.7451">RMP</text><line style="stroke:#181818;stroke-width:0.3998763403244439;" x1="313.1032" x2="341.0945" y1="171.3845" y2="171.3845"/><line style="stroke:#181818;stroke-width:0.3998763403244439;" x1="313.1032" x2="341.0945" y1="177.7825" y2="177.7825"/></g><!--MD5=[99b8db98afdc2c8404e39242ef4c1e65]
class Platform--><g id="elem_Platform"><rect fill="#F1F1F1" height="33.827" id="Platform" rx="1.9994" ry="1.9994" style="stroke:#181818;stroke-width:0.3998763403244439;" width="49.5847" x="267.1174" y="5.5983"/><text fill="#000000" font-family="sans-serif" font-size="11.1965" lengthAdjust="spacing" textLength="44.7862" x="269.5167" y="19.9899">Platform</text><line style="stroke:#181818;stroke-width:0.3998763403244439;" x1="267.9171" x2="315.9023" y1="26.6293" y2="26.6293"/><line style="stroke:#181818;stroke-width:0.3998763403244439;" x1="267.9171" x2="315.9023" y1="33.0273" y2="33.0273"/></g><!--MD5=[3fd616f346a44cd59a91eb10b19e157c]
class User--><g id="elem_User"><rect fill="#F1F1F1" height="33.827" id="User" rx="1.9994" ry="1.9994" style="stroke:#181818;stroke-width:0.3998763403244439;" width="30.3906" x="128.7602" y="150.3535"/><text fill="#000000" font-family="sans-serif" font-size="11.1965" lengthAdjust="spacing" textLength="25.5921" x="131.1594" y="164.7451">User</text><line style="stroke:#181818;stroke-width:0.3998763403244439;" x1="129.5599" x2="158.351" y1="171.3845" y2="171.3845"/><line style="stroke:#181818;stroke-width:0.3998763403244439;" x1="129.5599" x2="158.351" y1="177.7825" y2="177.7825"/></g><!--MD5=[a4b4d324fd2684dbb9bd6a0eaf7882b2]
class Tournament--><g id="elem_Tournament"><rect fill="#F1F1F1" height="33.827" id="Tournament" rx="1.9994" ry="1.9994" style="stroke:#181818;stroke-width:0.3998763403244439;" width="72.7775" x="417.071" y="150.3535"/><text fill="#000000" font-family="sans-serif" font-size="11.1965" lengthAdjust="spacing" textLength="67.979" x="419.4703" y="164.7451">Tournament</text><line style="stroke:#181818;stroke-width:0.3998763403244439;" x1="417.8708" x2="489.0488" y1="171.3845" y2="171.3845"/><line style="stroke:#181818;stroke-width:0.3998763403244439;" x1="417.8708" x2="489.0488" y1="177.7825" y2="177.7825"/></g><!--MD5=[d6181cb537bdc20c0a3007a98a56832d]
class Student--><g id="elem_Student"><rect fill="#F1F1F1" height="33.827" id="Student" rx="1.9994" ry="1.9994" style="stroke:#181818;stroke-width:0.3998763403244439;" width="48.7849" x="119.563" y="344.6934"/><text fill="#000000" font-family="sans-serif" font-size="11.1965" lengthAdjust="spacing" textLength="43.9864" x="121.9623" y="359.085">Student</text><line style="stroke:#181818;stroke-width:0.3998763403244439;" x1="120.3628" x2="167.5482" y1="365.7244" y2="365.7244"/><line style="stroke:#181818;stroke-width:0.3998763403244439;" x1="120.3628" x2="167.5482" y1="372.1224" y2="372.1224"/></g><!--MD5=[56044dde1eb5c59443a17cac917b404f]
class Battle--><g id="elem_Battle"><rect fill="#F1F1F1" height="33.827" id="Battle" rx="1.9994" ry="1.9994" style="stroke:#181818;stroke-width:0.3998763403244439;" width="36.7886" x="435.0655" y="344.6934"/><text fill="#000000" font-family="sans-serif" font-size="11.1965" lengthAdjust="spacing" textLength="31.9901" x="437.4647" y="359.085">Battle</text><line style="stroke:#181818;stroke-width:0.3998763403244439;" x1="435.8652" x2="471.0543" y1="365.7244" y2="365.7244"/><line style="stroke:#181818;stroke-width:0.3998763403244439;" x1="435.8652" x2="471.0543" y1="372.1224" y2="372.1224"/></g><!--MD5=[13db901a0ba030b4d05d79289b8a4617]
class Educator--><g id="elem_Educator"><rect fill="#F1F1F1" height="33.827" id="Educator" rx="1.9994" ry="1.9994" style="stroke:#181818;stroke-width:0.3998763403244439;" width="54.3832" x="5.5983" y="344.6934"/><text fill="#000000" font-family="sans-serif" font-size="11.1965" lengthAdjust="spacing" textLength="49.5847" x="7.9975" y="359.085">Educator</text><line style="stroke:#181818;stroke-width:0.3998763403244439;" x1="6.398" x2="59.1817" y1="365.7244" y2="365.7244"/><line style="stroke:#181818;stroke-width:0.3998763403244439;" x1="6.398" x2="59.1817" y1="372.1224" y2="372.1224"/></g><!--MD5=[71b0b6a13faa744342078bce19fa38f0]
class Badge--><g id="elem_Badge"><rect fill="#F1F1F1" height="33.827" id="Badge" rx="1.9994" ry="1.9994" style="stroke:#181818;stroke-width:0.3998763403244439;" width="40.7874" x="32.39" y="584.6192"/><text fill="#000000" font-family="sans-serif" font-size="11.1965" lengthAdjust="spacing" textLength="35.9889" x="34.7892" y="599.0109">Badge</text><line style="stroke:#181818;stroke-width:0.3998763403244439;" x1="33.1897" x2="72.3776" y1="605.6502" y2="605.6502"/><line style="stroke:#181818;stroke-width:0.3998763403244439;" x1="33.1897" x2="72.3776" y1="612.0482" y2="612.0482"/></g><!--MD5=[107af66394bf1ebaa045812c9c475148]
class Score--><g id="elem_Score"><rect fill="#F1F1F1" height="33.827" id="Score" rx="1.9994" ry="1.9994" style="stroke:#181818;stroke-width:0.3998763403244439;" width="36.7886" x="189.5414" y="729.3744"/><text fill="#000000" font-family="sans-serif" font-size="11.1965" lengthAdjust="spacing" textLength="31.9901" x="191.9406" y="743.7661">Score</text><line style="stroke:#181818;stroke-width:0.3998763403244439;" x1="190.3411" x2="225.5303" y1="750.4054" y2="750.4054"/><line style="stroke:#181818;stroke-width:0.3998763403244439;" x1="190.3411" x2="225.5303" y1="756.8035" y2="756.8035"/></g><!--MD5=[dfb0845b8492ffe07b1ce50e003034d7]
class Team--><g id="elem_Team"><rect fill="#F1F1F1" height="33.827" id="Team" rx="1.9994" ry="1.9994" style="stroke:#181818;stroke-width:0.3998763403244439;" width="35.9889" x="145.9549" y="502.2447"/><text fill="#000000" font-family="sans-serif" font-size="11.1965" lengthAdjust="spacing" textLength="31.1904" x="148.3541" y="516.6363">Team</text><line style="stroke:#181818;stroke-width:0.3998763403244439;" x1="146.7546" x2="181.144" y1="523.2757" y2="523.2757"/><line style="stroke:#181818;stroke-width:0.3998763403244439;" x1="146.7546" x2="181.144" y1="529.6737" y2="529.6737"/></g><!--MD5=[047d7c9f9691b39fa10e838fa5898f32]
link Platform to RMP--><g id="link_Platform_RMP"><path codeLine="19" d="M295.8765,39.3398 C302.3385,65.6117 315.1106,117.5636 322.1484,146.2108 " fill="none" id="Platform-to-RMP" style="stroke:#181818;stroke-width:0.7997526806488878;"/><polygon fill="#181818" points="323.1481,150.2655,324.5273,142.5106,322.189,146.3835,318.3161,144.0451,323.1481,150.2655" style="stroke:#181818;stroke-width:0.7997526806488878;"/><text fill="#000000" font-family="sans-serif" font-size="10.3968" lengthAdjust="spacing" textLength="68.7787" x="311.9035" y="98.4231">associated to</text><text fill="#000000" font-family="sans-serif" font-size="10.3968" lengthAdjust="spacing" textLength="6.398" x="289.6944" y="55.4252">1</text><text fill="#000000" font-family="sans-serif" font-size="10.3968" lengthAdjust="spacing" textLength="6.398" x="314.7392" y="141.4661">1</text></g><!--MD5=[c932a1f3fadad192b53d47c1c0cb5f91]
link Platform to Tournament--><g id="link_Platform_Tournament"><path codeLine="21" d="M315.6304,39.2039 C344.0536,58.3899 387.8801,87.9728 387.8801,87.9728 C387.8801,87.9728 417.6628,123.5618 437.0888,146.7786 " fill="none" id="Platform-to-Tournament" style="stroke:#181818;stroke-width:0.7997526806488878;"/><polygon fill="#181818" points="439.872,150.1056,437.7105,142.5313,437.3075,147.0374,432.8014,146.6344,439.872,150.1056" style="stroke:#181818;stroke-width:0.7997526806488878;"/><text fill="#000000" font-family="sans-serif" font-size="10.3968" lengthAdjust="spacing" textLength="47.1854" x="399.8763" y="98.4231">containts</text><text fill="#000000" font-family="sans-serif" font-size="10.3968" lengthAdjust="spacing" textLength="6.398" x="315.2606" y="55.5353">1</text><text fill="#000000" font-family="sans-serif" font-size="10.3968" lengthAdjust="spacing" textLength="22.3931" x="410.8181" y="141.55">0...n</text></g><!--MD5=[f09bffe16023af39c0d45bebcd6e9ddb]
reverse link Tournament to Battle--><g id="link_Tournament_Battle"><path codeLine="23" d="M453.4598,194.4759 C453.4598,235.0393 453.4598,311.2557 453.4598,344.4935 " fill="none" id="Tournament-backto-Battle" style="stroke:#181818;stroke-width:0.7997526806488878;"/><polygon fill="none" points="453.4598,184.0471,450.2608,188.8456,453.4598,193.6441,456.6588,188.8456,453.4598,184.0471" style="stroke:#181818;stroke-width:0.7997526806488878;"/><text fill="#000000" font-family="sans-serif" font-size="10.3968" lengthAdjust="spacing" textLength="53.5834" x="454.2595" y="267.9706">belongs to</text><text fill="#000000" font-family="sans-serif" font-size="10.3968" lengthAdjust="spacing" textLength="6.398" x="446.162" y="200.1189">1</text><text fill="#000000" font-family="sans-serif" font-size="10.3968" lengthAdjust="spacing" textLength="22.3931" x="428.0576" y="335.9507">0...n</text></g><!--MD5=[0cdafcc0dad84b6396b2a91da681dfee]
link Platform to User--><g id="link_Platform_User"><path codeLine="25" d="M269.4607,39.2279 C253.8895,50.3524 235.927,63.1805 235.927,63.1805 C235.927,63.1805 187.7659,117.2038 161.1502,147.0665 " fill="none" id="Platform-to-User" style="stroke:#181818;stroke-width:0.7997526806488878;"/><polygon fill="#181818" points="158.327,150.2255,165.5069,146.9865,160.9901,147.2425,160.734,142.7257,158.327,150.2255" style="stroke:#181818;stroke-width:0.7997526806488878;"/><text fill="#000000" font-family="sans-serif" font-size="10.3968" lengthAdjust="spacing" textLength="6.398" x="255.5285" y="55.5663">1</text><text fill="#000000" font-family="sans-serif" font-size="10.3968" lengthAdjust="spacing" textLength="22.3931" x="136.8269" y="141.4148">0...n</text></g><!--MD5=[29fe19ce294944fa80f389ae9bd987a4]
reverse link User to Student--><g id="link_User_Student"><path codeLine="27" d="M143.9555,200.1461 C143.9555,241.7972 143.9555,312.7513 143.9555,344.4935 " fill="none" id="User-backto-Student" style="stroke:#181818;stroke-width:0.7997526806488878;"/><polygon fill="none" points="138.3572,200.0421,143.9555,184.0471,149.5538,200.0421,138.3572,200.0421" style="stroke:#181818;stroke-width:0.7997526806488878;"/></g><!--MD5=[4c949db311734d86ee8e1711d0c13e65]
reverse link User to Educator--><g id="link_User_Educator"><path codeLine="29" d="M126.6568,197.9388 C102.8322,239.246 60.7652,312.1835 42.131,344.4935 " fill="none" id="User-backto-Educator" style="stroke:#181818;stroke-width:0.7997526806488878;"/><polygon fill="none" points="121.8263,195.1077,134.6704,184.0471,131.5273,200.7059,121.8263,195.1077" style="stroke:#181818;stroke-width:0.7997526806488878;"/></g><!--MD5=[d0646bc71ac88a8b56336fb170f73849]
reverse link Student to Badge--><g id="link_Student_Badge"><path codeLine="31" d="M136.3018,382.2898 C118.6193,428.5235 75.1927,542.0404 58.9978,584.3633 " fill="none" id="Student-backto-Badge" style="stroke:#181818;stroke-width:0.7997526806488878;"/><polygon fill="#181818" points="137.8294,378.299,132.2712,383.8801,136.4016,382.0342,138.2474,386.1646,137.8294,378.299" style="stroke:#181818;stroke-width:0.7997526806488878;"/><text fill="#000000" font-family="sans-serif" font-size="10.3968" lengthAdjust="spacing" textLength="21.5933" x="105.5674" y="475.1066">wins</text><text fill="#000000" font-family="sans-serif" font-size="10.3968" lengthAdjust="spacing" textLength="6.398" x="115.1124" y="394.7606">1</text><text fill="#000000" font-family="sans-serif" font-size="10.3968" lengthAdjust="spacing" textLength="22.3931" x="35.2656" y="575.8055">0...n</text></g><!--MD5=[76c61fc2a9106be5f91697f9fa81ad49]
reverse link Educator to Badge--><g id="link_Educator_Badge"><path codeLine="33" d="M29.159,382.5137 C23.7926,412.3445 14.3955,464.6563 14.3955,464.6563 C14.3955,464.6563 14.3955,478.2521 14.3955,478.2521 C14.3955,478.2521 37.3564,551.4535 47.7612,584.6192 " fill="none" id="Educator-backto-Badge" style="stroke:#181818;stroke-width:0.7997526806488878;"/><polygon fill="#181818" points="29.9187,378.283,25.4938,384.7992,29.2095,382.2184,31.7903,385.9341,29.9187,378.283" style="stroke:#181818;stroke-width:0.7997526806488878;"/><text fill="#000000" font-family="sans-serif" font-size="10.3968" lengthAdjust="spacing" textLength="38.3881" x="15.1953" y="475.1066">creates</text><text fill="#000000" font-family="sans-serif" font-size="10.3968" lengthAdjust="spacing" textLength="6.398" x="21.7376" y="394.6097">1</text></g><!--MD5=[6cde0e8bac43a4babf900d8f29656284]
reverse link Team to Score--><g id="link_Team_Score"><path codeLine="35" d="M165.6208,540.169 C168.7478,578.0852 175.1458,655.7972 175.1458,655.7972 C175.1458,655.7972 192.6444,703.5904 202.0735,729.3584 " fill="none" id="Team-backto-Score" style="stroke:#181818;stroke-width:0.7997526806488878;"/><polygon fill="#181818" points="165.2769,535.9703,162.6849,543.4082,165.608,539.9553,169.061,542.8784,165.2769,535.9703" style="stroke:#181818;stroke-width:0.7997526806488878;"/><text fill="#000000" font-family="sans-serif" font-size="10.3968" lengthAdjust="spacing" textLength="59.1817" x="175.9456" y="652.6517">assigned to</text><text fill="#000000" font-family="sans-serif" font-size="10.3968" lengthAdjust="spacing" textLength="6.398" x="158.3525" y="552.0511">1</text><text fill="#000000" font-family="sans-serif" font-size="10.3968" lengthAdjust="spacing" textLength="6.398" x="193.127" y="720.5792">1</text></g><!--MD5=[be48bda4642920755749f14ad47e1056]
link Student to Team--><g id="link_Student_Team"><path codeLine="37" d="M147.2416,387.9058 C147.2416,387.9058 156.8715,463.0168 160.5504,491.7519 " fill="none" id="Student-Team" style="stroke:#181818;stroke-width:0.7997526806488878;"/><polygon fill="#181818" points="161.8939,502.2287,164.1487,494.6817,161.3839,498.2626,157.803,495.4977,161.8939,502.2287" style="stroke:#181818;stroke-width:0.7997526806488878;"/><line style="stroke:#181818;stroke-width:0.7997526806488878;" x1="161.3839" x2="160.5743" y1="498.2626" y2="491.9119"/><polygon fill="none" points="146.0188,378.387,143.4573,383.554,147.2416,387.9058,149.8032,382.7388,146.0188,378.387" style="stroke:#181818;stroke-width:0.7997526806488878;"/><text fill="#000000" font-family="sans-serif" font-size="10.3968" lengthAdjust="spacing" textLength="53.5834" x="155.152" y="437.5182">belongs to</text><text fill="#000000" font-family="sans-serif" font-size="10.3968" lengthAdjust="spacing" textLength="22.3931" x="121.0571" y="394.4588">1...n</text><text fill="#000000" font-family="sans-serif" font-size="10.3968" lengthAdjust="spacing" textLength="6.398" x="154.0181" y="493.4495">1</text></g><!--MD5=[d2bd861b7135daeed1d15a1787e0e072]
link Platform to Score--><g id="link_Platform_Score"><path codeLine="39" d="M283.9282,39.2519 C273.5394,60.1334 256.7206,93.9709 256.7206,93.9709 C256.7206,93.9709 256.7206,93.9709 256.7206,680.5895 C256.7206,680.5895 236.8148,707.0294 222.4272,726.1195 " fill="none" id="Platform-to-Score" style="stroke:#181818;stroke-width:0.7997526806488878;"/><polygon fill="#181818" points="219.996,729.3584,226.8891,725.5472,222.408,726.1691,221.7861,721.6879,219.996,729.3584" style="stroke:#181818;stroke-width:0.7997526806488878;"/><text fill="#000000" font-family="sans-serif" font-size="10.3968" lengthAdjust="spacing" textLength="51.1842" x="257.5204" y="365.1406">calculates</text><text fill="#000000" font-family="sans-serif" font-size="10.3968" lengthAdjust="spacing" textLength="6.398" x="274.2459" y="55.5973">1</text><text fill="#000000" font-family="sans-serif" font-size="10.3968" lengthAdjust="spacing" textLength="6.398" x="216.0902" y="720.5792">1</text></g><!--MD5=[269c2f69d2bddddd8c1d8947d07d47b2]
@startuml entityClassDiagram

scale 1024 width
scale 768 height

skinparam linetype polyline
'Hide circles defaultly present on the classes
hide RMP circle
hide Platform circle
hide User circle
hide Tournament circle
hide Student circle
hide Battle circle
hide Educator circle
hide Badge circle
hide Score circle
hide Team circle

'Define relations
Platform "1" - - -> "1" RMP : associated to

Platform "1" - -d-> "0...n" Tournament : containts

Tournament "1" o- -d- - "0...n" Battle : belongs to 

Platform "1" - -d-> "0...n" User

User <|- -d- - Student

User <|- -d- - Educator

Badge "0...n" - -u- -> "1" Student : wins

Badge - -u- -> "1" Educator : creates

Score "1" - -u- -> "1" Team : assigned to

Student "1...n" o-d- -> "1" Team : belongs to

Platform "1" -d- - -> "1" Score : calculates
@enduml

@startuml entityClassDiagram

scale 1024 width
scale 768 height

skinparam linetype polyline
hide RMP circle
hide Platform circle
hide User circle
hide Tournament circle
hide Student circle
hide Battle circle
hide Educator circle
hide Badge circle
hide Score circle
hide Team circle

Platform "1" - - -> "1" RMP : associated to

Platform "1" - -d-> "0...n" Tournament : containts

Tournament "1" o- -d- - "0...n" Battle : belongs to 

Platform "1" - -d-> "0...n" User

User <|- -d- - Student

User <|- -d- - Educator

Badge "0...n" - -u- -> "1" Student : wins

Badge - -u- -> "1" Educator : creates

Score "1" - -u- -> "1" Team : assigned to

Student "1...n" o-d- -> "1" Team : belongs to

Platform "1" -d- - -> "1" Score : calculates
@enduml

PlantUML version 1.2022.7(Mon Aug 22 19:01:30 CEST 2022)
(GPL source distribution)
Java Runtime: OpenJDK Runtime Environment
JVM: OpenJDK 64-Bit Server VM
Default Encoding: UTF-8
Language: en
Country: US
--></g></svg>