<?xml version="1.0" encoding="UTF-8" standalone="no"?><svg xmlns="http://www.w3.org/2000/svg" xmlns:xlink="http://www.w3.org/1999/xlink" contentStyleType="text/css" height="671px" preserveAspectRatio="none" style="width:410px;height:671px;background:#FFFFFF;" version="1.1" viewBox="0 0 410 671" width="410px" zoomAndPan="magnify"><defs/><g><!--MD5=[d403570e236b49771cd2b3a0d8b567fa]
class RMP--><g id="elem_RMP"><rect fill="#F1F1F1" height="43.6094" id="RMP" rx="2.5" ry="2.5" style="stroke:#181818;stroke-width:0.5;" width="36" x="163.6563" y="7"/><text fill="#000000" font-family="sans-serif" font-size="14" lengthAdjust="spacing" textLength="30" x="166.6563" y="26.5332">RMP</text><line style="stroke:#181818;stroke-width:0.5;" x1="164.6563" x2="198.6563" y1="34.6094" y2="34.6094"/><line style="stroke:#181818;stroke-width:0.5;" x1="164.6563" x2="198.6563" y1="42.6094" y2="42.6094"/></g><!--MD5=[99b8db98afdc2c8404e39242ef4c1e65]
class Platform--><g id="elem_Platform"><rect fill="#F1F1F1" height="43.6094" id="Platform" rx="2.5" ry="2.5" style="stroke:#181818;stroke-width:0.5;" width="58" x="152.6563" y="191"/><text fill="#000000" font-family="sans-serif" font-size="14" lengthAdjust="spacing" textLength="52" x="155.6563" y="210.5332">Platform</text><line style="stroke:#181818;stroke-width:0.5;" x1="153.6563" x2="209.6563" y1="218.6094" y2="218.6094"/><line style="stroke:#181818;stroke-width:0.5;" x1="153.6563" x2="209.6563" y1="226.6094" y2="226.6094"/></g><!--MD5=[3fd616f346a44cd59a91eb10b19e157c]
class User--><g id="elem_User"><rect fill="#F1F1F1" height="43.6094" id="User" rx="2.5" ry="2.5" style="stroke:#181818;stroke-width:0.5;" width="35" x="164.1563" y="375"/><text fill="#000000" font-family="sans-serif" font-size="14" lengthAdjust="spacing" textLength="29" x="167.1563" y="394.5332">User</text><line style="stroke:#181818;stroke-width:0.5;" x1="165.1563" x2="198.1563" y1="402.6094" y2="402.6094"/><line style="stroke:#181818;stroke-width:0.5;" x1="165.1563" x2="198.1563" y1="410.6094" y2="410.6094"/></g><!--MD5=[a4b4d324fd2684dbb9bd6a0eaf7882b2]
class Tournament--><g id="elem_Tournament"><rect fill="#F1F1F1" height="43.6094" id="Tournament" rx="2.5" ry="2.5" style="stroke:#181818;stroke-width:0.5;" width="83" x="300.1563" y="191"/><text fill="#000000" font-family="sans-serif" font-size="14" lengthAdjust="spacing" textLength="77" x="303.1563" y="210.5332">Tournament</text><line style="stroke:#181818;stroke-width:0.5;" x1="301.1563" x2="382.1563" y1="218.6094" y2="218.6094"/><line style="stroke:#181818;stroke-width:0.5;" x1="301.1563" x2="382.1563" y1="226.6094" y2="226.6094"/></g><!--MD5=[d6181cb537bdc20c0a3007a98a56832d]
class Student--><g id="elem_Student"><rect fill="#F1F1F1" height="43.6094" id="Student" rx="2.5" ry="2.5" style="stroke:#181818;stroke-width:0.5;" width="55" x="8.1563" y="621"/><text fill="#000000" font-family="sans-serif" font-size="14" lengthAdjust="spacing" textLength="49" x="11.1563" y="640.5332">Student</text><line style="stroke:#181818;stroke-width:0.5;" x1="9.1563" x2="62.1563" y1="648.6094" y2="648.6094"/><line style="stroke:#181818;stroke-width:0.5;" x1="9.1563" x2="62.1563" y1="656.6094" y2="656.6094"/></g><!--MD5=[56044dde1eb5c59443a17cac917b404f]
class Battle--><g id="elem_Battle"><rect fill="#F1F1F1" height="43.6094" id="Battle" rx="2.5" ry="2.5" style="stroke:#181818;stroke-width:0.5;" width="42" x="320.6563" y="375"/><text fill="#000000" font-family="sans-serif" font-size="14" lengthAdjust="spacing" textLength="36" x="323.6563" y="394.5332">Battle</text><line style="stroke:#181818;stroke-width:0.5;" x1="321.6563" x2="361.6563" y1="402.6094" y2="402.6094"/><line style="stroke:#181818;stroke-width:0.5;" x1="321.6563" x2="361.6563" y1="410.6094" y2="410.6094"/></g><!--MD5=[13db901a0ba030b4d05d79289b8a4617]
class Educator--><g id="elem_Educator"><rect fill="#F1F1F1" height="43.6094" id="Educator" rx="2.5" ry="2.5" style="stroke:#181818;stroke-width:0.5;" width="63" x="253.1563" y="621"/><text fill="#000000" font-family="sans-serif" font-size="14" lengthAdjust="spacing" textLength="57" x="256.1563" y="640.5332">Educator</text><line style="stroke:#181818;stroke-width:0.5;" x1="254.1563" x2="315.1563" y1="648.6094" y2="648.6094"/><line style="stroke:#181818;stroke-width:0.5;" x1="254.1563" x2="315.1563" y1="656.6094" y2="656.6094"/></g><!--MD5=[71b0b6a13faa744342078bce19fa38f0]
class Badge--><g id="elem_Badge"><rect fill="#F1F1F1" height="43.6094" id="Badge" rx="2.5" ry="2.5" style="stroke:#181818;stroke-width:0.5;" width="47" x="126.1563" y="621"/><text fill="#000000" font-family="sans-serif" font-size="14" lengthAdjust="spacing" textLength="41" x="129.1563" y="640.5332">Badge</text><line style="stroke:#181818;stroke-width:0.5;" x1="127.1563" x2="172.1563" y1="648.6094" y2="648.6094"/><line style="stroke:#181818;stroke-width:0.5;" x1="127.1563" x2="172.1563" y1="656.6094" y2="656.6094"/></g><!--MD5=[107af66394bf1ebaa045812c9c475148]
class Score--><g id="elem_Score"><rect fill="#F1F1F1" height="43.6094" id="Score" rx="2.5" ry="2.5" style="stroke:#181818;stroke-width:0.5;" width="43" x="14.1563" y="191"/><text fill="#000000" font-family="sans-serif" font-size="14" lengthAdjust="spacing" textLength="37" x="17.1563" y="210.5332">Score</text><line style="stroke:#181818;stroke-width:0.5;" x1="15.1563" x2="56.1563" y1="218.6094" y2="218.6094"/><line style="stroke:#181818;stroke-width:0.5;" x1="15.1563" x2="56.1563" y1="226.6094" y2="226.6094"/></g><!--MD5=[dfb0845b8492ffe07b1ce50e003034d7]
class Team--><g id="elem_Team"><rect fill="#F1F1F1" height="43.6094" id="Team" rx="2.5" ry="2.5" style="stroke:#181818;stroke-width:0.5;" width="42" x="14.6563" y="375"/><text fill="#000000" font-family="sans-serif" font-size="14" lengthAdjust="spacing" textLength="36" x="17.6563" y="394.5332">Team</text><line style="stroke:#181818;stroke-width:0.5;" x1="15.6563" x2="55.6563" y1="402.6094" y2="402.6094"/><line style="stroke:#181818;stroke-width:0.5;" x1="15.6563" x2="55.6563" y1="410.6094" y2="410.6094"/></g><!--MD5=[efa33054ac982817b450d7e05140d45d]
reverse link RMP to Platform--><g id="link_RMP_Platform"><path codeLine="27" d="M181.6563,56.39 C181.6563,92.75 181.6563,157.56 181.6563,190.9 " fill="none" id="RMP-backto-Platform" style="stroke:#181818;stroke-width:1.0;"/><polygon fill="#181818" points="181.6563,51.23,177.6563,60.23,181.6563,56.23,185.6563,60.23,181.6563,51.23" style="stroke:#181818;stroke-width:1.0;"/><text fill="#000000" font-family="sans-serif" font-size="13" lengthAdjust="spacing" textLength="78" x="182.6563" y="126.4951">associated to</text><text fill="#000000" font-family="sans-serif" font-size="13" lengthAdjust="spacing" textLength="7" x="173.8031" y="72.1841">1</text><text fill="#000000" font-family="sans-serif" font-size="13" lengthAdjust="spacing" textLength="7" x="173.6719" y="180.0339">1</text></g><!--MD5=[c932a1f3fadad192b53d47c1c0cb5f91]
link Platform to Tournament--><g id="link_Platform_Tournament"><path codeLine="29" d="M211.0063,213 C234.4263,213 267.7063,213 294.8063,213 " fill="none" id="Platform-to-Tournament" style="stroke:#181818;stroke-width:1.0;"/><polygon fill="#181818" points="300.1463,213,291.1463,209,295.1463,213,291.1463,217,300.1463,213" style="stroke:#181818;stroke-width:1.0;"/><text fill="#000000" font-family="sans-serif" font-size="13" lengthAdjust="spacing" textLength="53" x="228.9063" y="206.4951">containts</text><text fill="#000000" font-family="sans-serif" font-size="13" lengthAdjust="spacing" textLength="7" x="218.6028" y="208.7309">1</text><text fill="#000000" font-family="sans-serif" font-size="13" lengthAdjust="spacing" textLength="26" x="266.1401" y="227.7246">0...n</text></g><!--MD5=[f09bffe16023af39c0d45bebcd6e9ddb]
reverse link Tournament to Battle--><g id="link_Tournament_Battle"><path codeLine="31" d="M341.6563,248.38 C341.6563,285.63 341.6563,343.88 341.6563,374.9 " fill="none" id="Tournament-backto-Battle" style="stroke:#181818;stroke-width:1.0;"/><polygon fill="none" points="341.6563,235.23,337.6563,241.23,341.6563,247.23,345.6563,241.23,341.6563,235.23" style="stroke:#181818;stroke-width:1.0;"/><text fill="#000000" font-family="sans-serif" font-size="13" lengthAdjust="spacing" textLength="60" x="342.6563" y="310.4951">belongs to</text><text fill="#000000" font-family="sans-serif" font-size="13" lengthAdjust="spacing" textLength="7" x="333.8031" y="256.1841">1</text><text fill="#000000" font-family="sans-serif" font-size="13" lengthAdjust="spacing" textLength="26" x="312" y="364.0339">0...n</text></g><!--MD5=[0cdafcc0dad84b6396b2a91da681dfee]
link Platform to User--><g id="link_Platform_User"><path codeLine="33" d="M181.6563,235.23 C181.6563,268.66 181.6563,333.47 181.6563,369.76 " fill="none" id="Platform-to-User" style="stroke:#181818;stroke-width:1.0;"/><polygon fill="#181818" points="181.6563,374.9,185.6563,365.9,181.6563,369.9,177.6563,365.9,181.6563,374.9" style="stroke:#181818;stroke-width:1.0;"/><text fill="#000000" font-family="sans-serif" font-size="13" lengthAdjust="spacing" textLength="7" x="173.8031" y="256.1841">1</text><text fill="#000000" font-family="sans-serif" font-size="13" lengthAdjust="spacing" textLength="26" x="152" y="364.0339">0...n</text></g><!--MD5=[29fe19ce294944fa80f389ae9bd987a4]
reverse link User to Student--><g id="link_User_Student"><path codeLine="35" d="M159.3263,436.5 C136.8963,475.15 105.6563,529 105.6563,529 C105.6563,529 69.0963,588.01 48.8263,620.75 " fill="none" id="User-backto-Student" style="stroke:#181818;stroke-width:1.0;"/><polygon fill="none" points="153.3563,432.83,169.4463,419.05,165.4663,439.86,153.3563,432.83" style="stroke:#181818;stroke-width:1.0;"/></g><!--MD5=[4c949db311734d86ee8e1711d0c13e65]
reverse link User to Educator--><g id="link_User_Educator"><path codeLine="37" d="M198.4963,437.89 C220.6063,490.27 258.6263,580.34 275.7863,621 " fill="none" id="User-backto-Educator" style="stroke:#181818;stroke-width:1.0;"/><polygon fill="none" points="191.9463,440.37,190.6163,419.23,204.8463,434.93,191.9463,440.37" style="stroke:#181818;stroke-width:1.0;"/></g><!--MD5=[d0646bc71ac88a8b56336fb170f73849]
reverse link Student to Badge--><g id="link_Student_Badge"><path codeLine="39" d="M68.3063,643 C86.6363,643 109.1163,643 125.7863,643 " fill="none" id="Student-backto-Badge" style="stroke:#181818;stroke-width:1.0;"/><polygon fill="#181818" points="63.2563,643,72.2563,647,68.2563,643,72.2563,639,63.2563,643" style="stroke:#181818;stroke-width:1.0;"/><text fill="#000000" font-family="sans-serif" font-size="13" lengthAdjust="spacing" textLength="26" x="81.6563" y="636.4951">wins</text><text fill="#000000" font-family="sans-serif" font-size="13" lengthAdjust="spacing" textLength="7" x="71.2256" y="638.5402">1</text><text fill="#000000" font-family="sans-serif" font-size="13" lengthAdjust="spacing" textLength="26" x="92.1818" y="658.2217">0...n</text></g><!--MD5=[f9def4d9ad84fcf4c99124ec5bf5d920]
reverse link Badge to Educator--><g id="link_Badge_Educator"><path codeLine="41" d="M178.2763,643 C200.2063,643 230.4263,643 253.0663,643 " fill="none" id="Badge-backto-Educator" style="stroke:#181818;stroke-width:1.0;"/><polygon fill="#181818" points="173.1763,643,182.1763,647,178.1763,643,182.1763,639,173.1763,643" style="stroke:#181818;stroke-width:1.0;"/><text fill="#000000" font-family="sans-serif" font-size="13" lengthAdjust="spacing" textLength="43" x="191.6563" y="636.4951">creates</text><text fill="#000000" font-family="sans-serif" font-size="13" lengthAdjust="spacing" textLength="7" x="181.1134" y="638.2541">1</text></g><!--MD5=[e4a7aa2e7416167effb971583e58d041]
link Score to Team--><g id="link_Score_Team"><path codeLine="43" d="M35.6563,235.23 C35.6563,268.66 35.6563,333.47 35.6563,369.76 " fill="none" id="Score-to-Team" style="stroke:#181818;stroke-width:1.0;"/><polygon fill="#181818" points="35.6563,374.9,39.6563,365.9,35.6563,369.9,31.6563,365.9,35.6563,374.9" style="stroke:#181818;stroke-width:1.0;"/><text fill="#000000" font-family="sans-serif" font-size="13" lengthAdjust="spacing" textLength="67" x="36.6563" y="310.4951">assigned to</text><text fill="#000000" font-family="sans-serif" font-size="13" lengthAdjust="spacing" textLength="7" x="27.8031" y="256.1841">1</text><text fill="#000000" font-family="sans-serif" font-size="13" lengthAdjust="spacing" textLength="7" x="27.6719" y="364.0339">1</text></g><!--MD5=[48fef26b6d3bbb1988e163149c12a73c]
link Team to Student--><g id="link_Team_Student"><path codeLine="45" d="M35.6563,432.47 C35.6563,479.02 35.6563,609 35.6563,609 " fill="none" id="Team-Student" style="stroke:#181818;stroke-width:1.0;"/><polygon fill="none" points="35.6563,621,39.6563,615,35.6563,609,31.6563,615,35.6563,621" style="stroke:#181818;stroke-width:1.0;"/><polygon fill="#181818" points="35.6563,419.23,31.6563,428.23,35.6563,424.23,39.6563,428.23,35.6563,419.23" style="stroke:#181818;stroke-width:1.0;"/><line style="stroke:#181818;stroke-width:1.0;" x1="35.6563" x2="35.6563" y1="424.23" y2="432.23"/><text fill="#000000" font-family="sans-serif" font-size="13" lengthAdjust="spacing" textLength="60" x="36.6563" y="525.4951">belongs to</text><text fill="#000000" font-family="sans-serif" font-size="13" lengthAdjust="spacing" textLength="7" x="27.8031" y="440.1841">1</text><text fill="#000000" font-family="sans-serif" font-size="13" lengthAdjust="spacing" textLength="26" x="6" y="610.162">1...n</text></g><!--MD5=[cc31ed2f1b5544b502a7d0becd1dc120]
reverse link Score to Platform--><g id="link_Score_Platform"><path codeLine="47" d="M62.4363,213 C87.9263,213 126.1963,213 152.4563,213 " fill="none" id="Score-backto-Platform" style="stroke:#181818;stroke-width:1.0;"/><polygon fill="#181818" points="57.1963,213,66.1962,217,62.1963,213,66.1962,209,57.1963,213" style="stroke:#181818;stroke-width:1.0;"/><text fill="#000000" font-family="sans-serif" font-size="13" lengthAdjust="spacing" textLength="59" x="75.4063" y="206.4951">calculates</text><text fill="#000000" font-family="sans-serif" font-size="13" lengthAdjust="spacing" textLength="7" x="65.1778" y="208.0634">1</text><text fill="#000000" font-family="sans-serif" font-size="13" lengthAdjust="spacing" textLength="7" x="137.4856" y="208.6356">1</text></g><!--MD5=[ea6be7339d5ae3ba5dcd31c4f499c0c2]
@startuml entityClassDiagram
skinparam linetype polyline
'Hide circles defaultly present on the classes

'component RMP 
'component Platform 
'component User 
'component Tournament 
'component Student
'component Battle 
'component Educator 
'component Badge 
'component Score 
'component Team 

hide RMP circle
hide Platform circle
hide User circle
hide Tournament circle
hide Student circle
hide Battle circle
hide Educator circle
hide Badge circle
hide Score circle
hide Team circle

'Define relations>
Platform "1" - -up-> "1" RMP : associated to

Platform "1" - -right- -> "0...n" Tournament : containts

Tournament "1" o-down- - "0...n" Battle : belongs to 

Platform "1" -down- -> "0...n" User

User <|- -down- - Student

User <|- -down- - Educator

Badge "0...n" - -left- -> "1" Student : wins

Educator - -left- -> "1" Badge : creates

Score "1" -down- -> "1" Team : assigned to

Student "1...n" o- -up- -> "1" Team : belongs to

Platform "1" - -left- -> "1" Score : calculates
@enduml

@startuml entityClassDiagram
skinparam linetype polyline


hide RMP circle
hide Platform circle
hide User circle
hide Tournament circle
hide Student circle
hide Battle circle
hide Educator circle
hide Badge circle
hide Score circle
hide Team circle

Platform "1" - -up-> "1" RMP : associated to

Platform "1" - -right- -> "0...n" Tournament : containts

Tournament "1" o-down- - "0...n" Battle : belongs to 

Platform "1" -down- -> "0...n" User

User <|- -down- - Student

User <|- -down- - Educator

Badge "0...n" - -left- -> "1" Student : wins

Educator - -left- -> "1" Badge : creates

Score "1" -down- -> "1" Team : assigned to

Student "1...n" o- -up- -> "1" Team : belongs to

Platform "1" - -left- -> "1" Score : calculates
@enduml

PlantUML version 1.2022.7(Mon Aug 22 19:01:30 CEST 2022)
(GPL source distribution)
Java Runtime: Java(TM) SE Runtime Environment
JVM: Java HotSpot(TM) 64-Bit Server VM
Default Encoding: Cp1252
Language: en
Country: US
--></g></svg>