<?xml version="1.0" encoding="UTF-8" standalone="no"?><svg xmlns="http://www.w3.org/2000/svg" xmlns:xlink="http://www.w3.org/1999/xlink" contentStyleType="text/css" height="1518px" preserveAspectRatio="none" style="width:1222px;height:1518px;background:#FFFFFF;" version="1.1" viewBox="0 0 1222 1518" width="1222px" zoomAndPan="magnify"><defs/><g><!--MD5=[c9ec94c3351efdca29a0b1ce1ad2746a]
cluster CKBWebApp--><g id="cluster_CKBWebApp"><path d="M8.5,1218.602 L95.5,1218.602 A3.75,3.75 0 0 1 98,1221.102 L105,1243.6699 L331.5,1243.6699 A2.5,2.5 0 0 1 334,1246.1699 L334,1493.602 A2.5,2.5 0 0 1 331.5,1496.102 L8.5,1496.102 A2.5,2.5 0 0 1 6,1493.602 L6,1221.102 A2.5,2.5 0 0 1 8.5,1218.602 " fill="none" style="stroke:#000000;stroke-width:1.5;"/><line style="stroke:#000000;stroke-width:1.5;" x1="6" x2="105" y1="1243.6699" y2="1243.6699"/><text fill="#000000" font-family="sans-serif" font-size="14" font-weight="bold" lengthAdjust="spacing" textLength="86" x="10" y="1235.5679">CKBWebApp</text></g><!--MD5=[a93dfb9096a6e53683137ecca02c98f6]
cluster CKBServer--><g id="cluster_CKBServer"><path d="M360.5,6.602 L432.5,6.602 A3.75,3.75 0 0 1 435,9.102 L442,31.6699 L1113.5,31.6699 A2.5,2.5 0 0 1 1116,34.1699 L1116,1509.102 A2.5,2.5 0 0 1 1113.5,1511.602 L360.5,1511.602 A2.5,2.5 0 0 1 358,1509.102 L358,9.102 A2.5,2.5 0 0 1 360.5,6.602 " fill="none" style="stroke:#000000;stroke-width:1.5;"/><line style="stroke:#000000;stroke-width:1.5;" x1="358" x2="442" y1="31.6699" y2="31.6699"/><text fill="#000000" font-family="sans-serif" font-size="14" font-weight="bold" lengthAdjust="spacing" textLength="71" x="362" y="23.5679">CKBServer</text></g><!--MD5=[15636c1ca4a123c16a2a1a8e90aca7a9]
cluster Model--><g id="cluster_Model"><path d="M384.5,52.602 L428.5,52.602 A3.75,3.75 0 0 1 431,55.102 L438,77.6699 L867.5,77.6699 A2.5,2.5 0 0 1 870,80.1699 L870,533.102 A2.5,2.5 0 0 1 867.5,535.602 L384.5,535.602 A2.5,2.5 0 0 1 382,533.102 L382,55.102 A2.5,2.5 0 0 1 384.5,52.602 " fill="none" style="stroke:#000000;stroke-width:1.5;"/><line style="stroke:#000000;stroke-width:1.5;" x1="382" x2="438" y1="77.6699" y2="77.6699"/><text fill="#000000" font-family="sans-serif" font-size="14" font-weight="bold" lengthAdjust="spacing" textLength="43" x="386" y="69.5679">Model</text></g><!--MD5=[e9dede37b31fdda9664526f66258b036]
entity Browser--><g id="elem_Browser"><path d="M224,1260.102 L292,1260.102 A3.75,3.75 0 0 1 294.5,1262.602 L301.5,1285.1699 L316,1285.1699 A2.5,2.5 0 0 1 318.5,1287.6699 L318.5,1299.6699 A2.5,2.5 0 0 1 316,1302.1699 L224,1302.1699 A2.5,2.5 0 0 1 221.5,1299.6699 L221.5,1262.602 A2.5,2.5 0 0 1 224,1260.102 " fill="#F1F1F1" style="stroke:#181818;stroke-width:0.5;"/><line style="stroke:#181818;stroke-width:0.5;" x1="221.5" x2="301.5" y1="1285.1699" y2="1285.1699"/><text fill="#000000" font-family="sans-serif" font-size="14" lengthAdjust="spacing" textLength="55" x="231.5" y="1278.0679">Browser</text></g><!--MD5=[b7189af1184f0077b348ad6ea2b0555f]
entity DataAccess--><g id="elem_DataAccess"><ellipse cx="299" cy="1471.102" fill="#F1F1F1" rx="8" ry="8" style="stroke:#181818;stroke-width:0.5;"/><text fill="#000000" font-family="sans-serif" font-size="14" lengthAdjust="spacing" textLength="76" x="261" y="1503.0679">DataAccess</text></g><!--MD5=[f64797135f621a8bf996476a5693e4df]
entity clientFunctions--><g id="elem_clientFunctions"><rect fill="#F1F1F1" height="49.0679" rx="2.5" ry="2.5" style="stroke:#181818;stroke-width:0.5;" width="142" x="22" y="1256.602"/><rect fill="#F1F1F1" height="10" style="stroke:#181818;stroke-width:0.5;" width="15" x="144" y="1261.602"/><rect fill="#F1F1F1" height="2" style="stroke:#181818;stroke-width:0.5;" width="4" x="142" y="1263.602"/><rect fill="#F1F1F1" height="2" style="stroke:#181818;stroke-width:0.5;" width="4" x="142" y="1267.602"/><text fill="#000000" font-family="sans-serif" font-size="14" lengthAdjust="spacing" textLength="102" x="37" y="1291.5679">clientFunctions</text></g><!--MD5=[b54e9a77db7c004c5cccece494a270c9]
entity DBMS--><g id="elem_DBMS"><path d="M865,1267.102 C865,1257.102 895,1257.102 895,1257.102 C895,1257.102 925,1257.102 925,1267.102 L925,1295.1699 C925,1305.1699 895,1305.1699 895,1305.1699 C895,1305.1699 865,1305.1699 865,1295.1699 L865,1267.102 " fill="#F1F1F1" style="stroke:#181818;stroke-width:0.5;"/><path d="M865,1267.102 C865,1277.102 895,1277.102 895,1277.102 C895,1277.102 925,1277.102 925,1267.102 " fill="none" style="stroke:#181818;stroke-width:0.5;"/><text fill="#000000" font-family="sans-serif" font-size="14" lengthAdjust="spacing" textLength="40" x="875" y="1296.0679">DBMS</text></g><!--MD5=[c4def0b39757ced8a2cbaa90cdcbeb42]
entity listener--><g id="elem_listener"><rect fill="#F1F1F1" height="49.0679" rx="2.5" ry="2.5" style="stroke:#181818;stroke-width:0.5;" width="91" x="397.5" y="1446.602"/><rect fill="#F1F1F1" height="10" style="stroke:#181818;stroke-width:0.5;" width="15" x="468.5" y="1451.602"/><rect fill="#F1F1F1" height="2" style="stroke:#181818;stroke-width:0.5;" width="4" x="466.5" y="1453.602"/><rect fill="#F1F1F1" height="2" style="stroke:#181818;stroke-width:0.5;" width="4" x="466.5" y="1457.602"/><text fill="#000000" font-family="sans-serif" font-size="14" lengthAdjust="spacing" textLength="51" x="412.5" y="1481.5679">listener</text></g><!--MD5=[c7eaa259f629adf45d08fd48002f0087]
entity comunicationHandler--><g id="elem_comunicationHandler"><rect fill="#F1F1F1" height="49.0679" rx="2.5" ry="2.5" style="stroke:#181818;stroke-width:0.5;" width="185" x="374.5" y="1256.602"/><rect fill="#F1F1F1" height="10" style="stroke:#181818;stroke-width:0.5;" width="15" x="539.5" y="1261.602"/><rect fill="#F1F1F1" height="2" style="stroke:#181818;stroke-width:0.5;" width="4" x="537.5" y="1263.602"/><rect fill="#F1F1F1" height="2" style="stroke:#181818;stroke-width:0.5;" width="4" x="537.5" y="1267.602"/><text fill="#000000" font-family="sans-serif" font-size="14" lengthAdjust="spacing" textLength="145" x="389.5" y="1291.5679">comunicationHandler</text></g><!--MD5=[f5ed12b8e2cf99c109ba387c4b2eff1a]
entity securityHandler--><g id="elem_securityHandler"><rect fill="#F1F1F1" height="49.0679" rx="2.5" ry="2.5" style="stroke:#181818;stroke-width:0.5;" width="147" x="395.5" y="1042.602"/><rect fill="#F1F1F1" height="10" style="stroke:#181818;stroke-width:0.5;" width="15" x="522.5" y="1047.602"/><rect fill="#F1F1F1" height="2" style="stroke:#181818;stroke-width:0.5;" width="4" x="520.5" y="1049.602"/><rect fill="#F1F1F1" height="2" style="stroke:#181818;stroke-width:0.5;" width="4" x="520.5" y="1053.602"/><text fill="#000000" font-family="sans-serif" font-size="14" lengthAdjust="spacing" textLength="107" x="410.5" y="1077.5679">securityHandler</text></g><!--MD5=[f7ceb99a098b325b58310e1ad4a8114e]
entity currentLoggedInUsers--><g id="elem_currentLoggedInUsers"><rect fill="#F1F1F1" height="49.0679" rx="2.5" ry="2.5" style="stroke:#181818;stroke-width:0.5;" width="192" x="374" y="852.602"/><rect fill="#F1F1F1" height="10" style="stroke:#181818;stroke-width:0.5;" width="15" x="546" y="857.602"/><rect fill="#F1F1F1" height="2" style="stroke:#181818;stroke-width:0.5;" width="4" x="544" y="859.602"/><rect fill="#F1F1F1" height="2" style="stroke:#181818;stroke-width:0.5;" width="4" x="544" y="863.602"/><text fill="#000000" font-family="sans-serif" font-size="14" lengthAdjust="spacing" textLength="152" x="389" y="887.5679">currentLoggedInUsers</text></g><!--MD5=[2b5b80f7068c6a16f141d16022e08ad4]
entity dispatcher--><g id="elem_dispatcher"><rect fill="#F1F1F1" height="49.0679" rx="2.5" ry="2.5" style="stroke:#181818;stroke-width:0.5;" width="112" x="391" y="662.602"/><rect fill="#F1F1F1" height="10" style="stroke:#181818;stroke-width:0.5;" width="15" x="483" y="667.602"/><rect fill="#F1F1F1" height="2" style="stroke:#181818;stroke-width:0.5;" width="4" x="481" y="669.602"/><rect fill="#F1F1F1" height="2" style="stroke:#181818;stroke-width:0.5;" width="4" x="481" y="673.602"/><text fill="#000000" font-family="sans-serif" font-size="14" lengthAdjust="spacing" textLength="72" x="406" y="697.5679">dispatcher</text></g><!--MD5=[979a42310f3ad0bf16a93a1876c5c1e1]
entity UserDataProvider--><g id="elem_UserDataProvider"><ellipse cx="547" cy="687.102" fill="#F1F1F1" rx="8" ry="8" style="stroke:#181818;stroke-width:0.5;"/><text fill="#000000" font-family="sans-serif" font-size="14" lengthAdjust="spacing" textLength="118" x="488" y="719.0679">UserDataProvider</text></g><!--MD5=[ab0fcf931d3c52b42c8747ba9ac8b4ff]
entity Send--><g id="elem_Send"><ellipse cx="697" cy="1067.102" fill="#F1F1F1" rx="8" ry="8" style="stroke:#181818;stroke-width:0.5;"/><text fill="#000000" font-family="sans-serif" font-size="14" lengthAdjust="spacing" textLength="34" x="680" y="1099.0679">Send</text></g><!--MD5=[5e1169b299c9dddeca46f1097b4fb1d5]
entity emailHandler--><g id="elem_emailHandler"><rect fill="#F1F1F1" height="49.0679" rx="2.5" ry="2.5" style="stroke:#181818;stroke-width:0.5;" width="131" x="968.5" y="1042.602"/><rect fill="#F1F1F1" height="10" style="stroke:#181818;stroke-width:0.5;" width="15" x="1079.5" y="1047.602"/><rect fill="#F1F1F1" height="2" style="stroke:#181818;stroke-width:0.5;" width="4" x="1077.5" y="1049.602"/><rect fill="#F1F1F1" height="2" style="stroke:#181818;stroke-width:0.5;" width="4" x="1077.5" y="1053.602"/><text fill="#000000" font-family="sans-serif" font-size="14" lengthAdjust="spacing" textLength="91" x="983.5" y="1077.5679">emailHandler</text></g><!--MD5=[0bbede620a42151dbf814ec4eeb344e3]
entity RMPHandler--><g id="elem_RMPHandler"><rect fill="#F1F1F1" height="49.0679" rx="2.5" ry="2.5" style="stroke:#181818;stroke-width:0.5;" width="124" x="886" y="280.602"/><rect fill="#F1F1F1" height="10" style="stroke:#181818;stroke-width:0.5;" width="15" x="990" y="285.602"/><rect fill="#F1F1F1" height="2" style="stroke:#181818;stroke-width:0.5;" width="4" x="988" y="287.602"/><rect fill="#F1F1F1" height="2" style="stroke:#181818;stroke-width:0.5;" width="4" x="988" y="291.602"/><text fill="#000000" font-family="sans-serif" font-size="14" lengthAdjust="spacing" textLength="84" x="901" y="315.5679">RMPHandler</text></g><!--MD5=[e009dc6ab0fe2435833ae75b5476b103]
entity Pull--><g id="elem_Pull"><ellipse cx="1091" cy="305.102" fill="#F1F1F1" rx="8" ry="8" style="stroke:#181818;stroke-width:0.5;"/><text fill="#000000" font-family="sans-serif" font-size="14" lengthAdjust="spacing" textLength="25" x="1078.5" y="337.0679">Pull</text></g><!--MD5=[95ac4d38099c407fdd92b9ba88b694a3]
entity searchManager--><g id="elem_searchManager"><rect fill="#F1F1F1" height="49.0679" rx="2.5" ry="2.5" style="stroke:#181818;stroke-width:0.5;" width="146" x="569" y="90.602"/><rect fill="#F1F1F1" height="10" style="stroke:#181818;stroke-width:0.5;" width="15" x="695" y="95.602"/><rect fill="#F1F1F1" height="2" style="stroke:#181818;stroke-width:0.5;" width="4" x="693" y="97.602"/><rect fill="#F1F1F1" height="2" style="stroke:#181818;stroke-width:0.5;" width="4" x="693" y="101.602"/><text fill="#000000" font-family="sans-serif" font-size="14" lengthAdjust="spacing" textLength="106" x="584" y="125.5679">searchManager</text></g><!--MD5=[0cbe11500503445f954020e7f18c421d]
entity battleManager--><g id="elem_battleManager"><rect fill="#F1F1F1" height="49.0679" rx="2.5" ry="2.5" style="stroke:#181818;stroke-width:0.5;" width="140" x="553" y="280.602"/><rect fill="#F1F1F1" height="10" style="stroke:#181818;stroke-width:0.5;" width="15" x="673" y="285.602"/><rect fill="#F1F1F1" height="2" style="stroke:#181818;stroke-width:0.5;" width="4" x="671" y="287.602"/><rect fill="#F1F1F1" height="2" style="stroke:#181818;stroke-width:0.5;" width="4" x="671" y="291.602"/><text fill="#000000" font-family="sans-serif" font-size="14" lengthAdjust="spacing" textLength="100" x="568" y="315.5679">battleManager</text></g><!--MD5=[1f5ef2bd894ff77f84d30bd0ed008979]
entity teamManager--><g id="elem_teamManager"><rect fill="#F1F1F1" height="49.0679" rx="2.5" ry="2.5" style="stroke:#181818;stroke-width:0.5;" width="135" x="398.5" y="90.602"/><rect fill="#F1F1F1" height="10" style="stroke:#181818;stroke-width:0.5;" width="15" x="513.5" y="95.602"/><rect fill="#F1F1F1" height="2" style="stroke:#181818;stroke-width:0.5;" width="4" x="511.5" y="97.602"/><rect fill="#F1F1F1" height="2" style="stroke:#181818;stroke-width:0.5;" width="4" x="511.5" y="101.602"/><text fill="#000000" font-family="sans-serif" font-size="14" lengthAdjust="spacing" textLength="95" x="413.5" y="125.5679">teamManager</text></g><!--MD5=[169a760a35efe4c28cc786bed5490fe8]
entity tournamentManager--><g id="elem_tournamentManager"><rect fill="#F1F1F1" height="49.0679" rx="2.5" ry="2.5" style="stroke:#181818;stroke-width:0.5;" width="181" x="575.5" y="470.602"/><rect fill="#F1F1F1" height="10" style="stroke:#181818;stroke-width:0.5;" width="15" x="736.5" y="475.602"/><rect fill="#F1F1F1" height="2" style="stroke:#181818;stroke-width:0.5;" width="4" x="734.5" y="477.602"/><rect fill="#F1F1F1" height="2" style="stroke:#181818;stroke-width:0.5;" width="4" x="734.5" y="481.602"/><text fill="#000000" font-family="sans-serif" font-size="14" lengthAdjust="spacing" textLength="141" x="590.5" y="505.5679">tournamentManager</text></g><!--MD5=[e193c137b31ea9d08200df55bf25d944]
entity evaluator--><g id="elem_evaluator"><rect fill="#F1F1F1" height="49.0679" rx="2.5" ry="2.5" style="stroke:#181818;stroke-width:0.5;" width="103" x="750.5" y="90.602"/><rect fill="#F1F1F1" height="10" style="stroke:#181818;stroke-width:0.5;" width="15" x="833.5" y="95.602"/><rect fill="#F1F1F1" height="2" style="stroke:#181818;stroke-width:0.5;" width="4" x="831.5" y="97.602"/><rect fill="#F1F1F1" height="2" style="stroke:#181818;stroke-width:0.5;" width="4" x="831.5" y="101.602"/><text fill="#000000" font-family="sans-serif" font-size="14" lengthAdjust="spacing" textLength="63" x="765.5" y="125.5679">evaluator</text></g><!--MD5=[9f9e5af5ebacdb5d3a9c415356c76a5b]
link Browser to DataAccess--><g id="link_Browser_DataAccess"><path d="M273.1,1302.222 C279.07,1340.902 291.99,1424.682 296.98,1457.012 " fill="none" id="Browser-to-DataAccess" style="stroke:#181818;stroke-width:1.0;"/><polygon fill="#181818" points="297.76,1462.082,300.3243,1452.5728,296.989,1457.1418,292.42,1453.8064,297.76,1462.082" style="stroke:#181818;stroke-width:1.0;"/></g><!--MD5=[960a0c3b944ed1766457d0d3292534df]
link clientFunctions to Browser--><g id="link_clientFunctions_Browser"><path d="M164.23,1281.102 C181.64,1281.102 199.98,1281.102 216.41,1281.102 " fill="none" id="clientFunctions-to-Browser" style="stroke:#181818;stroke-width:1.0;"/><polygon fill="#181818" points="221.44,1281.102,212.44,1277.102,216.44,1281.102,212.44,1285.102,221.44,1281.102" style="stroke:#181818;stroke-width:1.0;"/><text fill="#000000" font-family="sans-serif" font-size="13" lengthAdjust="spacing" textLength="21" x="182.25" y="1273.999">use</text></g><!--MD5=[5e9b79f988e0d1d6821e01205c617be5]
link listener to DataAccess--><g id="link_listener_DataAccess"><path d="M397.48,1471.102 C367.75,1471.102 338.01,1471.102 308.28,1471.102 " fill="none" id="listener-DataAccess" style="stroke:#181818;stroke-width:1.0;"/></g><!--MD5=[02c167ce08644df0f85970d631d1d7d2]
link comunicationHandler to listener--><g id="link_comunicationHandler_listener"><path d="M463.96,1305.912 C459.56,1340.382 451.43,1404.102 446.69,1441.212 " fill="none" id="comunicationHandler-to-listener" style="stroke:#181818;stroke-width:1.0;"/><polygon fill="#181818" points="446.01,1446.482,451.1104,1438.0567,446.639,1441.5217,443.1739,1437.0503,446.01,1446.482" style="stroke:#181818;stroke-width:1.0;"/><text fill="#000000" font-family="sans-serif" font-size="13" lengthAdjust="spacing" textLength="21" x="457" y="1381.499">use</text></g><!--MD5=[86b2e9b052f438d3ac2ae974c4bb9400]
link securityHandler to comunicationHandler--><g id="link_securityHandler_comunicationHandler"><path d="M468.77,1092.012 C468.41,1131.162 467.67,1208.802 467.27,1251.062 " fill="none" id="securityHandler-to-comunicationHandler" style="stroke:#181818;stroke-width:1.0;"/><polygon fill="#181818" points="467.22,1256.282,471.3226,1247.3283,467.2771,1251.2823,463.3231,1247.2369,467.22,1256.282" style="stroke:#181818;stroke-width:1.0;"/><text fill="#000000" font-family="sans-serif" font-size="13" lengthAdjust="spacing" textLength="21" x="469" y="1167.499">use</text></g><!--MD5=[ed009a98f6bc6a0dd9adb6667f76cc8d]
link currentLoggedInUsers to securityHandler--><g id="link_currentLoggedInUsers_securityHandler"><path d="M469.87,901.912 C469.69,936.382 469.35,1000.102 469.15,1037.212 " fill="none" id="currentLoggedInUsers-to-securityHandler" style="stroke:#181818;stroke-width:1.0;"/><polygon fill="#181818" points="469.13,1042.482,473.1814,1033.505,469.1586,1037.4821,465.1815,1033.4593,469.13,1042.482" style="stroke:#181818;stroke-width:1.0;"/><text fill="#000000" font-family="sans-serif" font-size="13" lengthAdjust="spacing" textLength="21" x="470" y="977.499">use</text></g><!--MD5=[493e2732b70c3fc71bf8879c2f72300e]
link dispatcher to currentLoggedInUsers--><g id="link_dispatcher_currentLoggedInUsers"><path d="M449.91,711.912 C454.13,746.382 461.93,810.102 466.47,847.212 " fill="none" id="dispatcher-to-currentLoggedInUsers" style="stroke:#181818;stroke-width:1.0;"/><polygon fill="#181818" points="467.11,852.482,469.9996,843.0665,466.5092,847.5182,462.0575,844.0278,467.11,852.482" style="stroke:#181818;stroke-width:1.0;"/><text fill="#000000" font-family="sans-serif" font-size="13" lengthAdjust="spacing" textLength="21" x="460" y="787.499">use</text></g><!--MD5=[cb8b393c22182a2b93c6c59e26371231]
link UserDataProvider to dispatcher--><g id="link_UserDataProvider_dispatcher"><path d="M537.77,687.102 C526.26,687.102 514.76,687.102 503.25,687.102 " fill="none" id="UserDataProvider-dispatcher" style="stroke:#181818;stroke-width:1.0;"/></g><!--MD5=[40913b8ba06ae3b85cbae74265c875d6]
link Send to emailHandler--><g id="link_Send_emailHandler"><path d="M706.21,1067.102 C793.6,1067.102 880.99,1067.102 968.38,1067.102 " fill="none" id="Send-emailHandler" style="stroke:#181818;stroke-width:1.0;"/></g><!--MD5=[6c593bbd8f03452f6a10e66d5e16aa4f]
link currentLoggedInUsers to Send--><g id="link_currentLoggedInUsers_Send"><path d="M498.75,901.912 C548.27,942.932 647.82,1025.372 683.71,1055.102 " fill="none" id="currentLoggedInUsers-to-Send" style="stroke:#181818;stroke-width:1.0;"/><polygon fill="#181818" points="687.77,1058.452,683.3941,1049.6286,683.9207,1055.2609,678.2884,1055.7875,687.77,1058.452" style="stroke:#181818;stroke-width:1.0;"/><text fill="#000000" font-family="sans-serif" font-size="13" lengthAdjust="spacing" textLength="21" x="595" y="977.499">use</text></g><!--MD5=[6177bd3d5551ce0fe74dd4aac84e8d39]
link emailHandler to DBMS--><g id="link_emailHandler_DBMS"><path d="M1018.33,1092.012 C992.36,1131.612 940.58,1210.592 913.1,1252.502 " fill="none" id="emailHandler-to-DBMS" style="stroke:#181818;stroke-width:1.0;"/><polygon fill="#181818" points="910.19,1256.932,918.4685,1251.5966,912.9305,1252.7499,911.7772,1247.2119,910.19,1256.932" style="stroke:#181818;stroke-width:1.0;"/><text fill="#000000" font-family="sans-serif" font-size="13" lengthAdjust="spacing" textLength="21" x="979" y="1167.499">use</text></g><!--MD5=[6b6bcc494f9256e4ce424fdf3e9b66bd]
link RMPHandler to Pull--><g id="link_RMPHandler_Pull"><path d="M1010,305.102 C1033.94,305.102 1057.88,305.102 1081.82,305.102 " fill="none" id="RMPHandler-Pull" style="stroke:#181818;stroke-width:1.0;"/></g><!--MD5=[fa3ce7fd8a3ebcb96c0d17ba0cd18d5c]
link RMPHandler to DBMS--><g id="link_RMPHandler_DBMS"><path d="M940.38,329.912 C935.1,348.542 929,375.202 929,399.102 C929,399.102 929,399.102 929,742.602 C929,937.942 906.36,1172.412 898.03,1252.062 " fill="none" id="RMPHandler-to-DBMS" style="stroke:#181818;stroke-width:1.0;"/><polygon fill="#181818" points="897.5,1257.082,902.4049,1248.5414,898.0145,1252.1085,894.4473,1247.7182,897.5,1257.082" style="stroke:#181818;stroke-width:1.0;"/><text fill="#000000" font-family="sans-serif" font-size="13" lengthAdjust="spacing" textLength="21" x="929" y="787.499">use</text></g><!--MD5=[5976e96eaa65c966b5fc3248df992142]
link searchManager to UserDataProvider--><g id="link_searchManager_UserDataProvider"><path d="M620.35,139.772 C594.43,169.872 552.45,224.702 536,280.602 C524.74,318.882 542.04,607.172 546.15,672.822 " fill="none" id="searchManager-to-UserDataProvider" style="stroke:#181818;stroke-width:1.0;"/><polygon fill="#181818" points="546.47,677.822,549.8959,668.5882,546.1554,672.8319,541.9117,669.0915,546.47,677.822" style="stroke:#181818;stroke-width:1.0;"/><text fill="#000000" font-family="sans-serif" font-size="13" lengthAdjust="spacing" textLength="21" x="534" y="405.499">use</text></g><!--MD5=[0b8719e265236a1d9fc00a5e3b53cf95]
link battleManager to UserDataProvider--><g id="link_battleManager_UserDataProvider"><path d="M693.21,324.022 C752.22,341.202 827,368.932 827,399.102 C827,399.102 827,399.102 827,552.602 C827,671.552 618.56,684.622 561.37,685.972 " fill="none" id="battleManager-to-UserDataProvider" style="stroke:#181818;stroke-width:1.0;"/><polygon fill="#181818" points="556.32,686.062,565.3982,689.8812,561.319,685.962,565.2382,681.8828,556.32,686.062" style="stroke:#181818;stroke-width:1.0;"/><text fill="#000000" font-family="sans-serif" font-size="13" lengthAdjust="spacing" textLength="21" x="828" y="500.499">use</text></g><!--MD5=[7f6629cd3aca3631d5f0fd0e5e5b5ee9]
link teamManager to UserDataProvider--><g id="link_teamManager_UserDataProvider"><path d="M470.49,139.942 C480.14,193.372 502,326.862 502,439.602 C502,439.602 502,439.602 502,593.102 C502,624.852 523.51,657.152 536.79,674.072 " fill="none" id="teamManager-to-UserDataProvider" style="stroke:#181818;stroke-width:1.0;"/><polygon fill="#181818" points="539.97,678.032,537.4585,668.5087,536.8413,674.1318,531.2182,673.5147,539.97,678.032" style="stroke:#181818;stroke-width:1.0;"/><text fill="#000000" font-family="sans-serif" font-size="13" lengthAdjust="spacing" textLength="21" x="502" y="405.499">use</text></g><!--MD5=[7f6629cd3aca3631d5f0fd0e5e5b5ee9]
link teamManager to UserDataProvider--><g id="link_teamManager_UserDataProvider"><path d="M441.5,139.752 C426.05,157.262 409,182.592 409,209.102 C409,209.102 409,209.102 409,593.102 C409,651.682 474.19,627.372 521,662.602 C525.76,666.192 530.69,670.472 534.96,674.392 " fill="none" id="teamManager-to-UserDataProvider-1" style="stroke:#181818;stroke-width:1.0;"/><polygon fill="#181818" points="538.67,677.862,534.8387,668.7889,535.0219,674.4428,529.368,674.6259,538.67,677.862" style="stroke:#181818;stroke-width:1.0;"/><text fill="#000000" font-family="sans-serif" font-size="13" lengthAdjust="spacing" textLength="21" x="410" y="405.499">use</text></g><!--MD5=[b137fe64210f764279923f26eff44993]
link tournamentManager to UserDataProvider--><g id="link_tournamentManager_UserDataProvider"><path d="M651.17,519.782 C625.74,560.382 574.65,641.952 554.98,673.362 " fill="none" id="tournamentManager-to-UserDataProvider" style="stroke:#181818;stroke-width:1.0;"/><polygon fill="#181818" points="552.1,677.962,560.267,672.4574,554.7538,673.7244,553.4868,668.2113,552.1,677.962" style="stroke:#181818;stroke-width:1.0;"/><text fill="#000000" font-family="sans-serif" font-size="13" lengthAdjust="spacing" textLength="21" x="612" y="597.499">use</text></g><!--MD5=[bbcd2466fe4f2d2b843057f092089b43]
link evaluator to Pull--><g id="link_evaluator_Pull"><path d="M853.68,120.692 C919.04,127.542 1026.54,142.612 1055,169.602 C1089.39,202.212 1092.22,263.762 1091.66,290.792 " fill="none" id="evaluator-to-Pull" style="stroke:#181818;stroke-width:1.0;"/><polygon fill="#181818" points="1091.5,296.022,1095.7807,287.1521,1091.6571,291.0244,1087.7847,286.9008,1091.5,296.022" style="stroke:#181818;stroke-width:1.0;"/></g><!--MD5=[0176cc026b59044a824ddd1601f72360]
link searchManager to DBMS--><g id="link_searchManager_DBMS"><path d="M691.23,139.692 C716.89,154.152 747,174.842 767,200.602 C938.03,420.962 858,542.652 858,821.602 C858,821.602 858,821.602 858,1163.102 C858,1194.722 870.44,1229.012 880.89,1252.242 " fill="none" id="searchManager-to-DBMS" style="stroke:#181818;stroke-width:1.0;"/><polygon fill="#181818" points="883.09,1257.032,882.97,1247.1839,881.0038,1252.488,875.6996,1250.5218,883.09,1257.032" style="stroke:#181818;stroke-width:1.0;"/><text fill="#000000" font-family="sans-serif" font-size="13" lengthAdjust="spacing" textLength="21" x="866" y="692.499">use</text></g><!--MD5=[3323bbe1925af741db849bf2c16fe7dd]
link tournamentManager to DBMS--><g id="link_tournamentManager_DBMS"><path d="M695.22,519.762 C732.45,552.762 792,616.442 792,686.102 C792,686.102 792,686.102 792,1163.102 C792,1205.532 830.64,1239.872 860.58,1260.122 " fill="none" id="tournamentManager-to-DBMS" style="stroke:#181818;stroke-width:1.0;"/><polygon fill="#181818" points="864.93,1263.012,859.6274,1254.7124,860.7588,1260.255,855.2162,1261.3864,864.93,1263.012" style="stroke:#181818;stroke-width:1.0;"/><text fill="#000000" font-family="sans-serif" font-size="13" lengthAdjust="spacing" textLength="21" x="793" y="882.499">use</text></g><!--MD5=[0b370630384341378cce810ad427493a]
link evaluator to DBMS--><g id="link_evaluator_DBMS"><path d="M853.6,136.632 C908.29,161.532 991.68,209.242 1028,280.602 C1215.34,648.672 983.51,795.832 912,1202.602 C909.13,1218.912 905.21,1237.002 901.85,1251.592 " fill="none" id="evaluator-to-DBMS" style="stroke:#181818;stroke-width:1.0;"/><polygon fill="#181818" points="900.65,1256.802,906.578,1248.937,901.7785,1251.931,898.7845,1247.1314,900.65,1256.802" style="stroke:#181818;stroke-width:1.0;"/><text fill="#000000" font-family="sans-serif" font-size="13" lengthAdjust="spacing" textLength="49" x="1086" y="692.499">updates</text></g><!--MD5=[bdc180602d0e3e00e93fdd98cd9f6bff]
link evaluator to tournamentManager--><g id="link_evaluator_tournamentManager"><path d="M787.27,139.622 C782.12,148.712 776.7,159.372 773,169.602 C765.29,190.912 771.71,198.682 763,219.602 C750.44,249.762 731.65,249.392 722,280.602 C705.07,335.382 737.53,354.702 721,409.602 C714.77,430.282 701.77,450.662 689.97,466.222 " fill="none" id="evaluator-to-tournamentManager" style="stroke:#181818;stroke-width:1.0;"/><polygon fill="#181818" points="686.68,470.482,695.3477,465.8053,689.7368,466.5252,689.0169,460.9144,686.68,470.482" style="stroke:#181818;stroke-width:1.0;"/><text fill="#000000" font-family="sans-serif" font-size="13" lengthAdjust="spacing" textLength="49" x="723" y="310.499">updates</text></g><!--MD5=[b88147c8e7bc9d32276af049a08bc227]
link evaluator to battleManager--><g id="link_evaluator_battleManager"><path d="M773.42,139.822 C754.24,156.202 728.78,178.872 708,200.602 C684.8,224.862 660.73,254.682 644.16,276.062 " fill="none" id="evaluator-to-battleManager" style="stroke:#181818;stroke-width:1.0;"/><polygon fill="#181818" points="640.94,280.232,649.6077,275.5553,643.9968,276.2752,643.2769,270.6644,640.94,280.232" style="stroke:#181818;stroke-width:1.0;"/><text fill="#000000" font-family="sans-serif" font-size="13" lengthAdjust="spacing" textLength="49" x="709" y="215.499">updates</text></g><!--MD5=[99f9552f915f969b1a8f1d08318a757c]
link battleManager to tournamentManager--><g id="link_battleManager_tournamentManager"><path d="M659.17,329.682 C668.72,337.902 677.81,348.012 683,359.602 C698.29,393.712 688.06,437.262 678.1,465.412 " fill="none" id="battleManager-to-tournamentManager" style="stroke:#181818;stroke-width:1.0;"/><polygon fill="#181818" points="676.38,470.142,683.2218,463.0575,678.0933,465.4447,675.7061,460.3162,676.38,470.142" style="stroke:#181818;stroke-width:1.0;"/><text fill="#000000" font-family="sans-serif" font-size="13" lengthAdjust="spacing" textLength="21" x="691" y="405.499">use</text></g><!--MD5=[4c5d79788defc57667e4733b90289044]
link teamManager to battleManager--><g id="link_teamManager_battleManager"><path d="M533.76,135.542 C551.85,143.562 569.96,154.602 583,169.602 C608.98,199.502 618.1,245.672 621.29,275.392 " fill="none" id="teamManager-to-battleManager" style="stroke:#181818;stroke-width:1.0;"/><polygon fill="#181818" points="621.78,280.382,624.8859,271.0357,621.2938,275.4057,616.9238,271.8136,621.78,280.382" style="stroke:#181818;stroke-width:1.0;"/><text fill="#000000" font-family="sans-serif" font-size="13" lengthAdjust="spacing" textLength="21" x="610" y="215.499">use</text></g><!--MD5=[fc6436cbc81d536496983b9893d5b9fb]
@startuml
package "CKBWebApp"{
    package "Browser"
    Browser - - -> DataAccess
    [clientFunctions] -> Browser: use
    component clientFunctions
}

package "CKBServer"{
    database "DBMS"
    [listener] - DataAccess
    [comunicationHandler] - - -> listener: use
    [securityHandler] - - -> comunicationHandler: use
    [currentLoggedInUsers] - - -> securityHandler: use
    [dispatcher] - - -> currentLoggedInUsers: use
    UserDataProvider - [dispatcher]
    Send - [emailHandler]
    [currentLoggedInUsers] - - -> Send: use
    [emailHandler] - - -> DBMS: use
    [RMPHandler] - Pull
    [RMPHandler] - - -> DBMS: use
    
    component dispatcher
    component currentLoggedInUsers
    component securityHandler
    component comunicationHandler
    component emailHandler
    component listener
    component RMPHandler

    package "Model"{
        
        [searchManager] - - -> UserDataProvider: use
        [battleManager] - - -> UserDataProvider: use
        [teamManager] - - -> UserDataProvider: use
        [tournamentManager] - - -> UserDataProvider: use
        [evaluator] - - -> Pull
        
        [searchManager] - - -> DBMS: use
        [teamManager] - - -> UserDataProvider: use
        [tournamentManager] - - -> DBMS: use
        [evaluator] - - -> DBMS: updates
        [evaluator] - - -> tournamentManager: updates
        [evaluator] - - -> battleManager: updates

        [battleManager] - - -> tournamentManager: use

        [teamManager] - - -> battleManager: use
        component teamManager
        component battleManager
        component tournamentManager
        component searchManager
        component evaluator
    }
}

@end

PlantUML version 1.2022.7(Mon Aug 22 19:01:30 CEST 2022)
(GPL source distribution)
Java Runtime: Java(TM) SE Runtime Environment
JVM: Java HotSpot(TM) 64-Bit Server VM
Default Encoding: UTF-8
Language: en
Country: US
--></g></svg>