<?xml version="1.0" encoding="UTF-8" standalone="no"?><svg xmlns="http://www.w3.org/2000/svg" xmlns:xlink="http://www.w3.org/1999/xlink" contentStyleType="text/css" height="2801.312px" preserveAspectRatio="none" style="width:2647px;height:2801px;background:#FFFFFF;" version="1.1" viewBox="0 0 2647 2801" width="2647.3681px" zoomAndPan="magnify"><defs/><g><path d="M45.4834,16.3274 L2586.7236,16.3274 A29.156,29.156 0 0 1 2615.8796,45.4834 L2615.8796,80.7258 L16.3274,80.7258 L16.3274,45.4834 A29.156,29.156 0 0 1 45.4834,16.3274 " fill="#F1F1F1" style="stroke:#F1F1F1;stroke-width:2.3324829489248713;"/><rect fill="none" height="2772.0102" rx="29.156" ry="29.156" style="stroke:#181818;stroke-width:1.1662414744624356;" width="2599.5522" x="16.3274" y="16.3274"/><line style="stroke:#181818;stroke-width:1.1662414744624356;" x1="16.3274" x2="2615.8796" y1="80.7258" y2="80.7258"/><text fill="#000000" font-family="sans-serif" font-size="32.6548" lengthAdjust="spacing" textLength="221.5859" x="1205.3106" y="61.8882">TOURNAMENT</text><ellipse cx="864.1849" cy="255.662" fill="#222222" rx="23.3248" ry="23.3248" style="stroke:none;stroke-width:2.3324829489248713;"/><g id="TOURNAMENT.CREATED"><rect fill="#F1F1F1" height="128.7968" rx="29.156" ry="29.156" style="stroke:#181818;stroke-width:1.1662414744624356;" width="202.926" x="1040.2874" y="191.5187"/><line style="stroke:#181818;stroke-width:1.1662414744624356;" x1="1040.2874" x2="1243.2134" y1="255.9171" y2="255.9171"/><text fill="#000000" font-family="sans-serif" font-size="32.6548" lengthAdjust="spacing" textLength="153.9439" x="1064.7785" y="237.0796">CREATED</text><text fill="#000000" font-family="sans-serif" font-size="32.6548" lengthAdjust="spacing" textLength="156.2764" x="1051.9498" y="301.478">- name set</text></g><g id="TOURNAMENT.DEFINED"><rect fill="#F1F1F1" height="293.0911" rx="29.156" ry="29.156" style="stroke:#181818;stroke-width:1.1662414744624356;" width="723.0697" x="1379.6637" y="108.7156"/><line style="stroke:#181818;stroke-width:1.1662414744624356;" x1="1379.6637" x2="2102.7334" y1="173.114" y2="173.114"/><text fill="#000000" font-family="sans-serif" font-size="32.6548" lengthAdjust="spacing" textLength="137.6165" x="1672.3903" y="154.2764">DEFINED</text><text fill="#000000" font-family="sans-serif" font-size="32.6548" lengthAdjust="spacing" textLength="440.8393" x="1391.3261" y="218.6748">- programming language/s set</text><text fill="#000000" font-family="sans-serif" font-size="32.6548" lengthAdjust="spacing" textLength="258.9056" x="1391.3261" y="259.7484">- outline available</text><text fill="#000000" font-family="sans-serif" font-size="32.6548" lengthAdjust="spacing" textLength="676.4201" x="1391.3261" y="300.822">- max and min number of student per team set</text><text fill="#000000" font-family="sans-serif" font-size="32.6548" lengthAdjust="spacing" textLength="195.9286" x="1391.3261" y="341.8955">- duration set</text><text fill="#000000" font-family="sans-serif" font-size="32.6548" lengthAdjust="spacing" textLength="436.1743" x="1391.3261" y="382.9691">- deadline for subscription set</text></g><g id="elem_c"><polygon fill="#F1F1F1" points="1741.1985,607.8669,1769.1883,635.8567,1741.1985,663.8465,1713.2087,635.8567,1741.1985,607.8669" style="stroke:#181818;stroke-width:1.1662414744624356;"/></g><g id="TOURNAMENT.EDUCATORADDED"><rect fill="#F1F1F1" height="128.7968" rx="29.156" ry="29.156" style="stroke:#181818;stroke-width:1.1662414744624356;" width="534.1386" x="538.8036" y="1146.6705"/><line style="stroke:#181818;stroke-width:1.1662414744624356;" x1="538.8036" x2="1072.9422" y1="1211.0689" y2="1211.0689"/><text fill="#000000" font-family="sans-serif" font-size="32.6548" lengthAdjust="spacing" textLength="291.5604" x="660.0927" y="1192.2313">EDUCATORADDED</text><text fill="#000000" font-family="sans-serif" font-size="32.6548" lengthAdjust="spacing" textLength="487.4889" x="550.466" y="1256.6297">- new educator in the tournament</text></g><g id="TOURNAMENT.BATTLECREATED"><rect fill="#F1F1F1" height="293.0911" rx="29.156" ry="29.156" style="stroke:#181818;stroke-width:1.1662414744624356;" width="760.3894" x="663.5914" y="488.9103"/><line style="stroke:#181818;stroke-width:1.1662414744624356;" x1="663.5914" x2="1423.9808" y1="553.3087" y2="553.3087"/><text fill="#000000" font-family="sans-serif" font-size="32.6548" lengthAdjust="spacing" textLength="277.5655" x="905.0034" y="534.4712">BATTLECREATED</text><text fill="#000000" font-family="sans-serif" font-size="32.6548" lengthAdjust="spacing" textLength="321.8826" x="675.2538" y="598.8696">- description available</text><text fill="#000000" font-family="sans-serif" font-size="32.6548" lengthAdjust="spacing" textLength="233.2483" x="675.2538" y="639.9431">- code available</text><text fill="#000000" font-family="sans-serif" font-size="32.6548" lengthAdjust="spacing" textLength="230.9158" x="675.2538" y="681.0167">- tests available</text><text fill="#000000" font-family="sans-serif" font-size="32.6548" lengthAdjust="spacing" textLength="604.1131" x="675.2538" y="722.0903">- automatic evaluation parameter defined</text><text fill="#000000" font-family="sans-serif" font-size="32.6548" lengthAdjust="spacing" textLength="713.7398" x="675.2538" y="763.1638">- [optional] manual evaluation parameter defined</text></g><g id="TOURNAMENT.BADGECREATED"><rect fill="#F1F1F1" height="169.8704" rx="29.156" ry="29.156" style="stroke:#181818;stroke-width:1.1662414744624356;" width="312.5527" x="1333.014" y="1125.6781"/><line style="stroke:#181818;stroke-width:1.1662414744624356;" x1="1333.014" x2="1645.5667" y1="1190.0765" y2="1190.0765"/><text fill="#000000" font-family="sans-serif" font-size="32.6548" lengthAdjust="spacing" textLength="265.9031" x="1356.3388" y="1171.239">BADGECREATED</text><text fill="#000000" font-family="sans-serif" font-size="32.6548" lengthAdjust="spacing" textLength="156.2764" x="1344.6764" y="1235.6374">- name set</text><text fill="#000000" font-family="sans-serif" font-size="32.6548" lengthAdjust="spacing" textLength="221.5859" x="1344.6764" y="1276.711">- rule/s defined</text></g><g id="TOURNAMENT.ONLINE"><rect fill="#F1F1F1" height="128.7968" rx="29.156" ry="29.156" style="stroke:#181818;stroke-width:1.1662414744624356;" width="748.727" x="431.5093" y="1421.9035"/><line style="stroke:#181818;stroke-width:1.1662414744624356;" x1="431.5093" x2="1180.2364" y1="1486.3019" y2="1486.3019"/><text fill="#000000" font-family="sans-serif" font-size="32.6548" lengthAdjust="spacing" textLength="114.2917" x="748.727" y="1467.4643">ONLINE</text><text fill="#000000" font-family="sans-serif" font-size="32.6548" lengthAdjust="spacing" textLength="702.0774" x="443.1718" y="1531.8627">- students subscribe to the tournament in teams</text></g><g id="TOURNAMENT.STARTED"><rect fill="#F1F1F1" height="169.8704" rx="29.156" ry="29.156" style="stroke:#181818;stroke-width:1.1662414744624356;" width="674.0876" x="468.8291" y="1676.1441"/><line style="stroke:#181818;stroke-width:1.1662414744624356;" x1="468.8291" x2="1142.9166" y1="1740.5425" y2="1740.5425"/><text fill="#000000" font-family="sans-serif" font-size="32.6548" lengthAdjust="spacing" textLength="151.6114" x="730.0672" y="1721.705">STARTED</text><text fill="#000000" font-family="sans-serif" font-size="32.6548" lengthAdjust="spacing" textLength="482.824" x="480.4915" y="1786.1034">- all the battles are now available</text><text fill="#000000" font-family="sans-serif" font-size="32.6548" lengthAdjust="spacing" textLength="627.4379" x="480.4915" y="1827.1769">- tournament score and rank now available</text></g><g id="TOURNAMENT.OFFLINE"><rect fill="#F1F1F1" height="210.9439" rx="29.156" ry="29.156" style="stroke:#181818;stroke-width:1.1662414744624356;" width="667.0901" x="1841.4953" y="2263.9298"/><line style="stroke:#181818;stroke-width:1.1662414744624356;" x1="1841.4953" x2="2508.5854" y1="2328.3282" y2="2328.3282"/><text fill="#000000" font-family="sans-serif" font-size="32.6548" lengthAdjust="spacing" textLength="135.284" x="2107.3983" y="2309.4907">OFFLINE</text><text fill="#000000" font-family="sans-serif" font-size="32.6548" lengthAdjust="spacing" textLength="580.7883" x="1853.1577" y="2373.8891">- it is no more possible complete battles</text><text fill="#000000" font-family="sans-serif" font-size="32.6548" lengthAdjust="spacing" textLength="620.4405" x="1853.1577" y="2414.9626">- tournament score and rank are ultimated</text><text fill="#000000" font-family="sans-serif" font-size="32.6548" lengthAdjust="spacing" textLength="531.8061" x="1853.1577" y="2456.0362">- badges are assigned automatically</text></g><ellipse cx="2573.8949" cy="2368.8915" fill="none" rx="23.3248" ry="23.3248" style="stroke:#222222;stroke-width:2.3324829489248713;"/><ellipse cx="2575.0612" cy="2370.0578" fill="#222222" rx="13.9949" ry="13.9949" style="stroke:none;stroke-width:2.3324829489248713;"/><path d="M73.4732,1972.3694 L1537.1063,1972.3694 A29.156,29.156 0 0 1 1566.2623,2001.5255 L1566.2623,2036.7678 L44.3172,2036.7678 L44.3172,2001.5255 A29.156,29.156 0 0 1 73.4732,1972.3694 " fill="#F1F1F1" style="stroke:#F1F1F1;stroke-width:2.3324829489248713;"/><rect fill="none" height="792.6433" rx="29.156" ry="29.156" style="stroke:#181818;stroke-width:1.1662414744624356;" width="1521.9451" x="44.3172" y="1972.3694"/><line style="stroke:#181818;stroke-width:1.1662414744624356;" x1="44.3172" x2="1566.2623" y1="2036.7678" y2="2036.7678"/><text fill="#000000" font-family="sans-serif" font-size="32.6548" lengthAdjust="spacing" textLength="123.6216" x="743.4789" y="2017.9303">BATTLE</text><ellipse cx="383.6934" cy="2085.75" fill="#222222" rx="23.3248" ry="23.3248" style="stroke:none;stroke-width:2.3324829489248713;"/><g id="TOURNAMENT.BATTLE.ACCESSIBLE"><rect fill="#F1F1F1" height="252.0175" rx="29.156" ry="29.156" style="stroke:#181818;stroke-width:1.1662414744624356;" width="531.8061" x="117.7904" y="2235.0289"/><line style="stroke:#181818;stroke-width:1.1662414744624356;" x1="117.7904" x2="649.5965" y1="2299.4273" y2="2299.4273"/><text fill="#000000" font-family="sans-serif" font-size="32.6548" lengthAdjust="spacing" textLength="198.2611" x="284.5629" y="2280.5898">ACCESSIBLE</text><text fill="#000000" font-family="sans-serif" font-size="32.6548" lengthAdjust="spacing" textLength="485.1565" x="129.4528" y="2344.9882">- students do the fork of the repo</text><text fill="#000000" font-family="sans-serif" font-size="32.6548" lengthAdjust="spacing" textLength="333.5451" x="129.4528" y="2386.0617">- battle score available</text><text fill="#000000" font-family="sans-serif" font-size="32.6548" lengthAdjust="spacing" textLength="445.5042" x="129.4528" y="2427.1353">- completation status available</text><text fill="#000000" font-family="sans-serif" font-size="32.6548" lengthAdjust="spacing" textLength="452.5017" x="129.4528" y="2468.2089">- automatic evaluation enabled</text></g><g id="TOURNAMENT.BATTLE.MANUALEVALUATED"><rect fill="#F1F1F1" height="128.7968" rx="29.156" ry="29.156" style="stroke:#181818;stroke-width:1.1662414744624356;" width="622.7729" x="72.307" y="2612.8911"/><line style="stroke:#181818;stroke-width:1.1662414744624356;" x1="72.307" x2="695.0799" y1="2677.2895" y2="2677.2895"/><text fill="#000000" font-family="sans-serif" font-size="32.6548" lengthAdjust="spacing" textLength="317.2177" x="225.0846" y="2658.452">MANUALEVALUATED</text><text fill="#000000" font-family="sans-serif" font-size="32.6548" lengthAdjust="spacing" textLength="576.1233" x="83.9694" y="2722.8504">- an educator evaluate the code written</text></g><g id="TOURNAMENT.BATTLE.CLOSED"><rect fill="#F1F1F1" height="169.8704" rx="29.156" ry="29.156" style="stroke:#181818;stroke-width:1.1662414744624356;" width="620.4405" x="924.8295" y="2275.8473"/><line style="stroke:#181818;stroke-width:1.1662414744624356;" x1="924.8295" x2="1545.27" y1="2340.2457" y2="2340.2457"/><text fill="#000000" font-family="sans-serif" font-size="32.6548" lengthAdjust="spacing" textLength="132.9515" x="1168.574" y="2321.4082">CLOSED</text><text fill="#000000" font-family="sans-serif" font-size="32.6548" lengthAdjust="spacing" textLength="573.7908" x="936.4919" y="2385.8066">- it is no more possible modify the code</text><text fill="#000000" font-family="sans-serif" font-size="32.6548" lengthAdjust="spacing" textLength="424.5119" x="936.4919" y="2426.8802">- the battle score is ultimated</text></g><ellipse cx="1235.0497" cy="2677.0344" fill="none" rx="23.3248" ry="23.3248" style="stroke:#222222;stroke-width:2.3324829489248713;"/><ellipse cx="1236.216" cy="2678.2007" fill="#222222" rx="13.9949" ry="13.9949" style="stroke:none;stroke-width:2.3324829489248713;"/><!--MD5=[e82b03a28b4b0e8e2fdb7abbb302e1fd]
link *start*BATTLE to ACCESSIBLE--><g id="link_*start*BATTLE_ACCESSIBLE"><path d="M383.6934,2109.3081 C383.6934,2134.3589 383.6934,2178.2096 383.6934,2222.2002 " fill="none" id="*start*BATTLE-to-ACCESSIBLE" style="stroke:#181818;stroke-width:2.3324829489248713;"/><polygon fill="#181818" points="383.6934,2234.609,393.0234,2213.6167,383.6934,2222.9466,374.3635,2213.6167,383.6934,2234.609" style="stroke:#181818;stroke-width:2.3324829489248713;"/><text fill="#000000" font-family="sans-serif" font-size="30.3223" lengthAdjust="spacing" textLength="223.9184" x="386.0259" y="2184.8691">RMP repo online</text></g><!--MD5=[ecfc50a5231f07af166dcaafee0e191e]
link ACCESSIBLE to MANUALEVALUATED--><g id="link_ACCESSIBLE_MANUALEVALUATED"><path d="M165.6296,2487.8934 C146.7132,2513.3408 140.9519,2541.4239 159.7751,2570.9064 C168.0554,2583.8517 178.3883,2595.2109 190.074,2605.1706 " fill="none" id="ACCESSIBLE-to-MANUALEVALUATED" style="stroke:#181818;stroke-width:2.3324829489248713;"/><polygon fill="#181818" points="199.2407,2612.5179,188.6586,2592.1281,190.1274,2605.2406,177.0149,2606.7094,199.2407,2612.5179" style="stroke:#181818;stroke-width:2.3324829489248713;"/><text fill="#000000" font-family="sans-serif" font-size="30.3223" lengthAdjust="spacing" textLength="412.8495" x="162.1076" y="2562.7314">[optional] educator's evaluation</text></g><!--MD5=[3a93543e646454490b6c997ca1fc8895]
link MANUALEVALUATED to ACCESSIBLE--><g id="link_MANUALEVALUATED_ACCESSIBLE"><path d="M539.8998,2612.308 C554.6878,2600.6456 567.703,2586.9306 577.2895,2570.9064 C592.5673,2545.3658 589.8849,2520.3382 576.823,2496.9901 " fill="none" id="MANUALEVALUATED-to-ACCESSIBLE" style="stroke:#181818;stroke-width:2.3324829489248713;"/><polygon fill="#181818" points="570.642,2487.077,573.9113,2509.8155,576.847,2496.9517,589.7108,2499.8874,570.642,2487.077" style="stroke:#181818;stroke-width:2.3324829489248713;"/></g><!--MD5=[91757e9636e7cc7a3199143b5731570f]
link ACCESSIBLE to CLOSED--><g id="link_ACCESSIBLE_CLOSED"><path d="M650.7394,2360.983 C733.4726,2360.983 825.5357,2360.983 911.651,2360.983 " fill="none" id="ACCESSIBLE-to-CLOSED" style="stroke:#181818;stroke-width:2.3324829489248713;"/><polygon fill="#181818" points="924.3163,2360.983,903.324,2351.653,912.6539,2360.983,903.324,2370.3129,924.3163,2360.983" style="stroke:#181818;stroke-width:2.3324829489248713;"/><text fill="#000000" font-family="sans-serif" font-size="30.3223" lengthAdjust="spacing" textLength="228.5833" x="672.9213" y="2345.8104">deadline reached</text></g><!--MD5=[bd0ce960e416f66f0ecd46ced91913ca]
link CLOSED to *end*BATTLE--><g id="link_CLOSED_*end*BATTLE"><path d="M1235.0497,2446.7717 C1235.0497,2510.6584 1235.0497,2595.3975 1235.0497,2641.464 " fill="none" id="CLOSED-to-*end*BATTLE" style="stroke:#181818;stroke-width:2.3324829489248713;"/><polygon fill="#181818" points="1235.0497,2653.3597,1244.3797,2632.3674,1235.0497,2641.6973,1225.7198,2632.3674,1235.0497,2653.3597" style="stroke:#181818;stroke-width:2.3324829489248713;"/></g><!--MD5=[0202db916e16442f7cb592d8402a7977]
link *start*TOURNAMENT to CREATED--><g id="link_*start*TOURNAMENT_CREATED"><path d="M887.8596,255.662 C919.0449,255.662 976.0975,255.662 1028.2518,255.662 " fill="none" id="*start*TOURNAMENT-to-CREATED" style="stroke:#181818;stroke-width:2.3324829489248713;"/><polygon fill="#181818" points="1039.9608,255.662,1018.9685,246.3321,1028.2984,255.662,1018.9685,264.9919,1039.9608,255.662" style="stroke:#181818;stroke-width:2.3324829489248713;"/><text fill="#000000" font-family="sans-serif" font-size="30.3223" lengthAdjust="spacing" textLength="107.2942" x="910.2515" y="240.4895">creation</text></g><!--MD5=[d1fe89e512ffad75915bf07c628122b8]
link CREATED to DEFINED--><g id="link_CREATED_DEFINED"><path d="M1243.4467,255.662 C1279.157,255.662 1321.6781,255.662 1366.6018,255.662 " fill="none" id="CREATED-to-DEFINED" style="stroke:#181818;stroke-width:2.3324829489248713;"/><polygon fill="#181818" points="1379.3138,255.662,1358.3214,246.3321,1367.6514,255.662,1358.3214,264.9919,1379.3138,255.662" style="stroke:#181818;stroke-width:2.3324829489248713;"/><text fill="#000000" font-family="sans-serif" font-size="30.3223" lengthAdjust="spacing" textLength="90.9668" x="1265.9551" y="240.4895">setting</text></g><!--MD5=[c90b9c5de838bf994479fcca5438223a]
link DEFINED to c--><g id="link_DEFINED_c"><path d="M1741.1985,403.1915 C1741.1985,472.9794 1741.1985,551.071 1741.1985,596.0412 " fill="none" id="DEFINED-to-c" style="stroke:#181818;stroke-width:2.3324829489248713;"/><polygon fill="#181818" points="1741.1985,607.8203,1750.5285,586.8279,1741.1985,596.1579,1731.8686,586.8279,1741.1985,607.8203" style="stroke:#181818;stroke-width:2.3324829489248713;"/></g><!--MD5=[0d81bf5fe050032dfd578b2ccbb6b767]
link c to EDUCATORADDED--><g id="link_c_EDUCATORADDED"><path d="M1743.0878,662.6336 C1746.19,721.4122 1745.5136,871.9973 1666.5591,955.4069 C1586.2284,1040.2859 1304.3245,1112.6162 1084.7678,1157.9364 " fill="none" id="c-to-EDUCATORADDED" style="stroke:#181818;stroke-width:2.3324829489248713;"/><polygon fill="#181818" points="1073.0588,1160.3388,1095.5065,1165.2199,1084.4791,1157.9749,1091.7242,1146.9474,1073.0588,1160.3388" style="stroke:#181818;stroke-width:2.3324829489248713;"/><text fill="#000000" font-family="sans-serif" font-size="30.3223" lengthAdjust="spacing" textLength="214.5884" x="1699.2138" y="947.2318">adding educator</text></g><!--MD5=[d37a15eae56a556285fba94bff3b012a]
reverse link BATTLECREATED to c--><g id="link_BATTLECREATED_c"><path d="M1436.1797,635.8567 C1552.8738,635.8567 1662.9437,635.8567 1712.9988,635.8567 " fill="none" id="BATTLECREATED-backto-c" style="stroke:#181818;stroke-width:2.3324829489248713;"/><polygon fill="#181818" points="1424.1208,635.8567,1445.1131,645.1867,1435.7832,635.8567,1445.1131,626.5268,1424.1208,635.8567" style="stroke:#181818;stroke-width:2.3324829489248713;"/><text fill="#000000" font-family="sans-serif" font-size="30.3223" lengthAdjust="spacing" textLength="191.2636" x="1472.963" y="620.6842">creating battle</text></g><!--MD5=[f36c583a41ec79778bf9a31eba1fcd05]
link c to BADGECREATED--><g id="link_c_BADGECREATED"><path d="M1758.0624,648.009 C1820.5263,685.6786 2031.6626,825.3943 1962.7844,955.4069 C1902.0465,1070.0717 1767.3223,1134.8681 1657.0659,1170.1353 " fill="none" id="c-to-BADGECREATED" style="stroke:#181818;stroke-width:2.3324829489248713;"/><polygon fill="#181818" points="1645.8,1173.6573,1668.6169,1176.3244,1656.9351,1170.1901,1663.0694,1158.5082,1645.8,1173.6573" style="stroke:#181818;stroke-width:2.3324829489248713;"/><text fill="#000000" font-family="sans-serif" font-size="30.3223" lengthAdjust="spacing" textLength="193.5961" x="1976.7793" y="947.2318">defining badge</text></g><!--MD5=[c527fef433bc7a950d734fcbf16cb14e]
reverse link BATTLECREATED to EDUCATORADDED--><g id="link_BATTLECREATED_EDUCATORADDED"><path d="M997.6729,794.6055 C980.8791,846.4566 960.6331,904.0223 938.8244,955.4069 C910.2981,1022.5591 870.6926,1096.0323 842.143,1146.4372 " fill="none" id="BATTLECREATED-backto-EDUCATORADDED" style="stroke:#181818;stroke-width:2.3324829489248713;"/><polygon fill="#181818" points="1001.4049,782.9431,986.1004,800.0749,997.8372,794.0464,1003.8656,805.7832,1001.4049,782.9431" style="stroke:#181818;stroke-width:2.3324829489248713;"/><text fill="#000000" font-family="sans-serif" font-size="30.3223" lengthAdjust="spacing" textLength="191.2636" x="955.1518" y="947.2318">creating battle</text></g><!--MD5=[2cc3aec23693bf4f84bbb1392607c450]
link BATTLECREATED to EDUCATORADDED--><g id="link_BATTLECREATED_EDUCATORADDED"><path d="M811.9606,783.0364 C770.769,820.1695 733.6125,863.8569 710.2411,913.4222 C675.9536,986.1723 714.2296,1074.4801 752.0625,1135.4046 " fill="none" id="BATTLECREATED-to-EDUCATORADDED" style="stroke:#181818;stroke-width:2.3324829489248713;"/><polygon fill="#181818" points="758.6168,1145.7142,755.2028,1122.997,752.349,1135.8792,739.4668,1133.0253,758.6168,1145.7142" style="stroke:#181818;stroke-width:2.3324829489248713;"/><text fill="#000000" font-family="sans-serif" font-size="30.3223" lengthAdjust="spacing" textLength="214.5884" x="712.5735" y="947.2318">adding educator</text></g><!--MD5=[ab2f03971bbced2ea50bf11740b81aa9]
link EDUCATORADDED to BADGECREATED--><g id="link_EDUCATORADDED_BADGECREATED"><path d="M1073.3853,1259.4227 C1147.5583,1266.8633 1228.0523,1269.3358 1302.1086,1259.7959 C1308.3597,1259.0029 1314.6807,1258.0465 1321.0717,1256.9736 " fill="none" id="EDUCATORADDED-to-BADGECREATED" style="stroke:#181818;stroke-width:2.3324829489248713;"/><polygon fill="#181818" points="1332.5942,1254.921,1310.2953,1249.3997,1321.1109,1256.9573,1313.5533,1267.7729,1332.5942,1254.921" style="stroke:#181818;stroke-width:2.3324829489248713;"/><text fill="#000000" font-family="sans-serif" font-size="30.3223" lengthAdjust="spacing" textLength="193.5961" x="1106.18" y="1251.6208">defining badge</text></g><!--MD5=[e342ecae9c8ae8b077f49766a9fe6eb3]
reverse link EDUCATORADDED to BADGECREATED--><g id="link_EDUCATORADDED_BADGECREATED"><path d="M1085.4443,1210.8138 C1169.8801,1210.8138 1259.5175,1210.8138 1332.8741,1210.8138 " fill="none" id="EDUCATORADDED-backto-BADGECREATED" style="stroke:#181818;stroke-width:2.3324829489248713;"/><polygon fill="#181818" points="1073.0355,1210.8138,1094.0278,1220.1437,1084.6979,1210.8138,1094.0278,1201.4838,1073.0355,1210.8138" style="stroke:#181818;stroke-width:2.3324829489248713;"/><text fill="#000000" font-family="sans-serif" font-size="30.3223" lengthAdjust="spacing" textLength="214.5884" x="1095.6839" y="1195.6412">adding educator</text></g><!--MD5=[c757f7e4fe0eedba77177510f1c9e12e]
link BATTLECREATED to BADGECREATED--><g id="link_BATTLECREATED_BADGECREATED"><path d="M1313.9809,783.3163 C1361.6802,819.9829 1406.1607,863.4371 1437.9757,913.4222 C1475.7853,972.8539 1487.9608,1051.995 1491.0164,1113.3626 " fill="none" id="BATTLECREATED-to-BADGECREATED" style="stroke:#181818;stroke-width:2.3324829489248713;"/><polygon fill="#181818" points="1491.5295,1125.3982,1500.013,1104.0498,1491.0634,1113.7451,1481.368,1104.7956,1491.5295,1125.3982" style="stroke:#181818;stroke-width:2.3324829489248713;"/><text fill="#000000" font-family="sans-serif" font-size="30.3223" lengthAdjust="spacing" textLength="193.5961" x="1461.3006" y="947.2318">defining badge</text></g><!--MD5=[98d1b9b80aca355c1cbb78901a03c30a]
reverse link BATTLECREATED to BADGECREATED--><g id="link_BATTLECREATED_BADGECREATED"><path d="M1125.7262,793.5792 C1156.515,846.8065 1193.6015,905.5151 1232.7172,955.4069 C1280.7664,1016.7279 1342.7638,1078.2588 1393.7752,1125.2816 " fill="none" id="BATTLECREATED-backto-BADGECREATED" style="stroke:#181818;stroke-width:2.3324829489248713;"/><polygon fill="#181818" points="1119.6618,782.9897,1122.0249,805.8402,1125.4695,793.1032,1138.2065,796.5478,1119.6618,782.9897" style="stroke:#181818;stroke-width:2.3324829489248713;"/><text fill="#000000" font-family="sans-serif" font-size="30.3223" lengthAdjust="spacing" textLength="191.2636" x="1235.0497" y="947.2318">creating battle</text></g><!--MD5=[30dc003365c67fccf8401654f9c18d4e]
link EDUCATORADDED to ONLINE--><g id="link_EDUCATORADDED_ONLINE"><path d="M805.8729,1275.2136 C805.8729,1314.8192 805.8729,1366.3671 805.8729,1408.3051 " fill="none" id="EDUCATORADDED-to-ONLINE" style="stroke:#181818;stroke-width:2.3324829489248713;"/><polygon fill="#181818" points="805.8729,1420.9938,815.2028,1400.0015,805.8729,1409.3314,796.5429,1400.0015,805.8729,1420.9938" style="stroke:#181818;stroke-width:2.3324829489248713;"/><text fill="#000000" font-family="sans-serif" font-size="30.3223" lengthAdjust="spacing" textLength="305.5553" x="808.2053" y="1371.7437">tournament publication</text></g><!--MD5=[6a4d073685e104f9b58f9a618db649ea]
link BATTLECREATED to ONLINE--><g id="link_BATTLECREATED_ONLINE"><path d="M662.9616,698.5772 C497.9151,735.8736 341.7088,791.6433 341.7088,869.105 C341.7088,869.105 341.7088,869.105 341.7088,1213.1462 C341.7088,1313.0931 423.0191,1376.7699 517.578,1417.0286 " fill="none" id="BATTLECREATED-to-ONLINE" style="stroke:#181818;stroke-width:2.3324829489248713;"/><polygon fill="#181818" points="529.1704,1421.8335,513.3556,1405.1716,518.3982,1417.3645,506.2053,1422.4071,529.1704,1421.8335" style="stroke:#181818;stroke-width:2.3324829489248713;"/><text fill="#000000" font-family="sans-serif" font-size="30.3223" lengthAdjust="spacing" textLength="305.5553" x="344.0412" y="1031.2012">tournament publication</text></g><!--MD5=[5b8a8b30f29508617935f11c7a7176c8]
link BADGECREATED to ONLINE--><g id="link_BADGECREATED_ONLINE"><path d="M1332.5009,1289.8383 C1268.9174,1319.6474 1194.3712,1353.0253 1125.423,1379.9188 C1091.742,1393.0507 1055.6351,1405.926 1020.228,1417.8683 " fill="none" id="BADGECREATED-to-ONLINE" style="stroke:#181818;stroke-width:2.3324829489248713;"/><polygon fill="#181818" points="1008.2624,1421.8801,1031.1299,1424.0723,1019.323,1418.1822,1025.2131,1406.3753,1008.2624,1421.8801" style="stroke:#181818;stroke-width:2.3324829489248713;"/><text fill="#000000" font-family="sans-serif" font-size="30.3223" lengthAdjust="spacing" textLength="305.5553" x="1218.7223" y="1371.7437">tournament publication</text></g><!--MD5=[ae1a8089f86b6c29439bd78b3bff7c45]
link ONLINE to STARTED--><g id="link_ONLINE_STARTED"><path d="M805.8729,1550.4466 C805.8729,1583.8244 805.8729,1625.6692 805.8729,1663.1055 " fill="none" id="ONLINE-to-STARTED" style="stroke:#181818;stroke-width:2.3324829489248713;"/><polygon fill="#181818" points="805.8729,1675.631,815.2028,1654.6386,805.8729,1663.9686,796.5429,1654.6386,805.8729,1675.631" style="stroke:#181818;stroke-width:2.3324829489248713;"/><text fill="#000000" font-family="sans-serif" font-size="30.3223" lengthAdjust="spacing" textLength="387.1922" x="808.2053" y="1625.9843">deadline for subscription met</text></g><!--MD5=[d536dc08aaccae1f4861fcda2056a29c]
link STARTED to BATTLE--><g id="link_STARTED_BATTLE"><path d="M805.8729,1846.8119 C805.8729,1878.8602 805.8729,1917.9759 805.8729,1960.2639 " fill="none" id="STARTED-to-BATTLE" style="stroke:#181818;stroke-width:2.3324829489248713;"/><polygon fill="#181818" points="805.8729,1972.2528,815.2028,1951.2605,805.8729,1960.5904,796.5429,1951.2605,805.8729,1972.2528" style="stroke:#181818;stroke-width:2.3324829489248713;"/><text fill="#000000" font-family="sans-serif" font-size="30.3223" lengthAdjust="spacing" textLength="179.6012" x="808.2053" y="1922.2097">battles online</text></g><!--MD5=[aca3fcf8b8777d1f1918d22252c09c71]
link BATTLE to OFFLINE--><g id="link_BATTLE_OFFLINE"><path d="M1567.5218,2368.8915 C1658.9318,2368.8915 1748.4992,2368.8915 1829.553,2368.8915 " fill="none" id="BATTLE-to-OFFLINE" style="stroke:#181818;stroke-width:2.3324829489248713;"/><polygon fill="#181818" points="1841.4486,2368.8915,1820.4563,2359.5616,1829.7862,2368.8915,1820.4563,2378.2215,1841.4486,2368.8915" style="stroke:#181818;stroke-width:2.3324829489248713;"/><text fill="#000000" font-family="sans-serif" font-size="30.3223" lengthAdjust="spacing" textLength="228.5833" x="1590.1703" y="2353.719">deadline reached</text></g><!--MD5=[89a54afab13553928f41ded4c87c93be]
link OFFLINE to *end*TOURNAMENT--><g id="link_OFFLINE_*end*TOURNAMENT"><path d="M2509.2385,2368.8915 C2518.7084,2368.8915 2528.1783,2368.8915 2537.6481,2368.8915 " fill="none" id="OFFLINE-to-*end*TOURNAMENT" style="stroke:#181818;stroke-width:2.3324829489248713;"/><polygon fill="#181818" points="2549.6371,2368.8915,2528.6448,2359.5616,2537.9747,2368.8915,2528.6448,2378.2215,2549.6371,2368.8915" style="stroke:#181818;stroke-width:2.3324829489248713;"/></g><!--MD5=[45d08d4f9c4dfaeb567f705a77e5f1c5]
@startuml
skinparam dpi 350
scale 1024 width
scale 768 height

state TOURNAMENT{
    [*] -right-> CREATED: creation

    CREATED: - name set

    CREATED -right-> DEFINED: setting

    DEFINED: - programming language/s set
    DEFINED: - outline available
    DEFINED: - max and min number of student per team set
    DEFINED: - duration set
    DEFINED: - deadline for subscription set

    state c <<choice>>

    DEFINED -down-> c

    c -down- - -> EDUCATORADDED: adding educator

    EDUCATORADDED: - new educator in the tournament

    c -left-> BATTLECREATED: creating battle

    BATTLECREATED: - description available
    BATTLECREATED: - code available
    BATTLECREATED: - tests available
    BATTLECREATED: - automatic evaluation parameter defined
    BATTLECREATED: - [optional] manual evaluation parameter defined

    c -right-> BADGECREATED: defining badge

    BADGECREATED: - name set
    BADGECREATED: - rule/s defined

    EDUCATORADDED -left-> BATTLECREATED: creating battle
    BATTLECREATED -right-> EDUCATORADDED: adding educator
    EDUCATORADDED -right-> BADGECREATED: defining badge
    BADGECREATED -left-> EDUCATORADDED: adding educator
    BATTLECREATED -right-> BADGECREATED: defining badge
    BADGECREATED -left-> BATTLECREATED: creating battle

    EDUCATORADDED -down-> ONLINE: tournament publication
    BATTLECREATED -down-> ONLINE: tournament publication
    BADGECREATED -down-> ONLINE: tournament publication

    ONLINE: - students subscribe to the tournament in teams

    ONLINE - -> STARTED: deadline for subscription met

    STARTED: - all the battles are now available
    STARTED: - tournament score and rank now available

    STARTED - -> BATTLE: battles online

    state BATTLE{
        [*] - -> ACCESSIBLE: RMP repo online

        ACCESSIBLE: - students do the fork of the repo
        ACCESSIBLE: - battle score available
        ACCESSIBLE: - completation status available
        ACCESSIBLE: - automatic evaluation enabled

        ACCESSIBLE - -> MANUALEVALUATED: [optional] educator's evaluation

        MANUALEVALUATED: - an educator evaluate the code written

        MANUALEVALUATED - -> ACCESSIBLE
        ACCESSIBLE -right-> CLOSED: deadline reached

        CLOSED: - it is no more possible modify the code
        CLOSED: - the battle score is ultimated

        CLOSED - -> [*]
    }

    BATTLE -right-> OFFLINE: deadline reached

    OFFLINE: - it is no more possible complete battles
    OFFLINE: - tournament score and rank are ultimated
    OFFLINE: - badges are assigned automatically

    OFFLINE -right-> [*]
}

@enduml

PlantUML version 1.2022.7(Mon Aug 22 19:01:30 CEST 2022)
(GPL source distribution)
Java Runtime: Java(TM) SE Runtime Environment
JVM: Java HotSpot(TM) 64-Bit Server VM
Default Encoding: Cp1252
Language: en
Country: US
--></g></svg>