<?xml version="1.0" encoding="UTF-8" standalone="no"?><svg xmlns="http://www.w3.org/2000/svg" xmlns:xlink="http://www.w3.org/1999/xlink" contentStyleType="text/css" height="768.1933px" preserveAspectRatio="none" style="width:353px;height:768px;background:#FFFFFF;" version="1.1" viewBox="0 0 353 768" width="353.9035px" zoomAndPan="magnify"><defs/><g><path d="M9.6519,3.4648 L341.0343,3.4648 A6.1871,6.1871 0 0 1 347.2214,9.6519 L347.2214,17.1306 L3.4648,17.1306 L3.4648,9.6519 A6.1871,6.1871 0 0 1 9.6519,3.4648 " fill="#F1F1F1" style="stroke:#F1F1F1;stroke-width:0.4949699404851817;"/><rect fill="none" height="762.0604" rx="6.1871" ry="6.1871" style="stroke:#181818;stroke-width:0.24748497024259086;" width="343.7566" x="3.4648" y="3.4648"/><line style="stroke:#181818;stroke-width:0.24748497024259086;" x1="3.4648" x2="347.2214" y1="17.1306" y2="17.1306"/><text fill="#000000" font-family="sans-serif" font-size="6.9296" lengthAdjust="spacing" textLength="47.0221" x="151.832" y="13.1331">TOURNAMENT</text><ellipse cx="213.5795" cy="27.525" fill="#222222" rx="4.9497" ry="4.9497" style="stroke:none;stroke-width:0.4949699404851817;"/><g id="TOURNAMENT.CREATED"><rect fill="#F1F1F1" height="27.3316" rx="6.1871" ry="6.1871" style="stroke:#181818;stroke-width:0.24748497024259086;" width="43.0624" x="192.0483" y="50.2936"/><line style="stroke:#181818;stroke-width:0.24748497024259086;" x1="192.0483" x2="235.1107" y1="63.9594" y2="63.9594"/><text fill="#000000" font-family="sans-serif" font-size="6.9296" lengthAdjust="spacing" textLength="32.668" x="197.2455" y="59.9619">CREATED</text><text fill="#000000" font-family="sans-serif" font-size="6.9296" lengthAdjust="spacing" textLength="33.163" x="194.5232" y="73.6277">- name set</text></g><g id="TOURNAMENT.DEFINED"><rect fill="#F1F1F1" height="62.1961" rx="6.1871" ry="6.1871" style="stroke:#181818;stroke-width:0.24748497024259086;" width="153.4407" x="136.8592" y="95.3359"/><line style="stroke:#181818;stroke-width:0.24748497024259086;" x1="136.8592" x2="290.2999" y1="109.0017" y2="109.0017"/><text fill="#000000" font-family="sans-serif" font-size="6.9296" lengthAdjust="spacing" textLength="29.2032" x="198.9779" y="105.0042">DEFINED</text><text fill="#000000" font-family="sans-serif" font-size="6.9296" lengthAdjust="spacing" textLength="93.5493" x="139.334" y="118.67">- programming language/s set</text><text fill="#000000" font-family="sans-serif" font-size="6.9296" lengthAdjust="spacing" textLength="54.9417" x="139.334" y="127.3861">- outline available</text><text fill="#000000" font-family="sans-serif" font-size="6.9296" lengthAdjust="spacing" textLength="143.5413" x="139.334" y="136.1022">- max and min number of student per team set</text><text fill="#000000" font-family="sans-serif" font-size="6.9296" lengthAdjust="spacing" textLength="41.5775" x="139.334" y="144.8183">- duration set</text><text fill="#000000" font-family="sans-serif" font-size="6.9296" lengthAdjust="spacing" textLength="92.5594" x="139.334" y="153.5345">- deadline for subscription set</text></g><g id="elem_c"><polygon fill="#F1F1F1" points="213.5795,175.521,219.5192,181.4606,213.5795,187.4003,207.6399,181.4606,213.5795,175.521" style="stroke:#181818;stroke-width:0.24748497024259086;"/></g><g id="TOURNAMENT.EDUCATORADDED"><rect fill="#F1F1F1" height="27.3316" rx="6.1871" ry="6.1871" style="stroke:#181818;stroke-width:0.24748497024259086;" width="113.3481" x="156.9055" y="205.2192"/><line style="stroke:#181818;stroke-width:0.24748497024259086;" x1="156.9055" x2="270.2536" y1="218.885" y2="218.885"/><text fill="#000000" font-family="sans-serif" font-size="6.9296" lengthAdjust="spacing" textLength="61.8712" x="182.6439" y="214.8875">EDUCATORADDED</text><text fill="#000000" font-family="sans-serif" font-size="6.9296" lengthAdjust="spacing" textLength="103.4487" x="159.3803" y="228.5533">- new educator in the tournament</text></g><g id="TOURNAMENT.BATTLECREATED"><rect fill="#F1F1F1" height="62.1961" rx="6.1871" ry="6.1871" style="stroke:#181818;stroke-width:0.24748497024259086;" width="161.3602" x="81.4226" y="250.2614"/><line style="stroke:#181818;stroke-width:0.24748497024259086;" x1="81.4226" x2="242.7828" y1="263.9273" y2="263.9273"/><text fill="#000000" font-family="sans-serif" font-size="6.9296" lengthAdjust="spacing" textLength="58.9014" x="132.6519" y="259.9298">BATTLECREATED</text><text fill="#000000" font-family="sans-serif" font-size="6.9296" lengthAdjust="spacing" textLength="68.3059" x="83.8974" y="273.5956">- description available</text><text fill="#000000" font-family="sans-serif" font-size="6.9296" lengthAdjust="spacing" textLength="49.497" x="83.8974" y="282.3117">- code available</text><text fill="#000000" font-family="sans-serif" font-size="6.9296" lengthAdjust="spacing" textLength="49.002" x="83.8974" y="291.0278">- tests available</text><text fill="#000000" font-family="sans-serif" font-size="6.9296" lengthAdjust="spacing" textLength="128.1972" x="83.8974" y="299.7439">- automatic evaluation parameter defined</text><text fill="#000000" font-family="sans-serif" font-size="6.9296" lengthAdjust="spacing" textLength="151.4608" x="83.8974" y="308.46">- [optional] manual evaluation parameter defined</text></g><g id="TOURNAMENT.BADGECREATED"><rect fill="#F1F1F1" height="36.0477" rx="6.1871" ry="6.1871" style="stroke:#181818;stroke-width:0.24748497024259086;" width="66.326" x="201.7003" y="330.4466"/><line style="stroke:#181818;stroke-width:0.24748497024259086;" x1="201.7003" x2="268.0262" y1="344.1124" y2="344.1124"/><text fill="#000000" font-family="sans-serif" font-size="6.9296" lengthAdjust="spacing" textLength="56.4266" x="206.65" y="340.1149">BADGECREATED</text><text fill="#000000" font-family="sans-serif" font-size="6.9296" lengthAdjust="spacing" textLength="33.163" x="204.1751" y="353.7807">- name set</text><text fill="#000000" font-family="sans-serif" font-size="6.9296" lengthAdjust="spacing" textLength="47.0221" x="204.1751" y="362.4968">- rule/s defined</text></g><g id="TOURNAMENT.ONLINE"><rect fill="#F1F1F1" height="27.3316" rx="6.1871" ry="6.1871" style="stroke:#181818;stroke-width:0.24748497024259086;" width="158.8854" x="82.66" y="384.3983"/><line style="stroke:#181818;stroke-width:0.24748497024259086;" x1="82.66" x2="241.5453" y1="398.0641" y2="398.0641"/><text fill="#000000" font-family="sans-serif" font-size="6.9296" lengthAdjust="spacing" textLength="24.2535" x="149.9759" y="394.0666">ONLINE</text><text fill="#000000" font-family="sans-serif" font-size="6.9296" lengthAdjust="spacing" textLength="148.986" x="85.1348" y="407.7325">- students subscribe to the tournament in teams</text></g><g id="TOURNAMENT.STARTED"><rect fill="#F1F1F1" height="36.0477" rx="6.1871" ry="6.1871" style="stroke:#181818;stroke-width:0.24748497024259086;" width="143.0463" x="90.5795" y="429.4406"/><line style="stroke:#181818;stroke-width:0.24748497024259086;" x1="90.5795" x2="233.6258" y1="443.1064" y2="443.1064"/><text fill="#000000" font-family="sans-serif" font-size="6.9296" lengthAdjust="spacing" textLength="32.173" x="146.0161" y="439.1089">STARTED</text><text fill="#000000" font-family="sans-serif" font-size="6.9296" lengthAdjust="spacing" textLength="102.4588" x="93.0543" y="452.7747">- all the battles are now available</text><text fill="#000000" font-family="sans-serif" font-size="6.9296" lengthAdjust="spacing" textLength="133.1469" x="93.0543" y="461.4908">- tournament score and rank now available</text></g><g id="TOURNAMENT.OFFLINE"><rect fill="#F1F1F1" height="44.7638" rx="6.1871" ry="6.1871" style="stroke:#181818;stroke-width:0.24748497024259086;" width="141.5614" x="91.322" y="688.3098"/><line style="stroke:#181818;stroke-width:0.24748497024259086;" x1="91.322" x2="232.8834" y1="701.9757" y2="701.9757"/><text fill="#000000" font-family="sans-serif" font-size="6.9296" lengthAdjust="spacing" textLength="28.7083" x="147.7485" y="697.9782">OFFLINE</text><text fill="#000000" font-family="sans-serif" font-size="6.9296" lengthAdjust="spacing" textLength="123.2475" x="93.7968" y="711.644">- it is no more possible complete battles</text><text fill="#000000" font-family="sans-serif" font-size="6.9296" lengthAdjust="spacing" textLength="131.662" x="93.7968" y="720.3601">- tournament score and rank are ultimated</text><text fill="#000000" font-family="sans-serif" font-size="6.9296" lengthAdjust="spacing" textLength="112.8531" x="93.7968" y="729.0762">- badges are assigned automatically</text></g><ellipse cx="162.1027" cy="755.6258" fill="none" rx="4.9497" ry="4.9497" style="stroke:#222222;stroke-width:0.4949699404851817;"/><ellipse cx="162.3501" cy="755.8732" fill="#222222" rx="2.9698" ry="2.9698" style="stroke:none;stroke-width:0.4949699404851817;"/><path d="M15.5916,483.3923 L308.6138,483.3923 A6.1871,6.1871 0 0 1 314.8009,489.5794 L314.8009,497.0581 L9.4044,497.0581 L9.4044,489.5794 A6.1871,6.1871 0 0 1 15.5916,483.3923 " fill="#F1F1F1" style="stroke:#F1F1F1;stroke-width:0.4949699404851817;"/><rect fill="none" height="186.9053" rx="6.1871" ry="6.1871" style="stroke:#181818;stroke-width:0.24748497024259086;" width="305.3965" x="9.4044" y="483.3923"/><line style="stroke:#181818;stroke-width:0.24748497024259086;" x1="9.4044" x2="314.8009" y1="497.0581" y2="497.0581"/><text fill="#000000" font-family="sans-serif" font-size="6.9296" lengthAdjust="spacing" textLength="26.2334" x="148.986" y="493.0606">BATTLE</text><ellipse cx="103.4487" cy="507.4525" fill="#222222" rx="4.9497" ry="4.9497" style="stroke:none;stroke-width:0.4949699404851817;"/><g id="TOURNAMENT.BATTLE.ACCESSIBLE"><rect fill="#F1F1F1" height="53.48" rx="6.1871" ry="6.1871" style="stroke:#181818;stroke-width:0.24748497024259086;" width="112.8531" x="47.0221" y="530.2211"/><line style="stroke:#181818;stroke-width:0.24748497024259086;" x1="47.0221" x2="159.8753" y1="543.8869" y2="543.8869"/><text fill="#000000" font-family="sans-serif" font-size="6.9296" lengthAdjust="spacing" textLength="42.0724" x="82.4125" y="539.8894">ACCESSIBLE</text><text fill="#000000" font-family="sans-serif" font-size="6.9296" lengthAdjust="spacing" textLength="102.9537" x="49.497" y="553.5552">- students do the fork of the repo</text><text fill="#000000" font-family="sans-serif" font-size="6.9296" lengthAdjust="spacing" textLength="70.7807" x="49.497" y="562.2714">- battle score available</text><text fill="#000000" font-family="sans-serif" font-size="6.9296" lengthAdjust="spacing" textLength="94.5393" x="49.497" y="570.9875">- completation status available</text><text fill="#000000" font-family="sans-serif" font-size="6.9296" lengthAdjust="spacing" textLength="96.0242" x="49.497" y="579.7036">- automatic evaluation enabled</text></g><g id="TOURNAMENT.BATTLE.MANUALEVALUATED"><rect fill="#F1F1F1" height="27.3316" rx="6.1871" ry="6.1871" style="stroke:#181818;stroke-width:0.24748497024259086;" width="132.157" x="37.3702" y="605.9515"/><line style="stroke:#181818;stroke-width:0.24748497024259086;" x1="37.3702" x2="169.5272" y1="619.6173" y2="619.6173"/><text fill="#000000" font-family="sans-serif" font-size="6.9296" lengthAdjust="spacing" textLength="67.3159" x="69.7908" y="615.6198">MANUALEVALUATED</text><text fill="#000000" font-family="sans-serif" font-size="6.9296" lengthAdjust="spacing" textLength="122.2576" x="39.8451" y="629.2856">- an educator evaluate the code written</text></g><g id="TOURNAMENT.BATTLE.CLOSED"><rect fill="#F1F1F1" height="36.0477" rx="6.1871" ry="6.1871" style="stroke:#181818;stroke-width:0.24748497024259086;" width="131.662" x="178.6841" y="601.4968"/><line style="stroke:#181818;stroke-width:0.24748497024259086;" x1="178.6841" x2="310.3462" y1="615.1626" y2="615.1626"/><text fill="#000000" font-family="sans-serif" font-size="6.9296" lengthAdjust="spacing" textLength="28.2133" x="230.4085" y="611.1651">CLOSED</text><text fill="#000000" font-family="sans-serif" font-size="6.9296" lengthAdjust="spacing" textLength="121.7626" x="181.159" y="624.8309">- it is no more possible modify the code</text><text fill="#000000" font-family="sans-serif" font-size="6.9296" lengthAdjust="spacing" textLength="90.0845" x="181.159" y="633.547">- the battle score is ultimated</text></g><ellipse cx="244.5152" cy="660.3982" fill="none" rx="4.9497" ry="4.9497" style="stroke:#222222;stroke-width:0.4949699404851817;"/><ellipse cx="244.7626" cy="660.6457" fill="#222222" rx="2.9698" ry="2.9698" style="stroke:none;stroke-width:0.4949699404851817;"/><!--MD5=[e82b03a28b4b0e8e2fdb7abbb302e1fd]
link *start*BATTLE to ACCESSIBLE--><g id="link_*start*BATTLE_ACCESSIBLE"><path d="M103.4487,512.5655 C103.4487,512.5655 103.4487,527.6027 103.4487,527.6027 " fill="none" id="*start*BATTLE-to-ACCESSIBLE" style="stroke:#181818;stroke-width:0.4949699404851817;"/><polygon fill="#181818" points="103.4487,530.0775,105.4286,525.6228,103.4487,527.6027,101.4688,525.6228,103.4487,530.0775" style="stroke:#181818;stroke-width:0.4949699404851817;"/><text fill="#000000" font-family="sans-serif" font-size="6.4346" lengthAdjust="spacing" textLength="47.5171" x="55.4366" y="527.2587">RMP repo online</text></g><!--MD5=[ecfc50a5231f07af166dcaafee0e191e]
link ACCESSIBLE to MANUALEVALUATED--><g id="link_ACCESSIBLE_MANUALEVALUATED"><path d="M103.4487,583.6828 C103.4487,583.6828 103.4487,603.3826 103.4487,603.3826 " fill="none" id="ACCESSIBLE-to-MANUALEVALUATED" style="stroke:#181818;stroke-width:0.4949699404851817;"/><polygon fill="#181818" points="103.4487,605.8574,105.4286,601.4027,103.4487,603.3826,101.4688,601.4027,103.4487,605.8574" style="stroke:#181818;stroke-width:0.4949699404851817;"/><text fill="#000000" font-family="sans-serif" font-size="6.4346" lengthAdjust="spacing" textLength="87.6097" x="15.3441" y="591.7979">[optional] educator's evaluation</text></g><!--MD5=[3a93543e646454490b6c997ca1fc8895]
link MANUALEVALUATED to ACCESSIBLE--><g id="link_MANUALEVALUATED_ACCESSIBLE"><path d="M75.2354,605.8228 C75.2354,605.8228 75.2354,586.2517 75.2354,586.2517 " fill="none" id="MANUALEVALUATED-to-ACCESSIBLE" style="stroke:#181818;stroke-width:0.4949699404851817;"/><polygon fill="#181818" points="75.2354,583.7768,73.2683,588.2372,75.2425,586.2517,77.228,588.2259,75.2354,583.7768" style="stroke:#181818;stroke-width:0.4949699404851817;"/></g><!--MD5=[91757e9636e7cc7a3199143b5731570f]
link ACCESSIBLE to CLOSED--><g id="link_ACCESSIBLE_CLOSED"><path d="M131.662,583.757 C131.662,594.3147 131.662,603.9716 131.662,603.9716 C131.662,603.9716 176.0658,603.9716 176.0658,603.9716 " fill="none" id="ACCESSIBLE-to-CLOSED" style="stroke:#181818;stroke-width:0.4949699404851817;"/><polygon fill="#181818" points="178.5406,603.9716,174.0859,601.9917,176.0658,603.9716,174.0859,605.9515,178.5406,603.9716" style="stroke:#181818;stroke-width:0.4949699404851817;"/><text fill="#000000" font-family="sans-serif" font-size="6.4346" lengthAdjust="spacing" textLength="48.5071" x="94.757" y="602.2368">deadline reached</text></g><!--MD5=[bd0ce960e416f66f0ecd46ced91913ca]
link CLOSED to *end*BATTLE--><g id="link_CLOSED_*end*BATTLE"><path d="M244.5152,637.8325 C244.5152,637.8325 244.5152,652.9736 244.5152,652.9736 " fill="none" id="CLOSED-to-*end*BATTLE" style="stroke:#181818;stroke-width:0.4949699404851817;"/><polygon fill="#181818" points="244.5152,655.4485,246.495,650.9937,244.5152,652.9736,242.5353,650.9937,244.5152,655.4485" style="stroke:#181818;stroke-width:0.4949699404851817;"/></g><!--MD5=[0202db916e16442f7cb592d8402a7977]
link *start*TOURNAMENT to CREATED--><g id="link_*start*TOURNAMENT_CREATED"><path d="M213.5795,32.5836 C213.5795,32.5836 213.5795,47.794 213.5795,47.794 " fill="none" id="*start*TOURNAMENT-to-CREATED" style="stroke:#181818;stroke-width:0.4949699404851817;"/><polygon fill="#181818" points="213.5795,50.2688,215.5594,45.8141,213.5795,47.794,211.5996,45.8141,213.5795,50.2688" style="stroke:#181818;stroke-width:0.4949699404851817;"/><text fill="#000000" font-family="sans-serif" font-size="6.4346" lengthAdjust="spacing" textLength="23.7586" x="189.326" y="47.3659">Creation</text></g><!--MD5=[d1fe89e512ffad75915bf07c628122b8]
link CREATED to DEFINED--><g id="link_CREATED_DEFINED"><path d="M213.5795,77.6456 C213.5795,77.6456 213.5795,92.7571 213.5795,92.7571 " fill="none" id="CREATED-to-DEFINED" style="stroke:#181818;stroke-width:0.4949699404851817;"/><polygon fill="#181818" points="213.5795,95.2319,215.5594,90.7772,213.5795,92.7571,211.5996,90.7772,213.5795,95.2319" style="stroke:#181818;stroke-width:0.4949699404851817;"/><text fill="#000000" font-family="sans-serif" font-size="6.4346" lengthAdjust="spacing" textLength="19.3038" x="193.7807" y="92.3735">setting</text></g><!--MD5=[c90b9c5de838bf994479fcca5438223a]
link DEFINED to c--><g id="link_DEFINED_c"><path d="M213.5795,157.8407 C213.5795,157.8407 213.5795,172.9867 213.5795,172.9867 " fill="none" id="DEFINED-to-c" style="stroke:#181818;stroke-width:0.4949699404851817;"/><polygon fill="#181818" points="213.5795,175.4616,215.5594,171.0069,213.5795,172.9867,211.5996,171.0069,213.5795,175.4616" style="stroke:#181818;stroke-width:0.4949699404851817;"/></g><!--MD5=[0d81bf5fe050032dfd578b2ccbb6b767]
link c to EDUCATORADDED--><g id="link_c_EDUCATORADDED"><path d="M213.5795,187.4646 C213.5795,187.4646 213.5795,202.6107 213.5795,202.6107 " fill="none" id="c-to-EDUCATORADDED" style="stroke:#181818;stroke-width:0.4949699404851817;"/><polygon fill="#181818" points="213.5795,205.0855,215.5594,200.6308,213.5795,202.6107,211.5996,200.6308,213.5795,205.0855" style="stroke:#181818;stroke-width:0.4949699404851817;"/><text fill="#000000" font-family="sans-serif" font-size="6.4346" lengthAdjust="spacing" textLength="45.5372" x="167.5473" y="202.2123">adding educator</text></g><!--MD5=[1f16b222be238ec7477edae1e24bf285]
link c to BATTLECREATED--><g id="link_c_BATTLECREATED"><path d="M207.4221,181.4606 C190.9149,181.4606 146.8823,181.4606 146.8823,181.4606 C146.8823,181.4606 146.8823,247.747 146.8823,247.747 " fill="none" id="c-to-BATTLECREATED" style="stroke:#181818;stroke-width:0.4949699404851817;"/><polygon fill="#181818" points="146.8823,250.2218,148.8622,245.7671,146.8823,247.747,144.9025,245.7671,146.8823,250.2218" style="stroke:#181818;stroke-width:0.4949699404851817;"/><text fill="#000000" font-family="sans-serif" font-size="6.4346" lengthAdjust="spacing" textLength="40.5875" x="105.7998" y="182.5966">creating battle</text></g><!--MD5=[f36c583a41ec79778bf9a31eba1fcd05]
link c to BADGECREATED--><g id="link_c_BADGECREATED"><path d="M219.5489,181.4606 C236.4867,181.4606 283.6178,181.4606 283.6178,181.4606 C283.6178,181.4606 283.6178,348.7605 283.6178,348.7605 C283.6178,348.7605 270.5308,348.7605 270.5308,348.7605 " fill="none" id="c-to-BADGECREATED" style="stroke:#181818;stroke-width:0.4949699404851817;"/><polygon fill="#181818" points="268.0559,348.7605,272.5107,350.7403,270.5308,348.7605,272.5107,346.7806,268.0559,348.7605" style="stroke:#181818;stroke-width:0.4949699404851817;"/><text fill="#000000" font-family="sans-serif" font-size="6.4346" lengthAdjust="spacing" textLength="41.0825" x="242.0403" y="246.7942">defining badge</text></g><!--MD5=[5525982266496499d9048625d72ff6dc]
link EDUCATORADDED to BATTLECREATED--><g id="link_EDUCATORADDED_BATTLECREATED"><path d="M185.5296,232.5712 C185.5296,232.5712 185.5296,247.6826 185.5296,247.6826 " fill="none" id="EDUCATORADDED-to-BATTLECREATED" style="stroke:#181818;stroke-width:0.4949699404851817;"/><polygon fill="#181818" points="185.5296,250.1575,187.5095,245.7028,185.5296,247.6826,183.5497,245.7028,185.5296,250.1575" style="stroke:#181818;stroke-width:0.4949699404851817;"/><text fill="#000000" font-family="sans-serif" font-size="6.4346" lengthAdjust="spacing" textLength="40.5875" x="144.4471" y="247.2991">creating battle</text></g><!--MD5=[2cc3aec23693bf4f84bbb1392607c450]
link BATTLECREATED to EDUCATORADDED--><g id="link_BATTLECREATED_EDUCATORADDED"><path d="M214.1586,250.1377 C214.1586,250.1377 214.1586,235.0461 214.1586,235.0461 " fill="none" id="BATTLECREATED-to-EDUCATORADDED" style="stroke:#181818;stroke-width:0.4949699404851817;"/><polygon fill="#181818" points="214.1586,232.5712,212.1788,237.0259,214.1586,235.0461,216.1385,237.0259,214.1586,232.5712" style="stroke:#181818;stroke-width:0.4949699404851817;"/><text fill="#000000" font-family="sans-serif" font-size="6.4346" lengthAdjust="spacing" textLength="45.5372" x="168.1264" y="240.8595">adding educator</text></g><!--MD5=[ab2f03971bbced2ea50bf11740b81aa9]
link EDUCATORADDED to BADGECREATED--><g id="link_EDUCATORADDED_BADGECREATED"><path d="M251.1972,232.4623 C251.1972,232.4623 251.1972,327.8381 251.1972,327.8381 " fill="none" id="EDUCATORADDED-to-BADGECREATED" style="stroke:#181818;stroke-width:0.4949699404851817;"/><polygon fill="#181818" points="251.1972,330.3129,253.1771,325.8582,251.1972,327.8381,249.2174,325.8582,251.1972,330.3129" style="stroke:#181818;stroke-width:0.4949699404851817;"/><text fill="#000000" font-family="sans-serif" font-size="6.4346" lengthAdjust="spacing" textLength="41.0825" x="251.6922" y="278.4129">defining badge</text></g><!--MD5=[de3f9cf77bd0120523b6133b1b40948f]
link BADGECREATED to EDUCATORADDED--><g id="link_BADGECREATED_EDUCATORADDED"><path d="M259.6117,330.3426 C259.6117,330.3426 259.6117,234.9966 259.6117,234.9966 " fill="none" id="BADGECREATED-to-EDUCATORADDED" style="stroke:#181818;stroke-width:0.4949699404851817;"/><polygon fill="#181818" points="259.6117,232.5217,257.6319,236.9764,259.6117,234.9966,261.5916,236.9764,259.6117,232.5217" style="stroke:#181818;stroke-width:0.4949699404851817;"/><text fill="#000000" font-family="sans-serif" font-size="6.4346" lengthAdjust="spacing" textLength="45.5372" x="260.1067" y="289.8418">adding educator</text></g><!--MD5=[c757f7e4fe0eedba77177510f1c9e12e]
link BATTLECREATED to BADGECREATED--><g id="link_BATTLECREATED_BADGECREATED"><path d="M215.3961,312.8207 C215.3961,312.8207 215.3961,327.848 215.3961,327.848 " fill="none" id="BATTLECREATED-to-BADGECREATED" style="stroke:#181818;stroke-width:0.4949699404851817;"/><polygon fill="#181818" points="215.3961,330.3228,217.3759,325.8681,215.3961,327.848,213.4162,325.8681,215.3961,330.3228" style="stroke:#181818;stroke-width:0.4949699404851817;"/><text fill="#000000" font-family="sans-serif" font-size="6.4346" lengthAdjust="spacing" textLength="41.0825" x="173.8186" y="327.509">defining badge</text></g><!--MD5=[2b2703f5f588b24b861a16027a5cc0ee]
link BADGECREATED to BATTLECREATED--><g id="link_BADGECREATED_BATTLECREATED"><path d="M229.0869,330.3624 C229.0869,330.3624 229.0869,315.1372 229.0869,315.1372 " fill="none" id="BADGECREATED-to-BATTLECREATED" style="stroke:#181818;stroke-width:0.4949699404851817;"/><polygon fill="#181818" points="229.0869,312.6623,227.1071,317.117,229.0869,315.1372,231.0668,317.117,229.0869,312.6623" style="stroke:#181818;stroke-width:0.4949699404851817;"/><text fill="#000000" font-family="sans-serif" font-size="6.4346" lengthAdjust="spacing" textLength="40.5875" x="229.5819" y="321.015">creating battle</text></g><!--MD5=[30dc003365c67fccf8401654f9c18d4e]
link EDUCATORADDED to ONLINE--><g id="link_EDUCATORADDED_ONLINE"><path d="M270.3922,219.0783 C274.4212,219.0783 276.9357,219.0783 276.9357,219.0783 C276.9357,219.0783 276.9357,398.2575 276.9357,398.2575 C276.9357,398.2575 244.1786,398.2575 244.1786,398.2575 " fill="none" id="EDUCATORADDED-to-ONLINE" style="stroke:#181818;stroke-width:0.4949699404851817;"/><polygon fill="#181818" points="241.7037,398.2575,246.1585,400.2373,244.1786,398.2575,246.1585,396.2776,241.7037,398.2575" style="stroke:#181818;stroke-width:0.4949699404851817;"/><text fill="#000000" font-family="sans-serif" font-size="6.4346" lengthAdjust="spacing" textLength="64.8411" x="277.4307" y="320.0399">tournament publication</text></g><!--MD5=[6a4d073685e104f9b58f9a618db649ea]
link BATTLECREATED to ONLINE--><g id="link_BATTLECREATED_ONLINE"><path d="M142.1801,312.6821 C142.1801,312.6821 142.1801,381.7997 142.1801,381.7997 " fill="none" id="BATTLECREATED-to-ONLINE" style="stroke:#181818;stroke-width:0.4949699404851817;"/><polygon fill="#181818" points="142.1801,384.2746,144.16,379.8198,142.1801,381.7997,140.2002,379.8198,142.1801,384.2746" style="stroke:#181818;stroke-width:0.4949699404851817;"/><text fill="#000000" font-family="sans-serif" font-size="6.4346" lengthAdjust="spacing" textLength="64.8411" x="76.8441" y="345.5061">tournament publication</text></g><!--MD5=[5b8a8b30f29508617935f11c7a7176c8]
link BADGECREATED to ONLINE--><g id="link_BADGECREATED_ONLINE"><path d="M221.6228,366.6635 C221.6228,366.6635 221.6228,381.8838 221.6228,381.8838 " fill="none" id="BADGECREATED-to-ONLINE" style="stroke:#181818;stroke-width:0.4949699404851817;"/><polygon fill="#181818" points="221.6228,384.3587,223.6027,379.904,221.6228,381.8838,219.6429,379.904,221.6228,384.3587" style="stroke:#181818;stroke-width:0.4949699404851817;"/><text fill="#000000" font-family="sans-serif" font-size="6.4346" lengthAdjust="spacing" textLength="64.8411" x="156.2868" y="381.4508">tournament publication</text></g><!--MD5=[ae1a8089f86b6c29439bd78b3bff7c45]
link ONLINE to STARTED--><g id="link_ONLINE_STARTED"><path d="M162.1027,411.6662 C162.1027,411.6662 162.1027,426.7875 162.1027,426.7875 " fill="none" id="ONLINE-to-STARTED" style="stroke:#181818;stroke-width:0.4949699404851817;"/><polygon fill="#181818" points="162.1027,429.2624,164.0825,424.8076,162.1027,426.7875,160.1228,424.8076,162.1027,429.2624" style="stroke:#181818;stroke-width:0.4949699404851817;"/><text fill="#000000" font-family="sans-serif" font-size="6.4346" lengthAdjust="spacing" textLength="82.165" x="79.4427" y="426.399">deadline for subscription met</text></g><!--MD5=[d536dc08aaccae1f4861fcda2056a29c]
link STARTED to BATTLE--><g id="link_STARTED_BATTLE"><path d="M162.1027,465.6427 C162.1027,465.6427 162.1027,480.9026 162.1027,480.9026 " fill="none" id="STARTED-to-BATTLE" style="stroke:#181818;stroke-width:0.4949699404851817;"/><polygon fill="#181818" points="162.1027,483.3774,164.0825,478.9227,162.1027,480.9026,160.1228,478.9227,162.1027,483.3774" style="stroke:#181818;stroke-width:0.4949699404851817;"/><text fill="#000000" font-family="sans-serif" font-size="6.4346" lengthAdjust="spacing" textLength="38.1127" x="123.495" y="480.4448">battles online</text></g><!--MD5=[aca3fcf8b8777d1f1918d22252c09c71]
link BATTLE to OFFLINE--><g id="link_BATTLE_OFFLINE"><path d="M162.1027,670.6691 C162.1027,670.6691 162.1027,685.642 162.1027,685.642 " fill="none" id="BATTLE-to-OFFLINE" style="stroke:#181818;stroke-width:0.4949699404851817;"/><polygon fill="#181818" points="162.1027,688.1168,164.0825,683.6621,162.1027,685.642,160.1228,683.6621,162.1027,688.1168" style="stroke:#181818;stroke-width:0.4949699404851817;"/><text fill="#000000" font-family="sans-serif" font-size="6.4346" lengthAdjust="spacing" textLength="48.5071" x="113.1006" y="685.3277">deadline reached</text></g><!--MD5=[89a54afab13553928f41ded4c87c93be]
link OFFLINE to *end*TOURNAMENT--><g id="link_OFFLINE_*end*TOURNAMENT"><path d="M162.1027,732.971 C162.1027,732.971 162.1027,748.122 162.1027,748.122 " fill="none" id="OFFLINE-to-*end*TOURNAMENT" style="stroke:#181818;stroke-width:0.4949699404851817;"/><polygon fill="#181818" points="162.1027,750.5969,164.0825,746.1421,162.1027,748.122,160.1228,746.1421,162.1027,750.5969" style="stroke:#181818;stroke-width:0.4949699404851817;"/></g><!--MD5=[62dc82ee65739b23683078a71dd17c0b]
@startuml
scale 1024 width
scale 768 height

skinparam linetype ortho

state TOURNAMENT{
    [*] - -> CREATED: Creation

    CREATED: - name set

    CREATED - -> DEFINED: setting

    DEFINED: - programming language/s set
    DEFINED: - outline available
    DEFINED: - max and min number of student per team set
    DEFINED: - duration set
    DEFINED: - deadline for subscription set

    state c <<choice>>

    DEFINED - -> c

    c - -> EDUCATORADDED: adding educator

    EDUCATORADDED: - new educator in the tournament

    c - -> BATTLECREATED: creating battle

    BATTLECREATED: - description available
    BATTLECREATED: - code available
    BATTLECREATED: - tests available
    BATTLECREATED: - automatic evaluation parameter defined
    BATTLECREATED: - [optional] manual evaluation parameter defined

    c - -> BADGECREATED: defining badge

    BADGECREATED: - name set
    BADGECREATED: - rule/s defined

    EDUCATORADDED - -> BATTLECREATED: creating battle
    BATTLECREATED - -> EDUCATORADDED: adding educator
    EDUCATORADDED - -> BADGECREATED: defining badge
    BADGECREATED - -> EDUCATORADDED: adding educator
    BATTLECREATED - -> BADGECREATED: defining badge
    BADGECREATED - -> BATTLECREATED: creating battle

    EDUCATORADDED - -> ONLINE: tournament publication
    BATTLECREATED - -> ONLINE: tournament publication
    BADGECREATED - -> ONLINE: tournament publication

    ONLINE: - students subscribe to the tournament in teams

    ONLINE - -> STARTED: deadline for subscription met

    STARTED: - all the battles are now available
    STARTED: - tournament score and rank now available

    STARTED - -> BATTLE: battles online

    state BATTLE{
        [*] - -> ACCESSIBLE: RMP repo online

        ACCESSIBLE: - students do the fork of the repo
        ACCESSIBLE: - battle score available
        ACCESSIBLE: - completation status available
        ACCESSIBLE: - automatic evaluation enabled

        ACCESSIBLE - -> MANUALEVALUATED: [optional] educator's evaluation

        MANUALEVALUATED: - an educator evaluate the code written

        MANUALEVALUATED - -> ACCESSIBLE
        ACCESSIBLE - -> CLOSED: deadline reached

        CLOSED: - it is no more possible modify the code
        CLOSED: - the battle score is ultimated

        CLOSED - -> [*]
    }

    BATTLE - -> OFFLINE: deadline reached

    OFFLINE: - it is no more possible complete battles
    OFFLINE: - tournament score and rank are ultimated
    OFFLINE: - badges are assigned automatically

    OFFLINE - -> [*]
}

@enduml

PlantUML version 1.2022.7(Mon Aug 22 19:01:30 CEST 2022)
(GPL source distribution)
Java Runtime: Java(TM) SE Runtime Environment
JVM: Java HotSpot(TM) 64-Bit Server VM
Default Encoding: Cp1252
Language: en
Country: US
--></g></svg>