<?xml version="1.0" encoding="UTF-8" standalone="no"?><svg xmlns="http://www.w3.org/2000/svg" xmlns:xlink="http://www.w3.org/1999/xlink" contentStyleType="text/css" height="1248px" preserveAspectRatio="none" style="width:1199px;height:1248px;background:#FFFFFF;" version="1.1" viewBox="0 0 1199 1248" width="1199px" zoomAndPan="magnify"><defs/><g><path d="M19.5,7 L1173,7 A12.5,12.5 0 0 1 1185.5,19.5 L1185.5,36.0679 L7,36.0679 L7,19.5 A12.5,12.5 0 0 1 19.5,7 " fill="#F1F1F1" style="stroke:#F1F1F1;stroke-width:1.0;"/><rect fill="none" height="1235.2717" rx="12.5" ry="12.5" style="stroke:#181818;stroke-width:0.5;" width="1178.5" x="7" y="7"/><line style="stroke:#181818;stroke-width:0.5;" x1="7" x2="1185.5" y1="36.0679" y2="36.0679"/><text fill="#000000" font-family="sans-serif" font-size="14" lengthAdjust="spacing" textLength="98" x="547.25" y="26.9659">TOURNAMENT</text><ellipse cx="385.5" cy="115.0679" fill="#222222" rx="10" ry="10" style="stroke:none;stroke-width:1.0;"/><g id="TOURNAMENT.CREATED"><rect fill="#F1F1F1" height="58.1358" rx="12.5" ry="12.5" style="stroke:#181818;stroke-width:0.5;" width="91" x="464" y="86.0679"/><line style="stroke:#181818;stroke-width:0.5;" x1="464" x2="555" y1="115.1358" y2="115.1358"/><text fill="#000000" font-family="sans-serif" font-size="14" lengthAdjust="spacing" textLength="61" x="479" y="106.0339">CREATED</text><text fill="#000000" font-family="sans-serif" font-size="14" lengthAdjust="spacing" textLength="71" x="469" y="135.1018">- name set</text></g><g id="TOURNAMENT.DEFINED"><rect fill="#F1F1F1" height="134.4075" rx="12.5" ry="12.5" style="stroke:#181818;stroke-width:0.5;" width="337" x="617" y="48.0679"/><line style="stroke:#181818;stroke-width:0.5;" x1="617" x2="954" y1="77.1358" y2="77.1358"/><text fill="#000000" font-family="sans-serif" font-size="14" lengthAdjust="spacing" textLength="59" x="756" y="68.0339">DEFINED</text><text fill="#000000" font-family="sans-serif" font-size="14" lengthAdjust="spacing" textLength="207" x="622" y="97.1018">- programming language/s set</text><text fill="#000000" font-family="sans-serif" font-size="14" lengthAdjust="spacing" textLength="120" x="622" y="116.1697">- outline available</text><text fill="#000000" font-family="sans-serif" font-size="14" lengthAdjust="spacing" textLength="317" x="622" y="135.2376">- max and min number of student per team set</text><text fill="#000000" font-family="sans-serif" font-size="14" lengthAdjust="spacing" textLength="91" x="622" y="154.3055">- duration set</text><text fill="#000000" font-family="sans-serif" font-size="14" lengthAdjust="spacing" textLength="203" x="622" y="173.3734">- deadline for subscription set</text></g><g id="elem_c"><polygon fill="#F1F1F1" points="785.5,274.0679,797.5,286.0679,785.5,298.0679,773.5,286.0679,785.5,274.0679" style="stroke:#181818;stroke-width:0.5;"/></g><g id="TOURNAMENT.EDUCATORADDED"><rect fill="#F1F1F1" height="58.1358" rx="12.5" ry="12.5" style="stroke:#181818;stroke-width:0.5;" width="248" x="240.5" y="511.5679"/><line style="stroke:#181818;stroke-width:0.5;" x1="240.5" x2="488.5" y1="540.6358" y2="540.6358"/><text fill="#000000" font-family="sans-serif" font-size="14" lengthAdjust="spacing" textLength="121" x="304" y="531.5339">EDUCATORADDED</text><text fill="#000000" font-family="sans-serif" font-size="14" lengthAdjust="spacing" textLength="228" x="245.5" y="560.6018">- new educator in the tournament</text></g><g id="TOURNAMENT.BATTLECREATED"><rect fill="#F1F1F1" height="134.4075" rx="12.5" ry="12.5" style="stroke:#181818;stroke-width:0.5;" width="354" x="291.5" y="219.0679"/><line style="stroke:#181818;stroke-width:0.5;" x1="291.5" x2="645.5" y1="248.1358" y2="248.1358"/><text fill="#000000" font-family="sans-serif" font-size="14" lengthAdjust="spacing" textLength="110" x="413.5" y="239.0339">BATTLECREATED</text><text fill="#000000" font-family="sans-serif" font-size="14" lengthAdjust="spacing" textLength="149" x="296.5" y="268.1018">- description available</text><text fill="#000000" font-family="sans-serif" font-size="14" lengthAdjust="spacing" textLength="105" x="296.5" y="287.1697">- code available</text><text fill="#000000" font-family="sans-serif" font-size="14" lengthAdjust="spacing" textLength="105" x="296.5" y="306.2376">- tests available</text><text fill="#000000" font-family="sans-serif" font-size="14" lengthAdjust="spacing" textLength="281" x="296.5" y="325.3055">- automatic evaluation parameter defined</text><text fill="#000000" font-family="sans-serif" font-size="14" lengthAdjust="spacing" textLength="334" x="296.5" y="344.3734">- [optional] manual evaluation parameter defined</text></g><g id="TOURNAMENT.BADGECREATED"><rect fill="#F1F1F1" height="77.2038" rx="12.5" ry="12.5" style="stroke:#181818;stroke-width:0.5;" width="127" x="607" y="502.0679"/><line style="stroke:#181818;stroke-width:0.5;" x1="607" x2="734" y1="531.1358" y2="531.1358"/><text fill="#000000" font-family="sans-serif" font-size="14" lengthAdjust="spacing" textLength="107" x="617" y="522.0339">BADGECREATED</text><text fill="#000000" font-family="sans-serif" font-size="14" lengthAdjust="spacing" textLength="71" x="612" y="551.1018">- name set</text><text fill="#000000" font-family="sans-serif" font-size="14" lengthAdjust="spacing" textLength="104" x="612" y="570.1697">- rule/s defined</text></g><g id="TOURNAMENT.ONLINE"><rect fill="#F1F1F1" height="58.1358" rx="12.5" ry="12.5" style="stroke:#181818;stroke-width:0.5;" width="347" x="191" y="634.0679"/><line style="stroke:#181818;stroke-width:0.5;" x1="191" x2="538" y1="663.1358" y2="663.1358"/><text fill="#000000" font-family="sans-serif" font-size="14" lengthAdjust="spacing" textLength="53" x="338" y="654.0339">ONLINE</text><text fill="#000000" font-family="sans-serif" font-size="14" lengthAdjust="spacing" textLength="327" x="196" y="683.1018">- students subscribe to the tournament in teams</text></g><g id="TOURNAMENT.STARTED"><rect fill="#F1F1F1" height="77.2038" rx="12.5" ry="12.5" style="stroke:#181818;stroke-width:0.5;" width="309" x="210" y="747.0679"/><line style="stroke:#181818;stroke-width:0.5;" x1="210" x2="519" y1="776.1358" y2="776.1358"/><text fill="#000000" font-family="sans-serif" font-size="14" lengthAdjust="spacing" textLength="60" x="334.5" y="767.0339">STARTED</text><text fill="#000000" font-family="sans-serif" font-size="14" lengthAdjust="spacing" textLength="223" x="215" y="796.1018">- all the battles are now available</text><text fill="#000000" font-family="sans-serif" font-size="14" lengthAdjust="spacing" textLength="289" x="215" y="815.1697">- tournament score and rank now available</text></g><g id="TOURNAMENT.OFFLINE"><rect fill="#F1F1F1" height="96.2717" rx="12.5" ry="12.5" style="stroke:#181818;stroke-width:0.5;" width="308" x="831.5" y="1007.5679"/><line style="stroke:#181818;stroke-width:0.5;" x1="831.5" x2="1139.5" y1="1036.6358" y2="1036.6358"/><text fill="#000000" font-family="sans-serif" font-size="14" lengthAdjust="spacing" textLength="56" x="957.5" y="1027.5339">OFFLINE</text><text fill="#000000" font-family="sans-serif" font-size="14" lengthAdjust="spacing" textLength="269" x="836.5" y="1056.6018">- it is no more possible complete battles</text><text fill="#000000" font-family="sans-serif" font-size="14" lengthAdjust="spacing" textLength="288" x="836.5" y="1075.6697">- tournament score and rank are ultimated</text><text fill="#000000" font-family="sans-serif" font-size="14" lengthAdjust="spacing" textLength="244" x="836.5" y="1094.7376">- badges are assigned automatically</text></g><ellipse cx="1167.5" cy="1055.5679" fill="none" rx="10" ry="10" style="stroke:#222222;stroke-width:1.0;"/><ellipse cx="1168" cy="1056.0679" fill="#222222" rx="6" ry="6" style="stroke:none;stroke-width:1.0;"/><path d="M31.5,879.0679 L697.5,879.0679 A12.5,12.5 0 0 1 710,891.5679 L710,908.1358 L19,908.1358 L19,891.5679 A12.5,12.5 0 0 1 31.5,879.0679 " fill="#F1F1F1" style="stroke:#F1F1F1;stroke-width:1.0;"/><rect fill="none" height="353.2038" rx="12.5" ry="12.5" style="stroke:#181818;stroke-width:0.5;" width="691" x="19" y="879.0679"/><line style="stroke:#181818;stroke-width:0.5;" x1="19" x2="710" y1="908.1358" y2="908.1358"/><text fill="#000000" font-family="sans-serif" font-size="14" lengthAdjust="spacing" textLength="49" x="340" y="899.0339">BATTLE</text><ellipse cx="172.5" cy="929.1358" fill="#222222" rx="10" ry="10" style="stroke:none;stroke-width:1.0;"/><g id="TOURNAMENT.BATTLE.ACCESSIBLE"><rect fill="#F1F1F1" height="115.3396" rx="12.5" ry="12.5" style="stroke:#181818;stroke-width:0.5;" width="243" x="51" y="994.1358"/><line style="stroke:#181818;stroke-width:0.5;" x1="51" x2="294" y1="1023.2038" y2="1023.2038"/><text fill="#000000" font-family="sans-serif" font-size="14" lengthAdjust="spacing" textLength="80" x="132.5" y="1014.1018">ACCESSIBLE</text><text fill="#000000" font-family="sans-serif" font-size="14" lengthAdjust="spacing" textLength="223" x="56" y="1043.1697">- students do the fork of the repo</text><text fill="#000000" font-family="sans-serif" font-size="14" lengthAdjust="spacing" textLength="152" x="56" y="1062.2376">- battle score available</text><text fill="#000000" font-family="sans-serif" font-size="14" lengthAdjust="spacing" textLength="206" x="56" y="1081.3055">- completation status available</text><text fill="#000000" font-family="sans-serif" font-size="14" lengthAdjust="spacing" textLength="209" x="56" y="1100.3734">- automatic evaluation enabled</text></g><g id="TOURNAMENT.BATTLE.MANUALEVALUATED"><rect fill="#F1F1F1" height="58.1358" rx="12.5" ry="12.5" style="stroke:#181818;stroke-width:0.5;" width="285" x="31" y="1164.1358"/><line style="stroke:#181818;stroke-width:0.5;" x1="31" x2="316" y1="1193.2038" y2="1193.2038"/><text fill="#000000" font-family="sans-serif" font-size="14" lengthAdjust="spacing" textLength="136" x="105.5" y="1184.1018">MANUALEVALUATED</text><text fill="#000000" font-family="sans-serif" font-size="14" lengthAdjust="spacing" textLength="265" x="36" y="1213.1697">- an educator evaluate the code written</text></g><g id="TOURNAMENT.BATTLE.CLOSED"><rect fill="#F1F1F1" height="77.2038" rx="12.5" ry="12.5" style="stroke:#181818;stroke-width:0.5;" width="285" x="416" y="1013.1358"/><line style="stroke:#181818;stroke-width:0.5;" x1="416" x2="701" y1="1042.2038" y2="1042.2038"/><text fill="#000000" font-family="sans-serif" font-size="14" lengthAdjust="spacing" textLength="53" x="532" y="1033.1018">CLOSED</text><text fill="#000000" font-family="sans-serif" font-size="14" lengthAdjust="spacing" textLength="265" x="421" y="1062.1697">- it is no more possible modify the code</text><text fill="#000000" font-family="sans-serif" font-size="14" lengthAdjust="spacing" textLength="198" x="421" y="1081.2376">- the battle score is ultimated</text></g><ellipse cx="558.5" cy="1193.1358" fill="none" rx="10" ry="10" style="stroke:#222222;stroke-width:1.0;"/><ellipse cx="559" cy="1193.6358" fill="#222222" rx="6" ry="6" style="stroke:none;stroke-width:1.0;"/><!--MD5=[e82b03a28b4b0e8e2fdb7abbb302e1fd]
link *start*BATTLE to ACCESSIBLE--><g id="link_*start*BATTLE_ACCESSIBLE"><path d="M172.5,939.1958 C172.5,950.0458 172.5,969.2158 172.5,988.6358 " fill="none" id="*start*BATTLE-to-ACCESSIBLE" style="stroke:#181818;stroke-width:1.0;"/><polygon fill="#181818" points="172.5,994.1058,176.5,985.1058,172.5,989.1058,168.5,985.1058,172.5,994.1058" style="stroke:#181818;stroke-width:1.0;"/><text fill="#000000" font-family="sans-serif" font-size="13" lengthAdjust="spacing" textLength="99" x="173.5" y="972.0328">RMP repo online</text></g><!--MD5=[ecfc50a5231f07af166dcaafee0e191e]
link ACCESSIBLE to MANUALEVALUATED--><g id="link_ACCESSIBLE_MANUALEVALUATED"><path d="M72.7,1109.2358 C64.4,1120.5558 62,1133.0358 70.5,1146.1358 C74.07,1151.6358 78.46,1156.4858 83.41,1160.7558 " fill="none" id="ACCESSIBLE-to-MANUALEVALUATED" style="stroke:#181818;stroke-width:1.0;"/><polygon fill="#181818" points="87.29,1163.9158,82.8079,1155.146,83.4024,1160.7715,77.7769,1161.3661,87.29,1163.9158" style="stroke:#181818;stroke-width:1.0;"/><text fill="#000000" font-family="sans-serif" font-size="13" lengthAdjust="spacing" textLength="190" x="71.5" y="1142.0328">[optional] educator's evaluation</text></g><!--MD5=[3a93543e646454490b6c997ca1fc8895]
link MANUALEVALUATED to ACCESSIBLE--><g id="link_MANUALEVALUATED_ACCESSIBLE"><path d="M246.51,1163.8558 C252.8,1158.8358 258.34,1152.9658 262.5,1146.1358 C269.37,1134.8558 268.37,1123.8358 262.75,1113.5558 " fill="none" id="MANUALEVALUATED-to-ACCESSIBLE" style="stroke:#181818;stroke-width:1.0;"/><polygon fill="#181818" points="260.07,1109.1958,261.3711,1118.9584,262.6865,1113.4566,268.1883,1114.772,260.07,1109.1958" style="stroke:#181818;stroke-width:1.0;"/></g><!--MD5=[91757e9636e7cc7a3199143b5731570f]
link ACCESSIBLE to CLOSED--><g id="link_ACCESSIBLE_CLOSED"><path d="M294.1,1051.6358 C331.11,1051.6358 372.2,1051.6358 410.74,1051.6358 " fill="none" id="ACCESSIBLE-to-CLOSED" style="stroke:#181818;stroke-width:1.0;"/><polygon fill="#181818" points="415.91,1051.6358,406.91,1047.6358,410.91,1051.6358,406.91,1055.6358,415.91,1051.6358" style="stroke:#181818;stroke-width:1.0;"/><text fill="#000000" font-family="sans-serif" font-size="13" lengthAdjust="spacing" textLength="102" x="304" y="1044.5328">deadline reached</text></g><!--MD5=[bd0ce960e416f66f0ecd46ced91913ca]
link CLOSED to *end*BATTLE--><g id="link_CLOSED_*end*BATTLE"><path d="M558.5,1090.3858 C558.5,1119.2758 558.5,1157.5158 558.5,1177.8958 " fill="none" id="CLOSED-to-*end*BATTLE" style="stroke:#181818;stroke-width:1.0;"/><polygon fill="#181818" points="558.5,1182.9158,562.5,1173.9158,558.5,1177.9158,554.5,1173.9158,558.5,1182.9158" style="stroke:#181818;stroke-width:1.0;"/></g><!--MD5=[0202db916e16442f7cb592d8402a7977]
link *start*TOURNAMENT to CREATED--><g id="link_*start*TOURNAMENT_CREATED"><path d="M395.65,115.0679 C409.47,115.0679 435.18,115.0679 458.68,115.0679 " fill="none" id="*start*TOURNAMENT-to-CREATED" style="stroke:#181818;stroke-width:1.0;"/><polygon fill="#181818" points="463.97,115.0679,454.97,111.0679,458.97,115.0679,454.97,119.0679,463.97,115.0679" style="stroke:#181818;stroke-width:1.0;"/><text fill="#000000" font-family="sans-serif" font-size="13" lengthAdjust="spacing" textLength="49" x="405.25" y="107.9649">creation</text></g><!--MD5=[d1fe89e512ffad75915bf07c628122b8]
link CREATED to DEFINED--><g id="link_CREATED_DEFINED"><path d="M555.08,115.0679 C571.45,115.0679 591.03,115.0679 611.77,115.0679 " fill="none" id="CREATED-to-DEFINED" style="stroke:#181818;stroke-width:1.0;"/><polygon fill="#181818" points="616.78,115.0679,607.78,111.0679,611.78,115.0679,607.78,119.0679,616.78,115.0679" style="stroke:#181818;stroke-width:1.0;"/><text fill="#000000" font-family="sans-serif" font-size="13" lengthAdjust="spacing" textLength="42" x="565" y="107.9649">setting</text></g><!--MD5=[c90b9c5de838bf994479fcca5438223a]
link DEFINED to c--><g id="link_DEFINED_c"><path d="M785.5,182.3779 C785.5,213.8179 785.5,248.7879 785.5,268.7379 " fill="none" id="DEFINED-to-c" style="stroke:#181818;stroke-width:1.0;"/><polygon fill="#181818" points="785.5,273.9479,789.5,264.9479,785.5,268.9479,781.5,264.9479,785.5,273.9479" style="stroke:#181818;stroke-width:1.0;"/></g><!--MD5=[0d81bf5fe050032dfd578b2ccbb6b767]
link c to EDUCATORADDED--><g id="link_c_EDUCATORADDED"><path d="M786.41,297.1779 C788.11,322.7579 788.85,390.6779 753.5,428.0679 C717.66,465.9679 592.52,497.4179 493.73,517.1479 " fill="none" id="c-to-EDUCATORADDED" style="stroke:#181818;stroke-width:1.0;"/><polygon fill="#181818" points="488.75,518.1379,498.356,520.3114,493.6545,517.1656,496.8003,512.4641,488.75,518.1379" style="stroke:#181818;stroke-width:1.0;"/><text fill="#000000" font-family="sans-serif" font-size="13" lengthAdjust="spacing" textLength="99" x="767.5" y="423.9649">adding educator</text></g><!--MD5=[d37a15eae56a556285fba94bff3b012a]
reverse link BATTLECREATED to c--><g id="link_BATTLECREATED_c"><path d="M650.61,286.0679 C702.89,286.0679 751.66,286.0679 773.49,286.0679 " fill="none" id="BATTLECREATED-backto-c" style="stroke:#181818;stroke-width:1.0;"/><polygon fill="#181818" points="645.54,286.0679,654.54,290.0679,650.54,286.0679,654.54,282.0679,645.54,286.0679" style="stroke:#181818;stroke-width:1.0;"/><text fill="#000000" font-family="sans-serif" font-size="13" lengthAdjust="spacing" textLength="87" x="666" y="278.9649">creating battle</text></g><!--MD5=[f36c583a41ec79778bf9a31eba1fcd05]
link c to BADGECREATED--><g id="link_c_BADGECREATED"><path d="M792.88,291.1879 C821.17,307.5479 919.49,369.7979 887.5,428.0679 C857.59,482.5579 790.65,511.2179 738.97,525.7579 " fill="none" id="c-to-BADGECREATED" style="stroke:#181818;stroke-width:1.0;"/><polygon fill="#181818" points="734.02,527.1179,743.7598,528.5796,738.8398,525.7878,741.6316,520.8679,734.02,527.1179" style="stroke:#181818;stroke-width:1.0;"/><text fill="#000000" font-family="sans-serif" font-size="13" lengthAdjust="spacing" textLength="90" x="894.5" y="423.9649">defining badge</text></g><!--MD5=[c527fef433bc7a950d734fcbf16cb14e]
reverse link BATTLECREATED to EDUCATORADDED--><g id="link_BATTLECREATED_EDUCATORADDED"><path d="M449.23,358.0879 C442.31,380.7779 433.87,405.7779 424.5,428.0679 C412.14,457.4479 394.54,489.3179 381.59,511.4279 " fill="none" id="BATTLECREATED-backto-EDUCATORADDED" style="stroke:#181818;stroke-width:1.0;"/><polygon fill="#181818" points="450.68,353.2879,444.2523,360.7502,449.2367,358.0751,451.9118,363.0594,450.68,353.2879" style="stroke:#181818;stroke-width:1.0;"/><text fill="#000000" font-family="sans-serif" font-size="13" lengthAdjust="spacing" textLength="87" x="432.5" y="423.9649">creating battle</text></g><!--MD5=[2cc3aec23693bf4f84bbb1392607c450]
link BATTLECREATED to EDUCATORADDED--><g id="link_BATTLECREATED_EDUCATORADDED"><path d="M362.69,353.1979 C345.2,369.2079 329.52,387.9179 319.5,409.0679 C304.21,441.3479 321.97,480.2679 339.49,507.1579 " fill="none" id="BATTLECREATED-to-EDUCATORADDED" style="stroke:#181818;stroke-width:1.0;"/><polygon fill="#181818" points="342.29,511.3679,340.6259,501.6607,339.5165,507.2077,333.9695,506.0983,342.29,511.3679" style="stroke:#181818;stroke-width:1.0;"/><text fill="#000000" font-family="sans-serif" font-size="13" lengthAdjust="spacing" textLength="99" x="320.5" y="423.9649">adding educator</text></g><!--MD5=[ab2f03971bbced2ea50bf11740b81aa9]
link EDUCATORADDED to BADGECREATED--><g id="link_EDUCATORADDED_BADGECREATED"><path d="M488.77,563.1479 C522.87,566.4479 559.8,567.3379 593.75,562.5679 C596.28,562.2179 598.84,561.7979 601.41,561.3279 " fill="none" id="EDUCATORADDED-to-BADGECREATED" style="stroke:#181818;stroke-width:1.0;"/><polygon fill="#181818" points="606.71,560.2879,597.1113,558.0823,601.8022,561.2438,598.6407,565.9347,606.71,560.2879" style="stroke:#181818;stroke-width:1.0;"/><text fill="#000000" font-family="sans-serif" font-size="13" lengthAdjust="spacing" textLength="90" x="502.75" y="558.4649">defining badge</text></g><!--MD5=[e342ecae9c8ae8b077f49766a9fe6eb3]
reverse link EDUCATORADDED to BADGECREATED--><g id="link_EDUCATORADDED_BADGECREATED"><path d="M493.77,540.5679 C532.82,540.5679 573.99,540.5679 606.76,540.5679 " fill="none" id="EDUCATORADDED-backto-BADGECREATED" style="stroke:#181818;stroke-width:1.0;"/><polygon fill="#181818" points="488.52,540.5679,497.52,544.5679,493.52,540.5679,497.52,536.5679,488.52,540.5679" style="stroke:#181818;stroke-width:1.0;"/><text fill="#000000" font-family="sans-serif" font-size="13" lengthAdjust="spacing" textLength="99" x="498.25" y="533.4649">adding educator</text></g><!--MD5=[c757f7e4fe0eedba77177510f1c9e12e]
link BATTLECREATED to BADGECREATED--><g id="link_BATTLECREATED_BADGECREATED"><path d="M595.15,353.2279 C615.7,369.0179 634.73,387.6279 648.5,409.0679 C665.15,434.9779 670.39,469.5479 671.61,496.5879 " fill="none" id="BATTLECREATED-to-BADGECREATED" style="stroke:#181818;stroke-width:1.0;"/><polygon fill="#181818" points="671.81,501.8879,675.4722,492.7453,671.6239,496.8914,667.4778,493.043,671.81,501.8879" style="stroke:#181818;stroke-width:1.0;"/><text fill="#000000" font-family="sans-serif" font-size="13" lengthAdjust="spacing" textLength="90" x="658.5" y="423.9649">defining badge</text></g><!--MD5=[98d1b9b80aca355c1cbb78901a03c30a]
reverse link BATTLECREATED to BADGECREATED--><g id="link_BATTLECREATED_BADGECREATED"><path d="M507.29,357.5279 C521.31,380.8279 538.03,406.3279 555.5,428.0679 C576.84,454.6279 604.09,481.2979 626.7,501.8879 " fill="none" id="BATTLECREATED-backto-BADGECREATED" style="stroke:#181818;stroke-width:1.0;"/><polygon fill="#181818" points="504.7,353.2079,505.8861,362.9851,507.2662,357.4992,512.7521,358.8792,504.7,353.2079" style="stroke:#181818;stroke-width:1.0;"/><text fill="#000000" font-family="sans-serif" font-size="13" lengthAdjust="spacing" textLength="87" x="556.5" y="423.9649">creating battle</text></g><!--MD5=[30dc003365c67fccf8401654f9c18d4e]
link EDUCATORADDED to ONLINE--><g id="link_EDUCATORADDED_ONLINE"><path d="M364.5,569.8179 C364.5,587.4979 364.5,610.3479 364.5,628.8879 " fill="none" id="EDUCATORADDED-to-ONLINE" style="stroke:#181818;stroke-width:1.0;"/><polygon fill="#181818" points="364.5,633.9979,368.5,624.9979,364.5,628.9979,360.5,624.9979,364.5,633.9979" style="stroke:#181818;stroke-width:1.0;"/><text fill="#000000" font-family="sans-serif" font-size="13" lengthAdjust="spacing" textLength="143" x="365.5" y="611.9649">tournament publication</text></g><!--MD5=[6a4d073685e104f9b58f9a618db649ea]
link BATTLECREATED to ONLINE--><g id="link_BATTLECREATED_ONLINE"><path d="M291.28,314.4479 C217.85,330.9579 149.5,355.5879 149.5,390.0679 C149.5,390.0679 149.5,390.0679 149.5,541.5679 C149.5,586.0479 184.96,614.2779 227.07,632.1179 " fill="none" id="BATTLECREATED-to-ONLINE" style="stroke:#181818;stroke-width:1.0;"/><polygon fill="#181818" points="231.7,634.0279,224.912,626.8919,227.0796,632.117,221.8545,634.2846,231.7,634.0279" style="stroke:#181818;stroke-width:1.0;"/><text fill="#000000" font-family="sans-serif" font-size="13" lengthAdjust="spacing" textLength="143" x="150.5" y="460.9649">tournament publication</text></g><!--MD5=[5b8a8b30f29508617935f11c7a7176c8]
link BADGECREATED to ONLINE--><g id="link_BADGECREATED_ONLINE"><path d="M606.87,574.3179 C578.67,588.1579 544.85,603.8679 513.5,616.0679 C498.75,621.8079 482.97,627.3279 467.4,632.4279 " fill="none" id="BADGECREATED-to-ONLINE" style="stroke:#181818;stroke-width:1.0;"/><polygon fill="#181818" points="462.57,633.9879,472.365,635.0163,467.3261,632.4454,469.897,627.4065,462.57,633.9879" style="stroke:#181818;stroke-width:1.0;"/><text fill="#000000" font-family="sans-serif" font-size="13" lengthAdjust="spacing" textLength="143" x="557.5" y="611.9649">tournament publication</text></g><!--MD5=[ae1a8089f86b6c29439bd78b3bff7c45]
link ONLINE to STARTED--><g id="link_ONLINE_STARTED"><path d="M364.5,692.3179 C364.5,707.0679 364.5,725.4279 364.5,741.8779 " fill="none" id="ONLINE-to-STARTED" style="stroke:#181818;stroke-width:1.0;"/><polygon fill="#181818" points="364.5,746.9079,368.5,737.9079,364.5,741.9079,360.5,737.9079,364.5,746.9079" style="stroke:#181818;stroke-width:1.0;"/><text fill="#000000" font-family="sans-serif" font-size="13" lengthAdjust="spacing" textLength="175" x="365.5" y="724.9649">deadline for subscription met</text></g><!--MD5=[d536dc08aaccae1f4861fcda2056a29c]
link STARTED to BATTLE--><g id="link_STARTED_BATTLE"><path d="M364.5,824.1179 C364.5,838.2079 364.5,855.3179 364.5,873.7879 " fill="none" id="STARTED-to-BATTLE" style="stroke:#181818;stroke-width:1.0;"/><polygon fill="#181818" points="364.5,879.0379,368.5,870.0379,364.5,874.0379,360.5,870.0379,364.5,879.0379" style="stroke:#181818;stroke-width:1.0;"/><text fill="#000000" font-family="sans-serif" font-size="13" lengthAdjust="spacing" textLength="81" x="365.5" y="856.9649">battles online</text></g><!--MD5=[aca3fcf8b8777d1f1918d22252c09c71]
link BATTLE to OFFLINE--><g id="link_BATTLE_OFFLINE"><path d="M710.41,1055.5679 C750.62,1055.5679 790.04,1055.5679 825.9,1055.5679 " fill="none" id="BATTLE-to-OFFLINE" style="stroke:#181818;stroke-width:1.0;"/><polygon fill="#181818" points="831.16,1055.5679,822.16,1051.5679,826.16,1055.5679,822.16,1059.5679,831.16,1055.5679" style="stroke:#181818;stroke-width:1.0;"/><text fill="#000000" font-family="sans-serif" font-size="13" lengthAdjust="spacing" textLength="102" x="719.75" y="1048.4649">deadline reached</text></g><!--MD5=[89a54afab13553928f41ded4c87c93be]
link OFFLINE to *end*TOURNAMENT--><g id="link_OFFLINE_*end*TOURNAMENT"><path d="M1139.77,1055.5679 C1143.83,1055.5679 1147.9,1055.5679 1151.96,1055.5679 " fill="none" id="OFFLINE-to-*end*TOURNAMENT" style="stroke:#181818;stroke-width:1.0;"/><polygon fill="#181818" points="1157.1,1055.5679,1148.1,1051.5679,1152.1,1055.5679,1148.1,1059.5679,1157.1,1055.5679" style="stroke:#181818;stroke-width:1.0;"/></g><!--MD5=[b2968118513c876549cc561affe56173]
@startuml



state TOURNAMENT{
    [*] -right-> CREATED: creation

    CREATED: - name set

    CREATED -right-> DEFINED: setting

    DEFINED: - programming language/s set
    DEFINED: - outline available
    DEFINED: - max and min number of student per team set
    DEFINED: - duration set
    DEFINED: - deadline for subscription set

    state c <<choice>>

    DEFINED -down-> c

    c -down- - -> EDUCATORADDED: adding educator

    EDUCATORADDED: - new educator in the tournament

    c -left-> BATTLECREATED: creating battle

    BATTLECREATED: - description available
    BATTLECREATED: - code available
    BATTLECREATED: - tests available
    BATTLECREATED: - automatic evaluation parameter defined
    BATTLECREATED: - [optional] manual evaluation parameter defined

    c -right-> BADGECREATED: defining badge

    BADGECREATED: - name set
    BADGECREATED: - rule/s defined

    EDUCATORADDED -left-> BATTLECREATED: creating battle
    BATTLECREATED -right-> EDUCATORADDED: adding educator
    EDUCATORADDED -right-> BADGECREATED: defining badge
    BADGECREATED -left-> EDUCATORADDED: adding educator
    BATTLECREATED -right-> BADGECREATED: defining badge
    BADGECREATED -left-> BATTLECREATED: creating battle

    EDUCATORADDED -down-> ONLINE: tournament publication
    BATTLECREATED -down-> ONLINE: tournament publication
    BADGECREATED -down-> ONLINE: tournament publication

    ONLINE: - students subscribe to the tournament in teams

    ONLINE - -> STARTED: deadline for subscription met

    STARTED: - all the battles are now available
    STARTED: - tournament score and rank now available

    STARTED - -> BATTLE: battles online

    state BATTLE{
        [*] - -> ACCESSIBLE: RMP repo online

        ACCESSIBLE: - students do the fork of the repo
        ACCESSIBLE: - battle score available
        ACCESSIBLE: - completation status available
        ACCESSIBLE: - automatic evaluation enabled

        ACCESSIBLE - -> MANUALEVALUATED: [optional] educator's evaluation

        MANUALEVALUATED: - an educator evaluate the code written

        MANUALEVALUATED - -> ACCESSIBLE
        ACCESSIBLE -right-> CLOSED: deadline reached

        CLOSED: - it is no more possible modify the code
        CLOSED: - the battle score is ultimated

        CLOSED - -> [*]
    }

    BATTLE -right-> OFFLINE: deadline reached

    OFFLINE: - it is no more possible complete battles
    OFFLINE: - tournament score and rank are ultimated
    OFFLINE: - badges are assigned automatically

    OFFLINE -right-> [*]
}

@enduml

PlantUML version 1.2022.7(Mon Aug 22 19:01:30 CEST 2022)
(GPL source distribution)
Java Runtime: Java(TM) SE Runtime Environment
JVM: Java HotSpot(TM) 64-Bit Server VM
Default Encoding: UTF-8
Language: en
Country: US
--></g></svg>