<?xml version="1.0" encoding="UTF-8" standalone="no"?><svg xmlns="http://www.w3.org/2000/svg" xmlns:xlink="http://www.w3.org/1999/xlink" contentStyleType="text/css" height="1156px" preserveAspectRatio="none" style="width:1231px;height:1156px;background:#FFFFFF;" version="1.1" viewBox="0 0 1231 1156" width="1231px" zoomAndPan="magnify"><defs/><g><path d="M19.5,7 L1205,7 A12.5,12.5 0 0 1 1217.5,19.5 L1217.5,33.2969 L7,33.2969 L7,19.5 A12.5,12.5 0 0 1 19.5,7 " fill="#F1F1F1" style="stroke:#F1F1F1;stroke-width:1.0;"/><rect fill="none" height="1143.1875" rx="12.5" ry="12.5" style="stroke:#181818;stroke-width:0.5;" width="1210.5" x="7" y="7"/><line style="stroke:#181818;stroke-width:0.5;" x1="7" x2="1217.5" y1="33.2969" y2="33.2969"/><text fill="#000000" font-family="sans-serif" font-size="14" lengthAdjust="spacing" textLength="99" x="562.75" y="24.9951">TOURNAMENT</text><ellipse cx="401.5" cy="104.2969" fill="#222222" rx="10" ry="10" style="stroke:none;stroke-width:1.0;"/><g id="TOURNAMENT.CREATED"><rect fill="#F1F1F1" height="52.5938" rx="12.5" ry="12.5" style="stroke:#181818;stroke-width:0.5;" width="94" x="483.5" y="77.7969"/><line style="stroke:#181818;stroke-width:0.5;" x1="483.5" x2="577.5" y1="104.0938" y2="104.0938"/><text fill="#000000" font-family="sans-serif" font-size="14" lengthAdjust="spacing" textLength="67" x="497" y="95.792">CREATED</text><text fill="#000000" font-family="sans-serif" font-size="14" lengthAdjust="spacing" textLength="74" x="488.5" y="122.0889">- name set</text></g><g id="TOURNAMENT.DEFINED"><rect fill="#F1F1F1" height="117.7813" rx="12.5" ry="12.5" style="stroke:#181818;stroke-width:0.5;" width="341" x="641" y="45.2969"/><line style="stroke:#181818;stroke-width:0.5;" x1="641" x2="982" y1="71.5938" y2="71.5938"/><text fill="#000000" font-family="sans-serif" font-size="14" lengthAdjust="spacing" textLength="61" x="781" y="63.292">DEFINED</text><text fill="#000000" font-family="sans-serif" font-size="14" lengthAdjust="spacing" textLength="208" x="646" y="89.5889">- programming language/s set</text><text fill="#000000" font-family="sans-serif" font-size="14" lengthAdjust="spacing" textLength="118" x="646" y="105.8857">- outline available</text><text fill="#000000" font-family="sans-serif" font-size="14" lengthAdjust="spacing" textLength="321" x="646" y="122.1826">- max and min number of student per team set</text><text fill="#000000" font-family="sans-serif" font-size="14" lengthAdjust="spacing" textLength="92" x="646" y="138.4795">- duration set</text><text fill="#000000" font-family="sans-serif" font-size="14" lengthAdjust="spacing" textLength="205" x="646" y="154.7764">- deadline for subscription set</text></g><g id="elem_c"><polygon fill="#F1F1F1" points="811.5,247.2969,823.5,259.2969,811.5,271.2969,799.5,259.2969,811.5,247.2969" style="stroke:#181818;stroke-width:0.5;"/></g><g id="TOURNAMENT.EDUCATORADDED"><rect fill="#F1F1F1" height="52.5938" rx="12.5" ry="12.5" style="stroke:#181818;stroke-width:0.5;" width="252" x="248.5" y="471.2969"/><line style="stroke:#181818;stroke-width:0.5;" x1="248.5" x2="500.5" y1="497.5938" y2="497.5938"/><text fill="#000000" font-family="sans-serif" font-size="14" lengthAdjust="spacing" textLength="130" x="309.5" y="489.292">EDUCATORADDED</text><text fill="#000000" font-family="sans-serif" font-size="14" lengthAdjust="spacing" textLength="232" x="253.5" y="515.5889">- new educator in the tournament</text></g><g id="TOURNAMENT.BATTLECREATED"><rect fill="#F1F1F1" height="117.7813" rx="12.5" ry="12.5" style="stroke:#181818;stroke-width:0.5;" width="353" x="307" y="200.2969"/><line style="stroke:#181818;stroke-width:0.5;" x1="307" x2="660" y1="226.5938" y2="226.5938"/><text fill="#000000" font-family="sans-serif" font-size="14" lengthAdjust="spacing" textLength="120" x="423.5" y="218.292">BATTLECREATED</text><text fill="#000000" font-family="sans-serif" font-size="14" lengthAdjust="spacing" textLength="148" x="312" y="244.5889">- description available</text><text fill="#000000" font-family="sans-serif" font-size="14" lengthAdjust="spacing" textLength="106" x="312" y="260.8857">- code available</text><text fill="#000000" font-family="sans-serif" font-size="14" lengthAdjust="spacing" textLength="106" x="312" y="277.1826">- tests available</text><text fill="#000000" font-family="sans-serif" font-size="14" lengthAdjust="spacing" textLength="282" x="312" y="293.4795">- automatic evaluation parameter defined</text><text fill="#000000" font-family="sans-serif" font-size="14" lengthAdjust="spacing" textLength="333" x="312" y="309.7764">- [optional] manual evaluation parameter defined</text></g><g id="TOURNAMENT.BADGECREATED"><rect fill="#F1F1F1" height="68.8906" rx="12.5" ry="12.5" style="stroke:#181818;stroke-width:0.5;" width="137" x="624" y="463.2969"/><line style="stroke:#181818;stroke-width:0.5;" x1="624" x2="761" y1="489.5938" y2="489.5938"/><text fill="#000000" font-family="sans-serif" font-size="14" lengthAdjust="spacing" textLength="117" x="634" y="481.292">BADGECREATED</text><text fill="#000000" font-family="sans-serif" font-size="14" lengthAdjust="spacing" textLength="74" x="629" y="507.5889">- name set</text><text fill="#000000" font-family="sans-serif" font-size="14" lengthAdjust="spacing" textLength="104" x="629" y="523.8857">- rule/s defined</text></g><g id="TOURNAMENT.ONLINE"><rect fill="#F1F1F1" height="52.5938" rx="12.5" ry="12.5" style="stroke:#181818;stroke-width:0.5;" width="356" x="196.5" y="585.2969"/><line style="stroke:#181818;stroke-width:0.5;" x1="196.5" x2="552.5" y1="611.5938" y2="611.5938"/><text fill="#000000" font-family="sans-serif" font-size="14" lengthAdjust="spacing" textLength="50" x="349.5" y="603.292">ONLINE</text><text fill="#000000" font-family="sans-serif" font-size="14" lengthAdjust="spacing" textLength="336" x="201.5" y="629.5889">- students subscribe to the tournament in teams</text></g><g id="TOURNAMENT.STARTED"><rect fill="#F1F1F1" height="68.8906" rx="12.5" ry="12.5" style="stroke:#181818;stroke-width:0.5;" width="312" x="218.5" y="691.2969"/><line style="stroke:#181818;stroke-width:0.5;" x1="218.5" x2="530.5" y1="717.5938" y2="717.5938"/><text fill="#000000" font-family="sans-serif" font-size="14" lengthAdjust="spacing" textLength="66" x="341.5" y="709.292">STARTED</text><text fill="#000000" font-family="sans-serif" font-size="14" lengthAdjust="spacing" textLength="222" x="223.5" y="735.5889">- all the battles are now available</text><text fill="#000000" font-family="sans-serif" font-size="14" lengthAdjust="spacing" textLength="292" x="223.5" y="751.8857">- tournament score and rank now available</text></g><g id="TOURNAMENT.OFFLINE"><rect fill="#F1F1F1" height="85.1875" rx="12.5" ry="12.5" style="stroke:#181818;stroke-width:0.5;" width="311" x="860" y="934.2969"/><line style="stroke:#181818;stroke-width:0.5;" x1="860" x2="1171" y1="960.5938" y2="960.5938"/><text fill="#000000" font-family="sans-serif" font-size="14" lengthAdjust="spacing" textLength="56" x="987.5" y="952.292">OFFLINE</text><text fill="#000000" font-family="sans-serif" font-size="14" lengthAdjust="spacing" textLength="276" x="865" y="978.5889">- it is no more possible complete battles</text><text fill="#000000" font-family="sans-serif" font-size="14" lengthAdjust="spacing" textLength="291" x="865" y="994.8857">- tournament score and rank are ultimated</text><text fill="#000000" font-family="sans-serif" font-size="14" lengthAdjust="spacing" textLength="247" x="865" y="1011.1826">- badges are assigned automatically</text></g><ellipse cx="1199.5" cy="976.7969" fill="none" rx="10" ry="10" style="stroke:#222222;stroke-width:1.0;"/><ellipse cx="1200" cy="977.2969" fill="#222222" rx="6" ry="6" style="stroke:none;stroke-width:1.0;"/><path d="M31.5,813.2969 L717.5,813.2969 A12.5,12.5 0 0 1 730,825.7969 L730,839.5938 L19,839.5938 L19,825.7969 A12.5,12.5 0 0 1 31.5,813.2969 " fill="#F1F1F1" style="stroke:#F1F1F1;stroke-width:1.0;"/><rect fill="none" height="326.8906" rx="12.5" ry="12.5" style="stroke:#181818;stroke-width:0.5;" width="711" x="19" y="813.2969"/><line style="stroke:#181818;stroke-width:0.5;" x1="19" x2="730" y1="839.5938" y2="839.5938"/><text fill="#000000" font-family="sans-serif" font-size="14" lengthAdjust="spacing" textLength="53" x="348" y="831.292">BATTLE</text><ellipse cx="175.5" cy="860.5938" fill="#222222" rx="10" ry="10" style="stroke:none;stroke-width:1.0;"/><g id="TOURNAMENT.BATTLE.ACCESSIBLE"><rect fill="#F1F1F1" height="101.4844" rx="12.5" ry="12.5" style="stroke:#181818;stroke-width:0.5;" width="250" x="50.5" y="923.5938"/><line style="stroke:#181818;stroke-width:0.5;" x1="50.5" x2="300.5" y1="949.8906" y2="949.8906"/><text fill="#000000" font-family="sans-serif" font-size="14" lengthAdjust="spacing" textLength="85" x="133" y="941.5889">ACCESSIBLE</text><text fill="#000000" font-family="sans-serif" font-size="14" lengthAdjust="spacing" textLength="230" x="55.5" y="967.8857">- students do the fork of the repo</text><text fill="#000000" font-family="sans-serif" font-size="14" lengthAdjust="spacing" textLength="153" x="55.5" y="984.1826">- battle score available</text><text fill="#000000" font-family="sans-serif" font-size="14" lengthAdjust="spacing" textLength="208" x="55.5" y="1000.4795">- completation status available</text><text fill="#000000" font-family="sans-serif" font-size="14" lengthAdjust="spacing" textLength="211" x="55.5" y="1016.7764">- automatic evaluation enabled</text></g><g id="TOURNAMENT.BATTLE.MANUALEVALUATED"><rect fill="#F1F1F1" height="52.5938" rx="12.5" ry="12.5" style="stroke:#181818;stroke-width:0.5;" width="291" x="31" y="1077.5938"/><line style="stroke:#181818;stroke-width:0.5;" x1="31" x2="322" y1="1103.8906" y2="1103.8906"/><text fill="#000000" font-family="sans-serif" font-size="14" lengthAdjust="spacing" textLength="139" x="107" y="1095.5889">MANUALEVALUATED</text><text fill="#000000" font-family="sans-serif" font-size="14" lengthAdjust="spacing" textLength="271" x="36" y="1121.8857">- an educator evaluate the code written</text></g><g id="TOURNAMENT.BATTLE.CLOSED"><rect fill="#F1F1F1" height="68.8906" rx="12.5" ry="12.5" style="stroke:#181818;stroke-width:0.5;" width="291" x="430" y="939.5938"/><line style="stroke:#181818;stroke-width:0.5;" x1="430" x2="721" y1="965.8906" y2="965.8906"/><text fill="#000000" font-family="sans-serif" font-size="14" lengthAdjust="spacing" textLength="57" x="547" y="957.5889">CLOSED</text><text fill="#000000" font-family="sans-serif" font-size="14" lengthAdjust="spacing" textLength="271" x="435" y="983.8857">- it is no more possible modify the code</text><text fill="#000000" font-family="sans-serif" font-size="14" lengthAdjust="spacing" textLength="201" x="435" y="1000.1826">- the battle score is ultimated</text></g><ellipse cx="575.5" cy="1104.0938" fill="none" rx="10" ry="10" style="stroke:#222222;stroke-width:1.0;"/><ellipse cx="576" cy="1104.5938" fill="#222222" rx="6" ry="6" style="stroke:none;stroke-width:1.0;"/><!--MD5=[e82b03a28b4b0e8e2fdb7abbb302e1fd]
link *start*BATTLE to ACCESSIBLE--><g id="link_*start*BATTLE_ACCESSIBLE"><path d="M175.5,870.7138 C175.5,881.3638 175.5,899.8738 175.5,918.2438 " fill="none" id="*start*BATTLE-to-ACCESSIBLE" style="stroke:#181818;stroke-width:1.0;"/><polygon fill="#181818" points="175.5,923.4137,179.5,914.4137,175.5,918.4137,171.5,914.4137,175.5,923.4137" style="stroke:#181818;stroke-width:1.0;"/><text fill="#000000" font-family="sans-serif" font-size="13" lengthAdjust="spacing" textLength="102" x="176.5" y="901.6606">RMP repo online</text></g><!--MD5=[ecfc50a5231f07af166dcaafee0e191e]
link ACCESSIBLE to MANUALEVALUATED--><g id="link_ACCESSIBLE_MANUALEVALUATED"><path d="M70.36,1024.6238 C61.51,1035.0338 58.82,1046.7838 67.5,1059.5938 C71.33,1065.2438 76.01,1070.1538 81.27,1074.4238 " fill="none" id="ACCESSIBLE-to-MANUALEVALUATED" style="stroke:#181818;stroke-width:1.0;"/><polygon fill="#181818" points="85.4,1077.5738,80.6887,1068.9249,81.431,1074.5328,75.8231,1075.2752,85.4,1077.5738" style="stroke:#181818;stroke-width:1.0;"/><text fill="#000000" font-family="sans-serif" font-size="13" lengthAdjust="spacing" textLength="202" x="68.5" y="1055.6606">[optional] educator's evaluation</text></g><!--MD5=[3a93543e646454490b6c997ca1fc8895]
link MANUALEVALUATED to ACCESSIBLE--><g id="link_MANUALEVALUATED_ACCESSIBLE"><path d="M254.3,1077.4738 C261.04,1072.5138 266.99,1066.6138 271.5,1059.5938 C278.47,1048.7337 277.33,1038.4538 271.4,1029.0538 " fill="none" id="MANUALEVALUATED-to-ACCESSIBLE" style="stroke:#181818;stroke-width:1.0;"/><polygon fill="#181818" points="268.36,1024.7938,270.3458,1034.4403,271.2702,1028.8595,276.851,1029.784,268.36,1024.7938" style="stroke:#181818;stroke-width:1.0;"/></g><!--MD5=[91757e9636e7cc7a3199143b5731570f]
link ACCESSIBLE to CLOSED--><g id="link_ACCESSIBLE_CLOSED"><path d="M300.69,974.0938 C339.84,974.0938 383.46,974.0938 424.2,974.0938 " fill="none" id="ACCESSIBLE-to-CLOSED" style="stroke:#181818;stroke-width:1.0;"/><polygon fill="#181818" points="429.67,974.0938,420.67,970.0938,424.67,974.0938,420.67,978.0938,429.67,974.0938" style="stroke:#181818;stroke-width:1.0;"/><text fill="#000000" font-family="sans-serif" font-size="13" lengthAdjust="spacing" textLength="110" x="310.25" y="967.1606">deadline reached</text></g><!--MD5=[bd0ce960e416f66f0ecd46ced91913ca]
link CLOSED to *end*BATTLE--><g id="link_CLOSED_*end*BATTLE"><path d="M575.5,1008.7238 C575.5,1034.6338 575.5,1069.1938 575.5,1088.4837 " fill="none" id="CLOSED-to-*end*BATTLE" style="stroke:#181818;stroke-width:1.0;"/><polygon fill="#181818" points="575.5,1093.9538,579.5,1084.9538,575.5,1088.9538,571.5,1084.9538,575.5,1093.9538" style="stroke:#181818;stroke-width:1.0;"/></g><!--MD5=[0202db916e16442f7cb592d8402a7977]
link *start*TOURNAMENT to CREATED--><g id="link_*start*TOURNAMENT_CREATED"><path d="M411.62,104.2969 C425.98,104.2969 453.29,104.2969 478.12,104.2969 " fill="none" id="*start*TOURNAMENT-to-CREATED" style="stroke:#181818;stroke-width:1.0;"/><polygon fill="#181818" points="483.37,104.2969,474.37,100.2969,478.37,104.2969,474.37,108.2969,483.37,104.2969" style="stroke:#181818;stroke-width:1.0;"/><text fill="#000000" font-family="sans-serif" font-size="13" lengthAdjust="spacing" textLength="52" x="421.5" y="97.3638">creation</text></g><!--MD5=[d1fe89e512ffad75915bf07c628122b8]
link CREATED to DEFINED--><g id="link_CREATED_DEFINED"><path d="M577.53,104.2969 C594.38,104.2969 614.52,104.2969 635.8,104.2969 " fill="none" id="CREATED-to-DEFINED" style="stroke:#181818;stroke-width:1.0;"/><polygon fill="#181818" points="640.94,104.2969,631.94,100.2969,635.94,104.2969,631.94,108.2969,640.94,104.2969" style="stroke:#181818;stroke-width:1.0;"/><text fill="#000000" font-family="sans-serif" font-size="13" lengthAdjust="spacing" textLength="44" x="587.25" y="97.3638">setting</text></g><!--MD5=[c90b9c5de838bf994479fcca5438223a]
link DEFINED to c--><g id="link_DEFINED_c"><path d="M811.5,163.5769 C811.5,191.5869 811.5,223.0569 811.5,241.7469 " fill="none" id="DEFINED-to-c" style="stroke:#181818;stroke-width:1.0;"/><polygon fill="#181818" points="811.5,247.1269,815.5,238.1269,811.5,242.1269,807.5,238.1269,811.5,247.1269" style="stroke:#181818;stroke-width:1.0;"/></g><!--MD5=[0d81bf5fe050032dfd578b2ccbb6b767]
link c to EDUCATORADDED--><g id="link_c_EDUCATORADDED"><path d="M812.26,270.8269 C813.42,295.5169 812.68,357.6069 779.5,391.2969 C741.27,430.1169 608.84,459.6569 505.7,477.4669 " fill="none" id="c-to-EDUCATORADDED" style="stroke:#181818;stroke-width:1.0;"/><polygon fill="#181818" points="500.51,478.3669,510.0555,480.7925,505.4385,477.524,508.7069,472.907,500.51,478.3669" style="stroke:#181818;stroke-width:1.0;"/><text fill="#000000" font-family="sans-serif" font-size="13" lengthAdjust="spacing" textLength="104" x="792.5" y="387.3638">adding educator</text></g><!--MD5=[d37a15eae56a556285fba94bff3b012a]
reverse link BATTLECREATED to c--><g id="link_BATTLECREATED_c"><path d="M665.59,259.2969 C722.12,259.2969 775.76,259.2969 799.17,259.2969 " fill="none" id="BATTLECREATED-backto-c" style="stroke:#181818;stroke-width:1.0;"/><polygon fill="#181818" points="660.46,259.2969,669.46,263.2969,665.46,259.2969,669.46,255.2969,660.46,259.2969" style="stroke:#181818;stroke-width:1.0;"/><text fill="#000000" font-family="sans-serif" font-size="13" lengthAdjust="spacing" textLength="93" x="683.25" y="252.3638">creating battle</text></g><!--MD5=[f36c583a41ec79778bf9a31eba1fcd05]
link c to BADGECREATED--><g id="link_c_BADGECREATED"><path d="M819.17,264.0169 C848.54,278.8069 950.73,335.3069 918.5,391.2969 C887.32,445.4669 819.45,472.0869 766.18,485.0069 " fill="none" id="c-to-BADGECREATED" style="stroke:#181818;stroke-width:1.0;"/><polygon fill="#181818" points="761.07,486.2169,770.752,488.0222,765.9339,485.0581,768.898,480.24,761.07,486.2169" style="stroke:#181818;stroke-width:1.0;"/><text fill="#000000" font-family="sans-serif" font-size="13" lengthAdjust="spacing" textLength="94" x="924.5" y="387.3638">defining badge</text></g><!--MD5=[c527fef433bc7a950d734fcbf16cb14e]
reverse link BATTLECREATED to EDUCATORADDED--><g id="link_BATTLECREATED_EDUCATORADDED"><path d="M462.2,323.4069 C454.23,345.2269 444.64,369.6169 434.5,391.2969 C421.38,419.3569 403.54,449.9769 390.73,470.9669 " fill="none" id="BATTLECREATED-backto-EDUCATORADDED" style="stroke:#181818;stroke-width:1.0;"/><polygon fill="#181818" points="463.98,318.5069,457.1573,325.6097,462.2793,323.2088,464.6803,328.3308,463.98,318.5069" style="stroke:#181818;stroke-width:1.0;"/><text fill="#000000" font-family="sans-serif" font-size="13" lengthAdjust="spacing" textLength="93" x="442.5" y="387.3638">creating battle</text></g><!--MD5=[2cc3aec23693bf4f84bbb1392607c450]
link BATTLECREATED to EDUCATORADDED--><g id="link_BATTLECREATED_EDUCATORADDED"><path d="M372.47,318.5969 C353.14,334.0069 335.67,352.5369 324.5,374.2969 C308.83,404.8169 328.46,441.4269 347.54,466.6269 " fill="none" id="BATTLECREATED-to-EDUCATORADDED" style="stroke:#181818;stroke-width:1.0;"/><polygon fill="#181818" points="350.84,470.8769,348.5031,461.3093,347.7832,466.9201,342.1723,466.2002,350.84,470.8769" style="stroke:#181818;stroke-width:1.0;"/><text fill="#000000" font-family="sans-serif" font-size="13" lengthAdjust="spacing" textLength="104" x="325.5" y="387.3638">adding educator</text></g><!--MD5=[ab2f03971bbced2ea50bf11740b81aa9]
link EDUCATORADDED to BADGECREATED--><g id="link_EDUCATORADDED_BADGECREATED"><path d="M500.68,517.9969 C536.17,521.0969 574.77,522.0469 610.25,517.7969 C612.99,517.4669 615.76,517.0869 618.56,516.6469 " fill="none" id="EDUCATORADDED-to-BADGECREATED" style="stroke:#181818;stroke-width:1.0;"/><polygon fill="#181818" points="623.61,515.8069,614.0795,513.323,618.6765,516.6196,615.3799,521.2166,623.61,515.8069" style="stroke:#181818;stroke-width:1.0;"/><text fill="#000000" font-family="sans-serif" font-size="13" lengthAdjust="spacing" textLength="94" x="515.25" y="513.8638">defining badge</text></g><!--MD5=[e342ecae9c8ae8b077f49766a9fe6eb3]
reverse link EDUCATORADDED to BADGECREATED--><g id="link_EDUCATORADDED_BADGECREATED"><path d="M506.06,497.7969 C546.47,497.7969 589.31,497.7969 623.72,497.7969 " fill="none" id="EDUCATORADDED-backto-BADGECREATED" style="stroke:#181818;stroke-width:1.0;"/><polygon fill="#181818" points="500.64,497.7969,509.64,501.7969,505.64,497.7969,509.64,493.7969,500.64,497.7969" style="stroke:#181818;stroke-width:1.0;"/><text fill="#000000" font-family="sans-serif" font-size="13" lengthAdjust="spacing" textLength="104" x="510.25" y="490.8638">adding educator</text></g><!--MD5=[c757f7e4fe0eedba77177510f1c9e12e]
link BATTLECREATED to BADGECREATED--><g id="link_BATTLECREATED_BADGECREATED"><path d="M612.38,318.6069 C634.66,333.8669 655.46,352.3369 670.5,374.2969 C687.27,398.7769 692.38,432.2569 693.51,458.0269 " fill="none" id="BATTLECREATED-to-BADGECREATED" style="stroke:#181818;stroke-width:1.0;"/><polygon fill="#181818" points="693.69,463.0669,697.3532,453.9246,693.5044,458.0703,689.3587,454.2215,693.69,463.0669" style="stroke:#181818;stroke-width:1.0;"/><text fill="#000000" font-family="sans-serif" font-size="13" lengthAdjust="spacing" textLength="94" x="680.5" y="387.3638">defining badge</text></g><!--MD5=[98d1b9b80aca355c1cbb78901a03c30a]
reverse link BATTLECREATED to BADGECREATED--><g id="link_BATTLECREATED_BADGECREATED"><path d="M520.78,322.9069 C535.39,345.4169 553.07,370.3969 571.5,391.2969 C594.72,417.6369 624.4,443.6069 648.55,463.1869 " fill="none" id="BATTLECREATED-backto-BADGECREATED" style="stroke:#181818;stroke-width:1.0;"/><polygon fill="#181818" points="517.9,318.4469,519.4255,328.1769,520.6139,322.6463,526.1445,323.8347,517.9,318.4469" style="stroke:#181818;stroke-width:1.0;"/><text fill="#000000" font-family="sans-serif" font-size="13" lengthAdjust="spacing" textLength="93" x="572.5" y="387.3638">creating battle</text></g><!--MD5=[30dc003365c67fccf8401654f9c18d4e]
link EDUCATORADDED to ONLINE--><g id="link_EDUCATORADDED_ONLINE"><path d="M374.5,524.4969 C374.5,540.9969 374.5,562.5269 374.5,579.9569 " fill="none" id="EDUCATORADDED-to-ONLINE" style="stroke:#181818;stroke-width:1.0;"/><polygon fill="#181818" points="374.5,585.2169,378.5,576.2169,374.5,580.2169,370.5,576.2169,374.5,585.2169" style="stroke:#181818;stroke-width:1.0;"/><text fill="#000000" font-family="sans-serif" font-size="13" lengthAdjust="spacing" textLength="149" x="375.5" y="563.3638">tournament publication</text></g><!--MD5=[6a4d073685e104f9b58f9a618db649ea]
link BATTLECREATED to ONLINE--><g id="link_BATTLECREATED_ONLINE"><path d="M306.68,280.3869 C226.15,294.6369 148.5,318.0469 148.5,355.2969 C148.5,355.2969 148.5,355.2969 148.5,498.7969 C148.5,540.6669 180.03,566.8869 219.53,583.2969 " fill="none" id="BATTLECREATED-to-ONLINE" style="stroke:#181818;stroke-width:1.0;"/><polygon fill="#181818" points="224.38,585.2569,217.5356,578.1749,219.7446,583.3827,214.5368,585.5917,224.38,585.2569" style="stroke:#181818;stroke-width:1.0;"/><text fill="#000000" font-family="sans-serif" font-size="13" lengthAdjust="spacing" textLength="149" x="149.5" y="422.3638">tournament publication</text></g><!--MD5=[5b8a8b30f29508617935f11c7a7176c8]
link BADGECREATED to ONLINE--><g id="link_BADGECREATED_ONLINE"><path d="M623.84,529.8869 C595.02,542.3469 560.95,556.3269 529.5,567.2969 C512.86,573.1069 495.01,578.6869 477.55,583.8169 " fill="none" id="BADGECREATED-to-ONLINE" style="stroke:#181818;stroke-width:1.0;"/><polygon fill="#181818" points="472.64,585.2469,482.4,586.5669,477.44,583.8469,480.16,578.8869,472.64,585.2469" style="stroke:#181818;stroke-width:1.0;"/><text fill="#000000" font-family="sans-serif" font-size="13" lengthAdjust="spacing" textLength="149" x="570.5" y="563.3638">tournament publication</text></g><!--MD5=[ae1a8089f86b6c29439bd78b3bff7c45]
link ONLINE to STARTED--><g id="link_ONLINE_STARTED"><path d="M374.5,638.4969 C374.5,652.5369 374.5,670.2169 374.5,685.9069 " fill="none" id="ONLINE-to-STARTED" style="stroke:#181818;stroke-width:1.0;"/><polygon fill="#181818" points="374.5,691.1469,378.5,682.1469,374.5,686.1469,370.5,682.1469,374.5,691.1469" style="stroke:#181818;stroke-width:1.0;"/><text fill="#000000" font-family="sans-serif" font-size="13" lengthAdjust="spacing" textLength="186" x="375.5" y="669.3638">deadline for subscription met</text></g><!--MD5=[d536dc08aaccae1f4861fcda2056a29c]
link STARTED to BATTLE--><g id="link_STARTED_BATTLE"><path d="M374.5,760.3769 C374.5,773.7869 374.5,790.2869 374.5,808.1369 " fill="none" id="STARTED-to-BATTLE" style="stroke:#181818;stroke-width:1.0;"/><polygon fill="#181818" points="374.5,813.2069,378.5,804.2069,374.5,808.2069,370.5,804.2069,374.5,813.2069" style="stroke:#181818;stroke-width:1.0;"/><text fill="#000000" font-family="sans-serif" font-size="13" lengthAdjust="spacing" textLength="86" x="375.5" y="791.3638">battles online</text></g><!--MD5=[aca3fcf8b8777d1f1918d22252c09c71]
link BATTLE to OFFLINE--><g id="link_BATTLE_OFFLINE"><path d="M730.15,976.7969 C773.64,976.7969 816.25,976.7969 854.74,976.7969 " fill="none" id="BATTLE-to-OFFLINE" style="stroke:#181818;stroke-width:1.0;"/><polygon fill="#181818" points="859.89,976.7969,850.89,972.7969,854.89,976.7969,850.89,980.7969,859.89,976.7969" style="stroke:#181818;stroke-width:1.0;"/><text fill="#000000" font-family="sans-serif" font-size="13" lengthAdjust="spacing" textLength="110" x="740" y="969.8638">deadline reached</text></g><!--MD5=[89a54afab13553928f41ded4c87c93be]
link OFFLINE to *end*TOURNAMENT--><g id="link_OFFLINE_*end*TOURNAMENT"><path d="M1171.11,976.7969 C1175.47,976.7969 1179.82,976.7969 1184.18,976.7969 " fill="none" id="OFFLINE-to-*end*TOURNAMENT" style="stroke:#181818;stroke-width:1.0;"/><polygon fill="#181818" points="1189.3,976.7969,1180.3,972.7969,1184.3,976.7969,1180.3,980.7969,1189.3,976.7969" style="stroke:#181818;stroke-width:1.0;"/></g><!--MD5=[f111ad084615666ba6ac5ead19cd81dc]
@startuml



state TOURNAMENT{
    [*] -right-> CREATED: creation

    CREATED: - name set

    CREATED -right-> DEFINED: setting

    DEFINED: - programming language/s set
    DEFINED: - outline available
    DEFINED: - max and min number of student per team set
    DEFINED: - duration set
    DEFINED: - deadline for subscription set

    state c <<choice>>

    DEFINED -down-> c

    c -down- - -> EDUCATORADDED: adding educator

    EDUCATORADDED: - new educator in the tournament

    c -left-> BATTLECREATED: creating battle

    BATTLECREATED: - description available
    BATTLECREATED: - code available
    BATTLECREATED: - tests available
    BATTLECREATED: - automatic evaluation parameter defined
    BATTLECREATED: - [optional] manual evaluation parameter defined

    c -right-> BADGECREATED: defining badge

    BADGECREATED: - name set
    BADGECREATED: - rule/s defined

    EDUCATORADDED -left-> BATTLECREATED: creating battle
    BATTLECREATED -right-> EDUCATORADDED: adding educator
    EDUCATORADDED -right-> BADGECREATED: defining badge
    BADGECREATED -left-> EDUCATORADDED: adding educator
    BATTLECREATED -right-> BADGECREATED: defining badge
    BADGECREATED -left-> BATTLECREATED: creating battle

    EDUCATORADDED -down-> ONLINE: tournament publication
    BATTLECREATED -down-> ONLINE: tournament publication
    BADGECREATED -down-> ONLINE: tournament publication

    ONLINE: - students subscribe to the tournament in teams

    ONLINE - -> STARTED: deadline for subscription met

    STARTED: - all the battles are now available
    STARTED: - tournament score and rank now available

    STARTED - -> BATTLE: battles online

    state BATTLE{
        [*] - -> ACCESSIBLE: RMP repo online

        ACCESSIBLE: - students do the fork of the repo
        ACCESSIBLE: - battle score available
        ACCESSIBLE: - completation status available
        ACCESSIBLE: - automatic evaluation enabled

        ACCESSIBLE - -> MANUALEVALUATED: [optional] educator's evaluation

        MANUALEVALUATED: - an educator evaluate the code written

        MANUALEVALUATED - -> ACCESSIBLE
        ACCESSIBLE -right-> CLOSED: deadline reached

        CLOSED: - it is no more possible modify the code
        CLOSED: - the battle score is ultimated

        CLOSED - -> [*]
    }

    BATTLE -right-> OFFLINE: deadline reached

    OFFLINE: - it is no more possible complete battles
    OFFLINE: - tournament score and rank are ultimated
    OFFLINE: - badges are assigned automatically

    OFFLINE -right-> [*]
}

@enduml

PlantUML version 1.2022.7(Mon Aug 22 19:01:30 CEST 2022)
(GPL source distribution)
Java Runtime: OpenJDK Runtime Environment
JVM: OpenJDK 64-Bit Server VM
Default Encoding: UTF-8
Language: en
Country: US
--></g></svg>