<?xml version="1.0" encoding="UTF-8" standalone="no"?><svg xmlns="http://www.w3.org/2000/svg" xmlns:xlink="http://www.w3.org/1999/xlink" contentStyleType="text/css" height="612px" preserveAspectRatio="none" style="width:1085px;height:612px;background:#FFFFFF;" version="1.1" viewBox="0 0 1085 612" width="1085px" zoomAndPan="magnify"><defs/><g><!--MD5=[651a9cb98d76a5fd8afbbb3ec3aad80c]
cluster Users--><g id="cluster_Users"><rect fill="none" height="563" rx="2.5" ry="2.5" style="stroke:#181818;stroke-width:1.0;" width="119" x="7" y="26.9431"/><text fill="#000000" font-family="sans-serif" font-size="14" font-weight="bold" lengthAdjust="spacing" textLength="40" x="46.5" y="42.4783">Users</text></g><!--MD5=[4f404de55baf87f510f6f29ca86187cc]
cluster Applications--><g id="cluster_Applications"><rect fill="none" height="287" rx="2.5" ry="2.5" style="stroke:#181818;stroke-width:1.0;" width="136" x="932.71" y="173.9431"/><text fill="#000000" font-family="sans-serif" font-size="14" font-weight="bold" lengthAdjust="spacing" textLength="90" x="955.71" y="189.4783">Applications</text></g><!--MD5=[c1f211a52adcff7c507eeeaf542b089c]
entity StudentA--><g id="elem_StudentA"><ellipse cx="66.5" cy="498.4414" fill="#F1F1F1" rx="8" ry="8" style="stroke:#181818;stroke-width:0.5;"/><path d="M66.5,506.4414 L66.5,533.4414 M53.5,514.4414 L79.5,514.4414 M66.5,533.4414 L53.5,548.4414 M66.5,533.4414 L79.5,548.4414 " fill="none" style="stroke:#181818;stroke-width:0.5;"/><text fill="#000000" font-family="sans-serif" font-size="14" lengthAdjust="spacing" textLength="63" x="35" y="563.4766">StudentA</text><text fill="#000000" font-family="sans-serif" font-size="14" font-style="italic" lengthAdjust="spacing" textLength="63" x="35" y="486.9883">«Human»</text></g><!--MD5=[037e368c9e78a402ff250aafe2f0a0c3]
entity EducatorA--><g id="elem_EducatorA"><ellipse cx="66.5" cy="370.4414" fill="#F1F1F1" rx="8" ry="8" style="stroke:#181818;stroke-width:0.5;"/><path d="M66.5,378.4414 L66.5,405.4414 M53.5,386.4414 L79.5,386.4414 M66.5,405.4414 L53.5,420.4414 M66.5,405.4414 L79.5,420.4414 " fill="none" style="stroke:#181818;stroke-width:0.5;"/><text fill="#000000" font-family="sans-serif" font-size="14" lengthAdjust="spacing" textLength="71" x="31" y="435.4766">EducatorA</text><text fill="#000000" font-family="sans-serif" font-size="14" font-style="italic" lengthAdjust="spacing" textLength="63" x="35" y="358.9883">«Human»</text></g><!--MD5=[f567137487e2427af4a54c2f99d23b56]
entity StudentB--><g id="elem_StudentB"><ellipse cx="66.5" cy="114.4414" fill="#F1F1F1" rx="8" ry="8" style="stroke:#181818;stroke-width:0.5;"/><path d="M66.5,122.4414 L66.5,149.4414 M53.5,130.4414 L79.5,130.4414 M66.5,149.4414 L53.5,164.4414 M66.5,149.4414 L79.5,164.4414 " fill="none" style="stroke:#181818;stroke-width:0.5;"/><text fill="#000000" font-family="sans-serif" font-size="14" lengthAdjust="spacing" textLength="61" x="36" y="179.4766">StudentB</text><text fill="#000000" font-family="sans-serif" font-size="14" font-style="italic" lengthAdjust="spacing" textLength="63" x="35" y="102.9883">«Human»</text></g><!--MD5=[f63ad5abca9034fc7998a2fa69750059]
entity EducatorB--><g id="elem_EducatorB"><ellipse cx="66.5" cy="242.4414" fill="#F1F1F1" rx="8" ry="8" style="stroke:#181818;stroke-width:0.5;"/><path d="M66.5,250.4414 L66.5,277.4414 M53.5,258.4414 L79.5,258.4414 M66.5,277.4414 L53.5,292.4414 M66.5,277.4414 L79.5,292.4414 " fill="none" style="stroke:#181818;stroke-width:0.5;"/><text fill="#000000" font-family="sans-serif" font-size="14" lengthAdjust="spacing" textLength="69" x="32" y="307.4766">EducatorB</text><text fill="#000000" font-family="sans-serif" font-size="14" font-style="italic" lengthAdjust="spacing" textLength="63" x="35" y="230.9883">«Human»</text></g><!--MD5=[657170b1b4016a40afad3893fe08c899]
entity CKB--><g id="elem_CKB"><ellipse cx="1000.71" cy="377.4414" fill="#F1F1F1" rx="8" ry="8" style="stroke:#181818;stroke-width:0.5;"/><path d="M1000.71,385.4414 L1000.71,412.4414 M987.71,393.4414 L1013.71,393.4414 M1000.71,412.4414 L987.71,427.4414 M1000.71,412.4414 L1013.71,427.4414 " fill="none" style="stroke:#181818;stroke-width:0.5;"/><text fill="#000000" font-family="sans-serif" font-size="14" lengthAdjust="spacing" textLength="104" x="948.71" y="442.4766">CodeKataBattle</text><text fill="#000000" font-family="sans-serif" font-size="14" font-style="italic" lengthAdjust="spacing" textLength="92" x="954.71" y="365.9883">«Application»</text></g><!--MD5=[ae4d41e10e25b252562e566b0f17681b]
entity EP--><g id="elem_EP"><ellipse cx="1000.71" cy="233.4414" fill="#F1F1F1" rx="8" ry="8" style="stroke:#181818;stroke-width:0.5;"/><path d="M1000.71,241.4414 L1000.71,268.4414 M987.71,249.4414 L1013.71,249.4414 M1000.71,268.4414 L987.71,283.4414 M1000.71,268.4414 L1013.71,283.4414 " fill="none" style="stroke:#181818;stroke-width:0.5;"/><text fill="#000000" font-family="sans-serif" font-size="14" lengthAdjust="spacing" textLength="94" x="953.71" y="298.4766">EmailProvider</text><text fill="#000000" font-family="sans-serif" font-size="14" font-style="italic" lengthAdjust="spacing" textLength="92" x="954.71" y="221.9883">«Application»</text></g><!--MD5=[fee662a292a0353a69bd162820bae93b]
entity User--><g id="elem_User"><ellipse cx="362.36" cy="32.4414" fill="#F1F1F1" rx="8" ry="8" style="stroke:#181818;stroke-width:0.5;"/><path d="M362.36,40.4414 L362.36,67.4414 M349.36,48.4414 L375.36,48.4414 M362.36,67.4414 L349.36,82.4414 M362.36,67.4414 L375.36,82.4414 " fill="none" style="stroke:#181818;stroke-width:0.5;"/><text fill="#000000" font-family="sans-serif" font-size="14" lengthAdjust="spacing" textLength="31" x="346.86" y="97.4766">User</text><text fill="#000000" font-family="sans-serif" font-size="14" font-style="italic" lengthAdjust="spacing" textLength="63" x="330.86" y="20.9883">«Human»</text></g><g id="elem_UC1"><ellipse cx="791.2113" cy="569.9454" fill="#F1F1F1" rx="44.7313" ry="14.6623" style="stroke:#181818;stroke-width:0.5;"/><text fill="#000000" font-family="sans-serif" font-size="14" lengthAdjust="spacing" textLength="47" x="767.005" y="573.4338">Sign in</text></g><g id="elem_UC1A"><ellipse cx="362.3611" cy="587.9413" fill="#F1F1F1" rx="82.0911" ry="18.8182" style="stroke:#181818;stroke-width:0.5;"/><text fill="#000000" font-family="sans-serif" font-size="14" lengthAdjust="spacing" textLength="123" x="300.8611" y="591.2324">Sign in as Student</text></g><g id="elem_UC1B"><ellipse cx="362.3612" cy="514.9394" fill="#F1F1F1" rx="85.5312" ry="19.5062" style="stroke:#181818;stroke-width:0.5;"/><text fill="#000000" font-family="sans-serif" font-size="14" lengthAdjust="spacing" textLength="131" x="296.8612" y="518.2304">Sign in as Educator</text></g><g id="elem_UC3"><ellipse cx="791.2061" cy="398.9403" fill="#F1F1F1" rx="66.5361" ry="15.7072" style="stroke:#181818;stroke-width:0.5;"/><text fill="#000000" font-family="sans-serif" font-size="14" lengthAdjust="spacing" textLength="84" x="746.2061" y="402.9579">Invite a User</text></g><g id="elem_UC3A"><ellipse cx="362.364" cy="433.9459" fill="#F1F1F1" rx="122.814" ry="26.9628" style="stroke:#181818;stroke-width:0.5;"/><text fill="#000000" font-family="sans-serif" font-size="14" lengthAdjust="spacing" textLength="213" x="255.864" y="437.2369">Invite a friend to a Tournament</text></g><g id="elem_UC3B"><ellipse cx="362.3554" cy="343.9442" fill="#F1F1F1" rx="130.3554" ry="28.4711" style="stroke:#181818;stroke-width:0.5;"/><text fill="#000000" font-family="sans-serif" font-size="14" lengthAdjust="spacing" textLength="229" x="247.8554" y="347.2352">Invite a colleage to a Tournament</text></g><!--MD5=[c8a2b75b2658fd511bb6dd52ff3ff1c6]
link Users to User--><g id="link_Users_User"><path d="M126.4337,53.9431 C126.774,53.9431 127.1153,53.9431 127.4576,53.9431 C128.8267,53.9431 130.2115,53.9431 131.6113,53.9431 C134.4108,53.9431 137.2698,53.9431 140.1816,53.9431 C146.0052,53.9431 152.0398,53.9431 158.2313,53.9431 C207.7625,53.9431 267.325,53.9431 309.1,53.9431 " fill="none" id="Users-to-User" style="stroke:#181818;stroke-width:1.0;"/><polygon fill="none" points="308.85,46.9431,328.85,53.9431,308.85,60.9431,308.85,46.9431" style="stroke:#181818;stroke-width:1.0;"/><text fill="#000000" font-family="sans-serif" font-size="13" lengthAdjust="spacing" textLength="50" x="151" y="50.5115">extends</text></g><!--MD5=[74b5e76f0a0f09013f9c7fe5a1cd8b03]
link StudentA to UC1A--><g id="link_StudentA_UC1A"><path d="M98.39,527.0931 C145.26,537.9331 235.39,558.7931 296.93,573.0331 " fill="none" id="StudentA-to-UC1A" style="stroke:#181818;stroke-width:1.0;"/><polygon fill="#181818" points="301.69,574.1331,293.825,568.2051,296.819,573.0047,292.0194,575.9987,301.69,574.1331" style="stroke:#181818;stroke-width:1.0;"/></g><!--MD5=[9d424ba88a39798c33c6dab41e95732f]
link EducatorA to UC1B--><g id="link_EducatorA_UC1B"><path d="M102.39,410.1831 C150.67,435.4231 232,477.9431 232,477.9431 C232,477.9431 267.82,488.1831 301.76,497.8931 " fill="none" id="EducatorA-to-UC1B" style="stroke:#181818;stroke-width:1.0;"/><polygon fill="#181818" points="306.17,499.1531,298.6152,492.8345,301.3624,497.7795,296.4174,500.5267,306.17,499.1531" style="stroke:#181818;stroke-width:1.0;"/></g><!--MD5=[16e706309009c67ba69799459833cc01]
link UC1A to UC1--><g id="link_UC1A_UC1"><path d="M443.64,584.5531 C530.73,580.8831 667.07,575.1331 740.08,572.0531 " fill="none" id="UC1A-to-UC1" style="stroke:#181818;stroke-width:1.0;"/><polygon fill="#181818" points="745,571.8531,735.837,568.2422,740.0046,572.0672,736.1795,576.2348,745,571.8531" style="stroke:#181818;stroke-width:1.0;"/></g><!--MD5=[940a61f24377327de7f7541fa805c39c]
link UC1B to UC1--><g id="link_UC1B_UC1"><path d="M438.73,524.1331 C528.57,535.0931 666.71,551.9431 666.71,551.9431 C666.71,551.9431 708.4,558.0231 743.34,563.1131 " fill="none" id="UC1B-to-UC1" style="stroke:#181818;stroke-width:1.0;"/><polygon fill="#181818" points="748.27,563.8331,739.9473,558.5669,743.3231,563.1061,738.784,566.4819,748.27,563.8331" style="stroke:#181818;stroke-width:1.0;"/></g><!--MD5=[e7c555cb975a73f4b22699d40403be8f]
link UC1 to CKB--><g id="link_UC1_CKB"><path d="M818.75,558.0231 C846.4,545.6031 885.71,527.9431 885.71,527.9431 C885.71,527.9431 916.71,510.9431 916.71,510.9431 C916.71,510.9431 939.53,480.1531 961.24,450.8531 " fill="none" id="UC1-to-CKB" style="stroke:#181818;stroke-width:1.0;"/><polygon fill="#181818" points="964.09,447.0131,955.5204,451.8671,961.1152,451.0319,961.9505,456.6268,964.09,447.0131" style="stroke:#181818;stroke-width:1.0;"/></g><!--MD5=[260915c8f5e61056a00b1fd2f8a09ea5]
link StudentA to UC3A--><g id="link_StudentA_UC3A"><path d="M98.39,510.9031 C141.34,498.3331 220.62,475.1331 280.94,457.4731 " fill="none" id="StudentA-to-UC3A" style="stroke:#181818;stroke-width:1.0;"/><polygon fill="#181818" points="285.63,456.1031,275.8654,454.8178,280.835,457.5202,278.1326,462.4898,285.63,456.1031" style="stroke:#181818;stroke-width:1.0;"/></g><!--MD5=[cfca766881f54ff6a9882bf3a36f1d04]
link EducatorA to UC3B--><g id="link_EducatorA_UC3B"><path d="M102.36,386.2531 C138.81,380.2931 197.92,370.6431 250.47,362.0531 " fill="none" id="EducatorA-to-UC3B" style="stroke:#181818;stroke-width:1.0;"/><polygon fill="#181818" points="255.35,361.2631,245.8254,358.7568,250.4146,362.0642,247.1072,366.6534,255.35,361.2631" style="stroke:#181818;stroke-width:1.0;"/></g><!--MD5=[6a63671513544e52a6b7834501107e50]
link UC3A to UC3--><g id="link_UC3A_UC3"><path d="M452.84,415.3731 C532.57,405.5231 647.63,396.4031 720.65,394.3631 " fill="none" id="UC3A-to-UC3" style="stroke:#181818;stroke-width:1.0;"/><polygon fill="#181818" points="725.63,394.2331,716.5302,390.4658,720.6317,394.3617,716.7358,398.4632,725.63,394.2331" style="stroke:#181818;stroke-width:1.0;"/></g><!--MD5=[2ef2b71cbd5d0e306681d85bcc3f192f]
reverse link UC3A to UC3--><g id="link_UC3A_UC3"><path d="M491.81,435.2131 C577.93,430.1731 686.11,420.0831 745.7,410.7631 " fill="none" id="UC3A-backto-UC3" style="stroke:#181818;stroke-width:1.0;"/><polygon fill="#181818" points="486.9,435.5031,496.1135,438.9832,491.8919,435.2179,495.6571,430.9962,486.9,435.5031" style="stroke:#181818;stroke-width:1.0;"/></g><!--MD5=[60d1b189d2c66fdd1405716186c76b0e]
link UC3B to UC3--><g id="link_UC3B_UC3"><path d="M491.72,347.9831 C577.94,356.9531 686.32,372.2031 745.89,384.6031 " fill="none" id="UC3B-to-UC3" style="stroke:#181818;stroke-width:1.0;"/><polygon fill="#181818" points="750.73,385.6231,742.7598,379.8373,745.8395,384.5823,741.0945,387.662,750.73,385.6231" style="stroke:#181818;stroke-width:1.0;"/></g><!--MD5=[85661f593bbe983edd8fb675ee9a8604]
reverse link UC3B to UC3--><g id="link_UC3B_UC3"><path d="M455.74,366.5631 C536.76,380.0731 652.55,394.5831 724.46,399.9831 " fill="none" id="UC3B-backto-UC3" style="stroke:#181818;stroke-width:1.0;"/><polygon fill="#181818" points="450.97,365.7631,459.1823,371.1999,455.9008,366.5921,460.5086,363.3106,450.97,365.7631" style="stroke:#181818;stroke-width:1.0;"/></g><!--MD5=[6d8737b4d5374211c13de34dce677982]
link UC3 to CKB--><g id="link_UC3_CKB"><path d="M838.52,387.4831 C869.09,385.0531 909.38,384.7931 942.02,386.7031 " fill="none" id="UC3-to-CKB" style="stroke:#181818;stroke-width:1.0;"/><polygon fill="#181818" points="946.94,387.0131,938.2095,382.4548,941.9499,386.6986,937.7062,390.439,946.94,387.0131" style="stroke:#181818;stroke-width:1.0;"/></g><!--MD5=[3f16196a8055d2bce81b982b95a61c5f]
reverse link UC3 to CKB--><g id="link_UC3_CKB"><path d="M846.51,410.3031 C877.94,412.2131 917.28,412.1531 948.22,410.1331 " fill="none" id="UC3-backto-CKB" style="stroke:#181818;stroke-width:1.0;"/><polygon fill="#181818" points="841.85,410.0031,850.5675,414.5863,846.8392,410.3319,851.0936,406.6036,841.85,410.0031" style="stroke:#181818;stroke-width:1.0;"/></g><!--MD5=[0f86151acd0ba3341e4126fa975e3e69]
reverse link EP to CKB--><g id="link_EP_CKB"><path d="M1000.71,307.6331 C1000.71,322.2331 1000.71,337.9631 1000.71,352.1931 " fill="none" id="EP-backto-CKB" style="stroke:#181818;stroke-width:1.0;"/><polygon fill="#181818" points="1000.71,302.9731,996.71,311.9731,1000.71,307.9731,1004.71,311.9731,1000.71,302.9731" style="stroke:#181818;stroke-width:1.0;"/><text fill="#000000" font-family="sans-serif" font-size="13" lengthAdjust="spacing" textLength="176" x="901.21" y="332.0115">asks confermation throught</text></g><!--MD5=[3ca469f42b988da5fcf292a848fdb6b3]
link User to EP--><g id="link_User_EP"><path d="M394.29,58.0231 C510.83,73.3931 916.71,126.9431 916.71,126.9431 C916.71,126.9431 942.94,167.4031 965.91,202.8231 " fill="none" id="User-to-EP" style="stroke:#181818;stroke-width:1.0;"/><polygon fill="#181818" points="968.45,206.7331,966.9245,197.0031,965.7361,202.5337,960.2055,201.3453,968.45,206.7331" style="stroke:#181818;stroke-width:1.0;"/><text fill="#000000" font-family="sans-serif" font-size="13" lengthAdjust="spacing" textLength="187" x="697.71" y="95.5115">confirms its identity throught</text></g><!--MD5=[72d4f521d1c956d0bc0f157dc7180a69]
link UC3A to EP--><g id="link_UC3A_EP"><path d="M483.23,439.3331 C578.8,443.6331 696.71,448.9431 696.71,448.9431 C696.71,448.9431 885.71,448.9431 885.71,448.9431 C885.71,448.9431 924.71,334.9431 924.71,334.9431 C924.71,334.9431 937.14,321.6931 951.87,305.9731 " fill="none" id="UC3A-to-EP" style="stroke:#181818;stroke-width:1.0;"/><polygon fill="#181818" points="955.05,302.5831,945.9689,306.3955,951.6232,306.2241,951.7945,311.8784,955.05,302.5831" style="stroke:#181818;stroke-width:1.0;"/><text fill="#000000" font-family="sans-serif" font-size="13" lengthAdjust="spacing" textLength="184" x="699.21" y="445.5115">sends the invitation throught</text></g><!--MD5=[4ec9805f2e60dda3e3e428d5bcda784f]
link UC3B to EP--><g id="link_UC3B_EP"><path d="M473.11,328.5931 C611.37,309.2531 843.37,276.8131 946.97,262.3231 " fill="none" id="UC3B-to-EP" style="stroke:#181818;stroke-width:1.0;"/><polygon fill="#181818" points="951.81,261.6431,942.3391,258.9408,946.8591,262.3422,943.4577,266.8622,951.81,261.6431" style="stroke:#181818;stroke-width:1.0;"/><text fill="#000000" font-family="sans-serif" font-size="13" lengthAdjust="spacing" textLength="184" x="699.21" y="268.5115">sends the invitation throught</text></g><!--MD5=[acdd9a836f370a032605ff3728621633]
reverse link StudentB to EP--><g id="link_StudentB_EP"><path d="M104.54,139.6031 C268,155.7731 916.71,219.9431 916.71,219.9431 C916.71,219.9431 934.35,227.3831 953.36,235.3931 " fill="none" id="StudentB-backto-EP" style="stroke:#181818;stroke-width:1.0;"/><polygon fill="#181818" points="99.98,139.1531,108.5497,144.0069,104.9564,139.6379,109.3254,136.0446,99.98,139.1531" style="stroke:#181818;stroke-width:1.0;"/><text fill="#000000" font-family="sans-serif" font-size="13" lengthAdjust="spacing" textLength="142" x="523.71" y="178.5115">sends the invitation to</text></g><!--MD5=[aaa5460e317de86ece6abcb647281b86]
reverse link EducatorB to EP--><g id="link_EducatorB_EP"><path d="M107.7,262.8531 C246.43,259.1131 696.71,246.9431 696.71,246.9431 C696.71,246.9431 915.71,245.9431 915.71,245.9431 C915.71,245.9431 916.71,245.9431 916.71,245.9431 C916.71,245.9431 934.35,247.8531 953.36,249.9131 " fill="none" id="EducatorB-backto-EP" style="stroke:#181818;stroke-width:1.0;"/><polygon fill="#181818" points="102.84,262.9931,111.9506,266.7345,107.838,262.8503,111.7221,258.7377,102.84,262.9931" style="stroke:#181818;stroke-width:1.0;"/><text fill="#000000" font-family="sans-serif" font-size="13" lengthAdjust="spacing" textLength="142" x="523.71" y="244.5115">sends the invitation to</text></g><!--MD5=[16ad9fd311f1b93e637101e24fd75797]
@startuml
skinparam linetype polyline
left to right direction

:User: <<Human>>
rectangle Users{
    :StudentA:<<Human>>
    :EducatorA:<<Human>>
    :StudentB:<<Human>>
    :EducatorB:<<Human>>
}

rectangle Applications{
    :CodeKataBattle: as CKB <<Application>>
    :EmailProvider: as EP <<Application>>
}
usecase "Sign in" as UC1
usecase "Sign in as Student" as UC1A
usecase "Sign in as Educator" as UC1B
usecase "Invite a User" as UC3
usecase "Invite a friend to a Tournament" as UC3A
usecase "Invite a colleage to a Tournament" as UC3B


Users - -|> User: extends
StudentA - -> UC1A
EducatorA - -> UC1B
UC1A - -> UC1
UC1B - -> UC1
UC1 - -> CKB
StudentA - -> UC3A
EducatorA - -> UC3B
UC3A - -> UC3
UC3B - -> UC3
UC3 - -> CKB

CKB -left-> EP: asks confermation throught
User -> EP: confirms its identity throught
CKB -left-> UC3
UC3 -left-> UC3A
UC3 -left-> UC3B
UC3A -> EP: sends the invitation throught
UC3B -> EP: sends the invitation throught
EP -left-> StudentB: sends the invitation to
EP -left-> EducatorB: sends the invitation to

@enduml

PlantUML version 1.2022.7(Mon Aug 22 19:01:30 CEST 2022)
(GPL source distribution)
Java Runtime: OpenJDK Runtime Environment
JVM: OpenJDK 64-Bit Server VM
Default Encoding: UTF-8
Language: it
Country: IT
--></g></svg>